<?xml version="1.0" encoding="UTF-8"?>
<svg width="54px" height="54px" viewBox="0 0 54 54" version="1.1" xmlns="http://www.w3.org/2000/svg" xmlns:xlink="http://www.w3.org/1999/xlink">
    <!-- Generator: sketchtool 49.3 (51167) - http://www.bohemiancoding.com/sketch -->
    <title>0B9D0F69-E4D5-444E-B5B4-1ED76950B514</title>
    <desc>Created with sketchtool.</desc>
    <defs></defs>
    <g id="Page-1" stroke="none" stroke-width="1" fill="none" fill-rule="evenodd">
        <g id="Heleaf-drops-(2)(cart)-(v0.1)" transform="translate(-110.000000, -1239.000000)">
            <g id="body" transform="translate(0.000000, 88.000000)">
                <g id="description" transform="translate(112.000000, 1153.000000)">
                    <g id="Group-21">
                        <circle id="Oval-2" stroke="#4A306D" stroke-width="3" cx="25" cy="25" r="25"></circle>
                        <g id="tree-leaf-(1)" transform="translate(10.000000, 15.000000)" fill="#4A306D" fill-rule="nonzero">
                            <path d="M8.0707955,2.54025095 C1.53578941,6.28654935 1.91090854,12.3886002 2.13591163,14.6463793 C10.576605,4.76796234 23.2020822,5.24701827 23.2020822,5.24701827 C23.2020822,5.24701827 5.30510405,11.3122446 0.0486489477,23.4747921 C-0.366478329,24.434931 1.99639604,25.6835845 2.53565116,24.548445 C4.14520972,21.1659993 6.38805964,18.6291651 6.38805964,18.6291651 C9.69710961,19.8457239 15.4213523,21.2714051 19.4785888,18.450786 C24.8677205,14.7038119 24.3168391,6.39769844 32.0100298,2.35342589 C33.8069769,1.40916545 16.9303776,-2.53916077 8.0707955,2.54025095 Z" id="Shape"></path>
                        </g>
                    </g>
                </g>
            </g>
        </g>
    </g>
</svg>