<?xml version="1.0" encoding="UTF-8"?>
<svg width="12px" height="16px" viewBox="0 0 12 16" version="1.1" xmlns="http://www.w3.org/2000/svg" xmlns:xlink="http://www.w3.org/1999/xlink">
    <!-- Generator: sketchtool 49.3 (51167) - http://www.bohemiancoding.com/sketch -->
    <title>0C7C849B-2C5A-4EC2-B871-A71C5C75840C</title>
    <desc>Created with sketchtool.</desc>
    <defs></defs>
    <g id="Page-1" stroke="none" stroke-width="1" fill="none" fill-rule="evenodd">
        <g id="Heleaf-drops-(2)(news-ufs)-(v0.1)" transform="translate(-1097.000000, -559.000000)" fill="#6C6C6C" fill-rule="nonzero" stroke="#6C6C6C">
            <g id="back" transform="translate(1098.000000, 554.000000)">
                <g id="back-copy" transform="translate(5.000000, 13.000000) scale(-1, 1) rotate(-180.000000) translate(-5.000000, -13.000000) translate(0.000000, 6.000000)">
                    <path d="M1.29585564,6.99963326 L9.84235574,0.677005292 C10.0525481,0.521506785 10.0525481,0.272122387 9.84235574,0.11662388 C9.63216339,-0.0388746267 9.29506246,-0.0388746267 9.08487012,0.11662388 L0.157644259,6.72090952 C-0.0525480865,6.87640803 -0.0525480865,7.12579242 0.157644259,7.28129093 L9.08487012,13.8826426 C9.18798334,13.9589249 9.32678961,14 9.46162998,14 C9.59647035,14 9.73527662,13.9618589 9.83838985,13.8826426 C10.0485822,13.7271441 10.0485822,13.4777597 9.83838985,13.3222612 L1.29585564,6.99963326 Z" id="Shape"></path>
                </g>
            </g>
        </g>
    </g>
</svg>