<?xml version="1.0" encoding="UTF-8"?>
<svg width="151px" height="151px" viewBox="0 0 151 151" version="1.1" xmlns="http://www.w3.org/2000/svg" xmlns:xlink="http://www.w3.org/1999/xlink">
    <!-- Generator: sketchtool 49.3 (51167) - http://www.bohemiancoding.com/sketch -->
    <title>49D6051A-5C1F-4EAF-B73C-F005269A7DC7</title>
    <desc>Created with sketchtool.</desc>
    <defs></defs>
    <g id="Page-1" stroke="none" stroke-width="1" fill="none" fill-rule="evenodd">
        <g id="Heleaf-drops-(2)(cart)-(v0.1)" transform="translate(-137.000000, -902.000000)">
            <g id="body" transform="translate(0.000000, 88.000000)">
                <g id="buy" transform="translate(112.000000, 460.000000)">
                    <g id="Group-20" transform="translate(0.000000, 339.000000)">
                        <g id="Group-19">
                            <g id="Group-6" transform="translate(30.000000, 0.000000)">
                                <g id="Group" transform="translate(38.617834, 41.353535)" fill="#4A306D" fill-rule="nonzero">
                                    <g id="star" transform="translate(24.248408, 0.000000)">
                                        <path d="M8.46502763,0.251728408 L10.521273,5.0765229 L15.7855268,5.52486271 C16.1506389,5.5561231 16.2991732,6.00775348 16.0220199,6.24549698 L12.0290203,9.67509088 L13.2255925,14.7771157 C13.3085726,15.1316743 12.9210558,15.4105499 12.6073912,15.2221649 L8.08331945,12.5173185 L3.55924767,15.2221649 C3.24475332,15.4097273 2.85806634,15.1308517 2.94104638,14.7771157 L4.13761855,9.67509088 L0.143789232,6.24467434 C-0.133364102,6.00693084 0.0143403693,5.55530046 0.380282345,5.52404007 L5.64453608,5.07570026 L7.70078147,0.251728408 C7.84350714,-0.0839094695 8.32230197,-0.0839094695 8.46502763,0.251728408 Z" id="Shape"></path>
                                    </g>
                                    <g id="star-copy" transform="translate(41.312102, 4.494949)">
                                        <path d="M6.58391038,0.192498195 L8.18321235,3.88204693 L12.2776319,4.22489502 C12.5616081,4.24880002 12.6771347,4.59416443 12.461571,4.77596828 L9.35590472,7.39859891 L10.286572,11.3001473 C10.351112,11.5712804 10.0497101,11.7845382 9.80574873,11.6404791 L6.28702624,9.57206709 L2.76830375,11.6404791 C2.52369703,11.7839091 2.22294048,11.5706513 2.28748052,11.3001473 L3.21814776,7.39859891 L0.111836069,4.7753392 C-0.103727635,4.59353535 0.0111536205,4.24817094 0.295775157,4.22426594 L4.39019473,3.88141785 L5.9894967,0.192498195 C6.10050555,-0.0641660649 6.47290153,-0.0641660649 6.58391038,0.192498195 Z" id="Shape"></path>
                                    </g>
                                    <g id="star-copy-3" transform="translate(54.783439, 9.888889)">
                                        <path d="M5.17307244,0.148075534 L6.42966685,2.98618994 L9.6467108,3.24991924 C9.8698349,3.26830771 9.96060585,3.53397264 9.79123437,3.67382175 L7.35106799,5.69122993 L8.08230654,8.69242099 C8.13301657,8.9009849 7.89620075,9.06502936 7.70451686,8.95421466 L4.93980633,7.36312853 L2.1750958,8.95421466 C1.98290481,9.06454545 1.7465961,8.90050099 1.79730612,8.69242099 L2.52854467,5.69122993 L0.087871197,3.67333785 C-0.0815002844,3.53348873 0.00876355899,3.2678238 0.232394767,3.24943534 L3.44943871,2.98570604 L4.70603312,0.148075534 C4.79325436,-0.0493585114 5.0858512,-0.0493585114 5.17307244,0.148075534 Z" id="Shape"></path>
                                    </g>
                                    <g id="star-copy-4" transform="translate(0.000000, 9.888889)">
                                        <path d="M5.17307244,0.148075534 L6.42966685,2.98618994 L9.6467108,3.24991924 C9.8698349,3.26830771 9.96060585,3.53397264 9.79123437,3.67382175 L7.35106799,5.69122993 L8.08230654,8.69242099 C8.13301657,8.9009849 7.89620075,9.06502936 7.70451686,8.95421466 L4.93980633,7.36312853 L2.1750958,8.95421466 C1.98290481,9.06454545 1.7465961,8.90050099 1.79730612,8.69242099 L2.52854467,5.69122993 L0.087871197,3.67333785 C-0.0815002844,3.53348873 0.00876355899,3.2678238 0.232394767,3.24943534 L3.44943871,2.98570604 L4.70603312,0.148075534 C4.79325436,-0.0493585114 5.0858512,-0.0493585114 5.17307244,0.148075534 Z" id="Shape"></path>
                                    </g>
                                    <g id="star-copy-2" transform="translate(10.777070, 4.494949)">
                                        <path d="M6.58391038,0.192498195 L8.18321235,3.88204693 L12.2776319,4.22489502 C12.5616081,4.24880002 12.6771347,4.59416443 12.461571,4.77596828 L9.35590472,7.39859891 L10.286572,11.3001473 C10.351112,11.5712804 10.0497101,11.7845382 9.80574873,11.6404791 L6.28702624,9.57206709 L2.76830375,11.6404791 C2.52369703,11.7839091 2.22294048,11.5706513 2.28748052,11.3001473 L3.21814776,7.39859891 L0.111836069,4.7753392 C-0.103727635,4.59353535 0.0111536205,4.24817094 0.295775157,4.22426594 L4.39019473,3.88141785 L5.9894967,0.192498195 C6.10050555,-0.0641660649 6.47290153,-0.0641660649 6.58391038,0.192498195 Z" id="Shape"></path>
                                    </g>
                                </g>
                                <g id="Group-Copy" transform="translate(70.050955, 129.904040) scale(1, -1) translate(-70.050955, -129.904040) translate(37.719745, 120.464646)" fill="#4A306D" fill-rule="nonzero">
                                    <g id="star" transform="translate(24.248408, 0.000000)">
                                        <path d="M8.46502763,0.251728408 L10.521273,5.0765229 L15.7855268,5.52486271 C16.1506389,5.5561231 16.2991732,6.00775348 16.0220199,6.24549698 L12.0290203,9.67509088 L13.2255925,14.7771157 C13.3085726,15.1316743 12.9210558,15.4105499 12.6073912,15.2221649 L8.08331945,12.5173185 L3.55924767,15.2221649 C3.24475332,15.4097273 2.85806634,15.1308517 2.94104638,14.7771157 L4.13761855,9.67509088 L0.143789232,6.24467434 C-0.133364102,6.00693084 0.0143403693,5.55530046 0.380282345,5.52404007 L5.64453608,5.07570026 L7.70078147,0.251728408 C7.84350714,-0.0839094695 8.32230197,-0.0839094695 8.46502763,0.251728408 Z" id="Shape"></path>
                                    </g>
                                    <g id="star-copy" transform="translate(41.312102, 4.494949)">
                                        <path d="M6.58391038,0.192498195 L8.18321235,3.88204693 L12.2776319,4.22489502 C12.5616081,4.24880002 12.6771347,4.59416443 12.461571,4.77596828 L9.35590472,7.39859891 L10.286572,11.3001473 C10.351112,11.5712804 10.0497101,11.7845382 9.80574873,11.6404791 L6.28702624,9.57206709 L2.76830375,11.6404791 C2.52369703,11.7839091 2.22294048,11.5706513 2.28748052,11.3001473 L3.21814776,7.39859891 L0.111836069,4.7753392 C-0.103727635,4.59353535 0.0111536205,4.24817094 0.295775157,4.22426594 L4.39019473,3.88141785 L5.9894967,0.192498195 C6.10050555,-0.0641660649 6.47290153,-0.0641660649 6.58391038,0.192498195 Z" id="Shape"></path>
                                    </g>
                                    <g id="star-copy-3" transform="translate(54.783439, 9.888889)">
                                        <path d="M5.17307244,0.148075534 L6.42966685,2.98618994 L9.6467108,3.24991924 C9.8698349,3.26830771 9.96060585,3.53397264 9.79123437,3.67382175 L7.35106799,5.69122993 L8.08230654,8.69242099 C8.13301657,8.9009849 7.89620075,9.06502936 7.70451686,8.95421466 L4.93980633,7.36312853 L2.1750958,8.95421466 C1.98290481,9.06454545 1.7465961,8.90050099 1.79730612,8.69242099 L2.52854467,5.69122993 L0.087871197,3.67333785 C-0.0815002844,3.53348873 0.00876355899,3.2678238 0.232394767,3.24943534 L3.44943871,2.98570604 L4.70603312,0.148075534 C4.79325436,-0.0493585114 5.0858512,-0.0493585114 5.17307244,0.148075534 Z" id="Shape"></path>
                                    </g>
                                    <g id="star-copy-4" transform="translate(0.000000, 9.888889)">
                                        <path d="M5.17307244,0.148075534 L6.42966685,2.98618994 L9.6467108,3.24991924 C9.8698349,3.26830771 9.96060585,3.53397264 9.79123437,3.67382175 L7.35106799,5.69122993 L8.08230654,8.69242099 C8.13301657,8.9009849 7.89620075,9.06502936 7.70451686,8.95421466 L4.93980633,7.36312853 L2.1750958,8.95421466 C1.98290481,9.06454545 1.7465961,8.90050099 1.79730612,8.69242099 L2.52854467,5.69122993 L0.087871197,3.67333785 C-0.0815002844,3.53348873 0.00876355899,3.2678238 0.232394767,3.24943534 L3.44943871,2.98570604 L4.70603312,0.148075534 C4.79325436,-0.0493585114 5.0858512,-0.0493585114 5.17307244,0.148075534 Z" id="Shape"></path>
                                    </g>
                                    <g id="star-copy-2" transform="translate(10.777070, 4.494949)">
                                        <path d="M6.58391038,0.192498195 L8.18321235,3.88204693 L12.2776319,4.22489502 C12.5616081,4.24880002 12.6771347,4.59416443 12.461571,4.77596828 L9.35590472,7.39859891 L10.286572,11.3001473 C10.351112,11.5712804 10.0497101,11.7845382 9.80574873,11.6404791 L6.28702624,9.57206709 L2.76830375,11.6404791 C2.52369703,11.7839091 2.22294048,11.5706513 2.28748052,11.3001473 L3.21814776,7.39859891 L0.111836069,4.7753392 C-0.103727635,4.59353535 0.0111536205,4.24817094 0.295775157,4.22426594 L4.39019473,3.88141785 L5.9894967,0.192498195 C6.10050555,-0.0641660649 6.47290153,-0.0641660649 6.58391038,0.192498195 Z" id="Shape"></path>
                                    </g>
                                </g>
                                <g id="Group-2" transform="translate(43.108280, 75.515152)" fill="#4A306D">
                                    <g id="Group-3">
                                        <path d="M2.30658385,0 L5.26013635,7.80428341 L8.20665657,0 L10.5062082,0 L10.5062082,10.1819325 L8.73407666,10.1819325 L8.73407666,6.82525144 L8.90988336,2.33569055 L5.88600818,10.1819325 L4.6131677,10.1819325 L1.5963248,2.34268364 L1.7721315,6.82525144 L1.7721315,10.1819325 L0,10.1819325 L0,0 L2.30658385,0 Z M18.4667354,7.81127649 L14.5005363,7.81127649 L13.6707287,10.1819325 L11.8212422,10.1819325 L15.6889896,0 L17.2853144,0 L21.1600939,10.1819325 L19.3035752,10.1819325 L18.4667354,7.81127649 Z M14.9998273,6.38468705 L17.9674443,6.38468705 L16.4836358,2.16086342 L14.9998273,6.38468705 Z M22.3204181,10.1819325 L22.3204181,0 L25.3442933,0 C26.2491163,0 27.0519588,0.200466446 27.752845,0.601405352 C28.4537312,1.00234426 28.9963825,1.57110952 29.380815,2.30771821 C29.7652476,3.0443269 29.957461,3.88815078 29.957461,4.83921516 L29.957461,5.3497104 C29.957461,6.31476102 29.7640756,7.16324691 29.3772989,7.89519352 C28.9905222,8.62714012 28.4396668,9.19124338 27.724716,9.5875202 C27.0097652,9.98379703 26.1905141,10.1819325 25.2669384,10.1819325 L22.3204181,10.1819325 Z M24.0995819,1.42658944 L24.0995819,8.7693292 L25.2599061,8.7693292 C26.1928583,8.7693292 26.9089704,8.47911906 27.4082639,7.89869006 C27.9075574,7.31826106 28.1618886,6.48492671 28.171265,5.398662 L28.171265,4.83222207 C28.171265,3.72730904 27.9298262,2.88348516 27.4469414,2.30072513 C26.9640566,1.71796509 26.2631809,1.42658944 25.3442933,1.42658944 L24.0995819,1.42658944 Z M37.7140524,5.6364269 L33.5087563,5.6364269 L33.5087563,8.7693292 L38.4243115,8.7693292 L38.4243115,10.1819325 L31.7295925,10.1819325 L31.7295925,0 L38.3750856,0 L38.3750856,1.42658944 L33.5087563,1.42658944 L33.5087563,4.23780981 L37.7140524,4.23780981 L37.7140524,5.6364269 Z M45.3370308,10.1819325 L43.5648993,10.1819325 L43.5648993,0 L45.3370308,0 L45.3370308,10.1819325 Z M55.6463354,10.1819325 L53.8671717,10.1819325 L49.3032298,2.95807516 L49.3032298,10.1819325 L47.5240661,10.1819325 L47.5240661,0 L49.3032298,0 L53.8812362,7.25182965 L53.8812362,0 L55.6463354,0 L55.6463354,10.1819325 Z" id="made-in"></path>
                                        <path d="M18.4509517,13.5176716 L18.4509517,24.010142 C18.4509517,25.7534252 17.9026731,27.1319842 16.8060994,28.1458602 C15.7095257,29.1597363 14.2113865,29.6666667 12.3116368,29.6666667 C10.4412269,29.6666667 8.95592362,29.1743242 7.85568248,28.1896244 C6.75544133,27.2049247 6.19432677,25.8518946 6.17232195,24.1304936 L6.17232195,13.5176716 L9.47302887,13.5176716 L9.47302887,24.0320241 C9.47302887,25.0750764 9.72424683,25.835472 10.2266903,26.3132338 C10.7291337,26.7909955 11.424109,27.0298728 12.3116368,27.0298728 C14.1673769,27.0298728 15.1099027,26.0597757 15.1392424,24.1195525 L15.1392424,13.5176716 L18.4509517,13.5176716 Z M29.4643105,25.2683631 C29.4643105,24.648367 29.2442655,24.1724359 28.8041691,23.8405557 C28.3640726,23.5086754 27.5719109,23.1585652 26.4276601,22.7902145 C25.2834093,22.4218639 24.3775577,22.0589892 23.7100781,21.7015797 C21.8910127,20.724174 20.9814937,19.4076137 20.9814937,17.7518594 C20.9814937,16.8911588 21.2253768,16.1234693 21.7131504,15.4487676 C22.2009239,14.7740659 22.9014003,14.2470771 23.8146004,13.8677854 C24.7278006,13.4884936 25.7528432,13.2988506 26.8897591,13.2988506 C28.0340099,13.2988506 29.0535514,13.504905 29.9484141,13.9170201 C30.8432769,14.3291352 31.5382522,14.9108287 32.0333607,15.6621181 C32.5284692,16.4134076 32.7760197,17.2668012 32.7760197,18.2223247 L29.4753128,18.2223247 C29.4753128,17.4929175 29.2442656,16.9258118 28.7821644,16.5209908 C28.3200631,16.1161698 27.6709306,15.9137624 26.8347473,15.9137624 C26.0279038,15.9137624 25.4007757,16.083347 24.9533443,16.4225214 C24.5059129,16.7616957 24.2822006,17.2084509 24.2822006,17.7628004 C24.2822006,18.2806795 24.5444208,18.7146703 25.0688691,19.0647858 C25.5933174,19.4149013 26.3653083,19.7431296 27.3848651,20.0494806 C29.26261,20.6111242 30.630556,21.3076976 31.488744,22.1392218 C32.3469321,22.9707461 32.7760197,24.0064888 32.7760197,25.246481 C32.7760197,26.6250607 32.2515793,27.7063907 31.2026828,28.4905034 C30.1537862,29.2746162 28.7418313,29.6666667 26.9667756,29.6666667 C25.7345055,29.6666667 24.6122763,29.4423773 23.6000545,28.9937919 C22.5878326,28.5452064 21.8158417,27.9306901 21.2840585,27.1502244 C20.7522753,26.3697586 20.4863876,25.4653073 20.4863876,24.4368431 L23.7980969,24.4368431 C23.7980969,26.1947145 24.8543126,27.073637 26.9667756,27.073637 C27.7516142,27.073637 28.3640726,26.9149933 28.8041691,26.5977011 C29.2442655,26.280409 29.4643105,25.8373008 29.4643105,25.2683631 Z M44.0534351,26.1655295 L38.2661956,26.1655295 L37.16596,29.4478456 L33.6562083,29.4478456 L39.6194854,13.5176716 L42.6781405,13.5176716 L48.6744248,29.4478456 L45.1646731,29.4478456 L44.0534351,26.1655295 Z M39.1573865,23.5068535 L43.1622442,23.5068535 L41.148813,17.5439793 L39.1573865,23.5068535 Z" id="usa"></path>
                                    </g>
                                </g>
                                <ellipse id="Oval-11" stroke="#4A306D" stroke-width="9" cx="70.5" cy="90.3484848" rx="70.5" ry="70.5707071"></ellipse>
                                <ellipse id="Oval-11" stroke="#4A306D" stroke-width="2" cx="70.5" cy="90.3484848" rx="53.4363057" ry="53.489899"></ellipse>
                                <path d="M40.8205537,156.407282 L43.4804622,162.600637 L45.8286502,156.282258 L47.138541,156.249558 L47.3295616,163.916681 L46.3195254,163.941896 L46.2451375,160.956141 L46.2595368,157.731058 L43.8996468,164.002307 L43.1263378,164.021612 L40.4627431,157.891578 L40.6425926,161.096005 L40.7169805,164.081759 L39.7069442,164.106974 L39.5159236,156.439851 L40.8205537,156.407282 Z M53.9608756,160.23738 L50.798951,160.791218 L50.4334821,162.887304 L49.4071525,163.067074 L50.9685455,155.007544 L51.8393707,154.855012 L56.047194,161.904014 L55.0260479,162.082877 L53.9608756,160.23738 Z M50.9562836,159.918747 L53.5221077,159.469321 L51.6189222,156.160995 L50.9562836,159.918747 Z M57.9098896,161.009957 L55.7366671,153.655436 L57.8106227,153.041363 C58.4498012,152.85211 59.0567534,152.826205 59.6314975,152.963646 C60.2062416,153.101088 60.704447,153.39119 61.1261286,153.83396 C61.5478103,154.276731 61.860333,154.836041 62.0637062,155.511906 L62.2025178,155.981666 C62.4075023,156.675365 62.4533889,157.322778 62.340179,157.923924 C62.2269692,158.525069 61.9635615,159.038844 61.5499479,159.465264 C61.1363344,159.891684 60.6008492,160.205872 59.9434763,160.407836 L57.9098896,161.009957 Z M56.9413528,154.166657 L58.6444069,159.930055 L59.6637233,159.628248 C60.4105529,159.40712 60.9230332,159.0027 61.2011795,158.414975 C61.4793259,157.827249 61.4915274,157.104045 61.2377845,156.24534 L61.1109137,155.815989 C60.8641362,154.980856 60.4763836,154.389806 59.9476441,154.042821 C59.4189046,153.695835 58.7935908,153.625556 58.0716838,153.831979 L56.9413528,154.166657 Z M68.0552254,153.222517 L65.0005315,154.525511 L66.0649872,157.025991 L69.6134668,155.51237 L69.9373419,156.273175 L65.4593833,158.18327 L62.4558029,151.127652 L66.8853511,149.238207 L67.2112891,150.003858 L63.7112199,151.496829 L64.6766564,153.764706 L67.7313503,152.461712 L68.0552254,153.222517 Z M75.8594282,152.523228 L75.001256,153.057006 L70.9574949,146.542674 L71.815667,146.008896 L75.8594282,152.523228 Z M82.9983812,147.512505 L82.1667587,148.096076 L75.6191433,145.472973 L79.0083166,150.312435 L78.1766941,150.896006 L73.7786225,144.615919 L74.6102451,144.032348 L81.1815815,146.67097 L77.777305,141.809941 L78.6003097,141.232418 L82.9983812,147.512505 Z M85.902746,133.611372 L89.5865028,137.298823 C90.0950374,137.812834 90.3524017,138.392019 90.3586033,139.036395 C90.364805,139.680771 90.1148825,140.295961 89.6088286,140.881983 L89.4265012,141.079392 C88.8336243,141.672864 88.2010663,141.985735 87.5288083,142.018016 C86.8565503,142.050297 86.2376358,141.788329 85.672046,141.232105 L81.9808473,137.537204 L82.6878309,136.829511 L86.3567039,140.502064 C86.7486476,140.894401 87.1610506,141.091187 87.5939252,141.092429 C88.0267998,141.09367 88.4429237,140.894401 88.8423095,140.494615 C89.2466565,140.089862 89.4482069,139.672079 89.4469665,139.241254 C89.4457262,138.810428 89.2491371,138.398853 88.8571933,138.006516 L85.1845994,134.330239 L85.902746,133.611372 Z M91.4843688,132.930207 C90.7495793,133.453208 90.1172346,133.755945 89.5873156,133.838425 C89.0573966,133.920905 88.5839224,133.795831 88.1668787,133.463199 C87.6949608,133.086799 87.4549716,132.586691 87.446904,131.962861 C87.4388364,131.339031 87.6752787,130.725015 88.156238,130.120793 C88.4841649,129.708824 88.8561283,129.404952 89.2721394,129.209169 C89.6881505,129.013385 90.1065832,128.938528 90.52745,128.984595 C90.9483169,129.030663 91.324739,129.18609 91.6567278,129.450883 L91.0238321,130.24598 C90.6616626,129.957115 90.2851889,129.845424 89.8943999,129.910905 C89.5036109,129.976385 89.1409791,130.219226 88.8064937,130.639435 C88.4960563,131.029432 88.3396803,131.401984 88.3373608,131.7571 C88.3350414,132.112217 88.4861553,132.411226 88.7907069,132.654135 C89.034897,132.8489 89.323885,132.909895 89.6576796,132.837122 C89.9914742,132.764349 90.4267252,132.534529 90.9634459,132.147653 C91.5001665,131.760777 91.9649305,131.49388 92.3577519,131.346953 C92.7505734,131.200025 93.1135786,131.148311 93.4467786,131.191807 C93.7799785,131.235304 94.0988496,131.378505 94.4034012,131.621414 C94.8890377,132.008756 95.1271085,132.508456 95.1176207,133.120529 C95.108133,133.732602 94.8508894,134.355845 94.345882,134.990278 C94.0179552,135.402247 93.6330143,135.723831 93.1910478,135.955039 C92.7490813,136.186248 92.3138563,136.289245 91.8853599,136.264033 C91.4568634,136.238821 91.0683955,136.087256 90.7199445,135.809333 L91.3528401,135.014237 C91.7150096,135.303102 92.1076116,135.397348 92.5306578,135.296978 C92.9537039,135.196609 93.3433947,134.922592 93.6997419,134.474919 C94.0320411,134.057457 94.2016734,133.66966 94.208644,133.311518 C94.2156145,132.953376 94.0723135,132.657231 93.7787367,132.423075 C93.4851599,132.18892 93.1761409,132.110825 92.8516705,132.18879 C92.5272001,132.266755 92.0714375,132.513891 91.4843688,132.930207 Z M97.5491262,126.131501 L95.8207209,128.839118 L97.1175601,130.525013 L96.5565367,131.403879 L91.6756408,124.80631 L92.1516606,124.060606 L100.186188,125.717884 L99.6279979,126.592311 L97.5491262,126.131501 Z M95.2844467,128.133538 L96.6870051,125.936374 L92.9645723,125.10566 L95.2844467,128.133538 Z" id="made-in-usa" fill="#4A306D" transform="translate(69.851056, 144.083790) rotate(34.000000) translate(-69.851056, -144.083790) "></path>
                                <g id="Group-5" transform="translate(113.608280, 132.601010) scale(1, -1) translate(-113.608280, -132.601010) translate(109.566879, 127.656566)" fill="#4A306D">
                                    <ellipse id="Oval-12-Copy" cx="1.34713376" cy="1.34848485" rx="1.34713376" ry="1.34848485"></ellipse>
                                    <ellipse id="Oval-12-Copy-2" cx="4.04140127" cy="4.94444444" rx="1.34713376" ry="1.34848485"></ellipse>
                                    <ellipse id="Oval-12-Copy-3" cx="6.73566879" cy="8.54040404" rx="1.34713376" ry="1.34848485"></ellipse>
                                </g>
                                <path d="M91.4373933,17.6206092 L91.4321673,16.6039915 L94.9736088,16.5857498 L94.9537337,12.7194421 L91.4122922,12.7376838 L91.4070933,11.7263335 L99.0688151,11.6868687 L99.074014,12.6982189 L95.7798946,12.7151866 L95.7997697,16.5814944 L99.0938891,16.5645266 L99.0991152,17.5811443 L91.4373933,17.6206092 Z M90.4631218,21.4414231 L90.6172994,20.4419042 L98.1893899,21.6122567 L98.0352123,22.6117755 L90.4631218,21.4414231 Z M89.5407603,29.9550678 C89.2364197,29.6184916 89.0465092,29.2028312 88.9710229,28.7080743 C88.8955367,28.2133173 88.9268794,27.6647551 89.0650522,27.0623711 C89.2047951,26.4531419 89.4715845,25.9451826 89.8654283,25.5384781 C90.259272,25.1317736 90.749102,24.8597321 91.3349329,24.7223455 C91.9207637,24.5849589 92.5615041,24.5926076 93.2571733,24.7452919 L93.908529,24.8949975 C95.0334481,25.1535454 95.8450794,25.61662 96.3434472,26.2842353 C96.8418151,26.9518507 96.9818718,27.7613926 96.7636216,28.7128855 C96.5846251,29.4932466 96.2414006,30.0755152 95.7339379,30.459709 C95.2264752,30.8439028 94.5947296,31.0049611 93.838682,30.9428888 L94.0647818,29.9571745 C95.0953265,29.9994656 95.724425,29.5243361 95.952096,28.5317715 C96.103615,27.8712028 95.9867824,27.3174085 95.6015945,26.8703722 C95.2164067,26.4233358 94.5848467,26.0971283 93.7068955,25.8917396 L93.0965701,25.7514643 C92.2588644,25.5589287 91.5490204,25.5975495 90.9670169,25.867328 C90.3850134,26.1371065 90.0190427,26.5988506 89.8690938,27.2525741 C89.784306,27.6222189 89.7511476,27.9550833 89.7696177,28.2511775 C89.7880878,28.5472717 89.8739645,28.8084117 90.0272505,29.0346054 L91.7043632,29.4200678 L92.1012153,27.6899338 L92.9013058,27.8738241 L92.2795314,30.5845385 L89.5407603,29.9550678 Z M85.0273726,37.5963696 L85.4042816,36.6523393 L88.6928614,37.967957 L90.1262876,34.3777067 L86.8377079,33.062089 L87.2126641,32.12295 L94.3273328,34.9692195 L93.9523766,35.9083585 L90.89346,34.684619 L89.4600337,38.2748693 L92.5189504,39.4986087 L92.1420413,40.4426391 L85.0273726,37.5963696 Z M80.8011965,49.7265656 C80.1934821,49.3035103 79.7371196,48.8425261 79.4320953,48.343599 C79.1270709,47.8446719 78.9718951,47.3345763 78.9665631,46.813297 L77.3040747,47.3241542 L77.1749137,46.3937315 L79.1514214,45.7999197 C79.2437939,45.55625 79.3700979,45.3190966 79.5303373,45.0884525 C79.8748519,44.5925677 80.3019887,44.2376189 80.8117604,44.0235957 C81.3215322,43.8095724 81.8753924,43.7535008 82.4733578,43.8553792 C83.0713232,43.9572576 83.6689567,44.2118251 84.2662762,44.6190892 L84.7198996,44.9348753 C85.3247338,45.3559255 85.7858879,45.8330774 86.1033756,46.3663453 C86.4208634,46.8996133 86.5690323,47.4443965 86.5478868,48.0007115 C86.5267412,48.5570264 86.3439139,49.0831184 85.9993992,49.5790033 C85.6468726,50.0864203 85.2145091,50.4473546 84.7022958,50.6618169 C84.1900825,50.8762791 83.6321836,50.9274005 83.0285822,50.8151826 C82.4249807,50.7029646 81.8164518,50.433327 81.2029772,50.0062618 L80.8011965,49.7265656 Z M81.7841562,49.1789546 C82.5243581,49.6942399 83.1979936,49.9439712 83.805083,49.9281561 C84.4121724,49.912341 84.905994,49.6305478 85.2865625,49.082768 C85.6491041,48.5609357 85.7355787,48.010542 85.5459888,47.4315705 C85.3563989,46.852599 84.9103551,46.3121816 84.2078441,45.8103022 L83.7455803,45.4885012 C83.0255396,44.9872509 82.3535012,44.7429088 81.7294451,44.7554675 C81.105389,44.7680262 80.6070901,45.0424252 80.2345336,45.5786728 C79.861977,46.1149204 79.7686786,46.6659103 79.9546354,47.2316592 C80.1405923,47.7974081 80.5949,48.3382317 81.3175722,48.8541461 L81.7841562,49.1789546 Z M77.6272473,58.476229 L73.8553715,54.8791474 C73.3345521,54.3776133 73.0632528,53.8048364 73.0414656,53.1607996 C73.0196784,52.5167628 73.2546461,51.8956956 73.7463759,51.2975793 L73.9238745,51.0958089 C74.5022216,50.4881409 75.1270258,50.1600288 75.7983058,50.1114629 C76.4695857,50.062897 77.0946558,50.3097865 77.6735347,50.8521388 L81.4530305,54.4564872 L80.7633732,55.1811086 L77.0067373,51.5985607 C76.6054178,51.215839 76.1883755,51.0291064 75.7555978,51.0383574 C75.3228201,51.0476084 74.9116385,51.2569056 74.5220407,51.6662551 C74.1276031,52.0806898 73.936218,52.5032354 73.9478796,52.9339046 C73.9595412,53.3645738 74.1660286,53.7712632 74.5673481,54.1539849 L78.327794,57.7401662 L77.6272473,58.476229 Z M67.8061763,58.6627431 L70.3307947,56.6782839 L69.6628172,54.6583034 L70.4822836,54.0141675 L72.9130866,61.8549714 L72.2177819,62.401511 L65.1805849,58.1815319 L65.9959125,57.5406492 L67.8061763,58.6627431 Z M70.6042415,57.5215436 L68.5555757,59.1318835 L71.7951955,61.1463811 L70.6042415,57.5215436 Z M62.7087966,60.0600041 L59.5549876,61.8610477 L59.1455955,61.1427222 L63.1815569,58.8379084 L66.978212,65.4995769 L66.0960597,66.0033471 L62.7087966,60.0600041 Z M56.032744,62.1448653 L56.9661213,61.7576769 L59.8993583,68.8428869 L58.965981,69.2300753 L56.032744,62.1448653 Z M50.6440348,71.1554029 L52.9792434,70.37242 L50.8098127,63.8892132 L51.7628572,63.5696625 L53.932288,70.0528692 L56.2625068,69.2715593 L56.5265824,70.0607324 L50.9081104,71.944576 L50.6440348,71.1554029 Z M44.6000124,68.9361643 L43.3379916,73.0879739 L42.2101911,73.2980936 L43.9281211,68.0861916 L43.4052738,65.2742198 L44.398566,65.0891602 L44.9214132,67.901132 L48.3975735,72.1453266 L47.2594262,72.3573741 L44.6000124,68.9361643 Z" id="High-quality" fill="#4A306D" transform="translate(70.654653, 42.492481) rotate(226.000000) translate(-70.654653, -42.492481) "></path>
                                <polygon id="Rectangle-25" fill="#4A306D" points="22.4522293 68.3232323 118.547771 68.3232323 119.44586 71.020202 21.5541401 71.020202"></polygon>
                                <polygon id="Rectangle-25-Copy" fill="#4A306D" transform="translate(70.500000, 111.025253) scale(1, -1) translate(-70.500000, -111.025253) " points="22.4522293 109.676768 118.547771 109.676768 119.44586 112.373737 21.5541401 112.373737"></polygon>
                                <g id="Group-5" transform="translate(115.853503, 50.343434)" fill="#4A306D">
                                    <ellipse id="Oval-12-Copy" cx="1.34713376" cy="1.34848485" rx="1.34713376" ry="1.34848485"></ellipse>
                                    <ellipse id="Oval-12-Copy-2" cx="4.04140127" cy="4.94444444" rx="1.34713376" ry="1.34848485"></ellipse>
                                    <ellipse id="Oval-12-Copy-3" cx="6.73566879" cy="8.54040404" rx="1.34713376" ry="1.34848485"></ellipse>
                                </g>
                                <g id="Group-5" transform="translate(21.105096, 56.186869) scale(-1, 1) translate(-21.105096, -56.186869) translate(17.063694, 51.242424)" fill="#4A306D">
                                    <ellipse id="Oval-12-Copy" cx="1.34713376" cy="1.34848485" rx="1.34713376" ry="1.34848485"></ellipse>
                                    <ellipse id="Oval-12-Copy-2" cx="4.04140127" cy="4.94444444" rx="1.34713376" ry="1.34848485"></ellipse>
                                    <ellipse id="Oval-12-Copy-3" cx="6.73566879" cy="8.54040404" rx="1.34713376" ry="1.34848485"></ellipse>
                                </g>
                                <g id="Group-5" transform="translate(22.452229, 126.757576)" fill="#4A306D">
                                    <ellipse id="Oval-12-Copy" cx="1.34713376" cy="1.34848485" rx="1.34713376" ry="1.34848485"></ellipse>
                                    <ellipse id="Oval-12-Copy-2" cx="4.04140127" cy="4.94444444" rx="1.34713376" ry="1.34848485"></ellipse>
                                    <ellipse id="Oval-12-Copy-3" cx="6.73566879" cy="8.54040404" rx="1.34713376" ry="1.34848485"></ellipse>
                                </g>
                            </g>
                        </g>
                    </g>
                </g>
            </g>
        </g>
    </g>
</svg>