<?xml version="1.0" encoding="UTF-8"?>
<svg width="151px" height="151px" viewBox="0 0 151 151" version="1.1" xmlns="http://www.w3.org/2000/svg" xmlns:xlink="http://www.w3.org/1999/xlink">
    <!-- Generator: sketchtool 49.3 (51167) - http://www.bohemiancoding.com/sketch -->
    <title>F193F76D-9BC9-4643-AF1B-B832CF54DB84</title>
    <desc>Created with sketchtool.</desc>
    <defs></defs>
    <g id="Page-1" stroke="none" stroke-width="1" fill="none" fill-rule="evenodd">
        <g id="Heleaf-drops-(2)(cart)-(v0.1)" transform="translate(-365.000000, -902.000000)">
            <g id="body" transform="translate(0.000000, 88.000000)">
                <g id="buy" transform="translate(112.000000, 460.000000)">
                    <g id="Group-20" transform="translate(0.000000, 339.000000)">
                        <g id="Group-17" transform="translate(228.000000, 20.000000)">
                            <g id="Group-7" transform="translate(23.000000, 0.000000)">
                                <g id="Group-6-Copy" transform="translate(7.167630, 0.000000)">
                                    <ellipse id="Oval-11" stroke="#4A306D" stroke-width="9" cx="70.3323699" cy="70.5" rx="70.3323699" ry="70.5"></ellipse>
                                    <ellipse id="Oval-11" stroke="#4A306D" stroke-width="2" cx="70.3323699" cy="70.5" rx="53.3092486" ry="53.4363057"></ellipse>
                                    <g id="Group-5" transform="translate(8.959538, 70.050955)" fill="#4A306D">
                                        <ellipse id="Oval-12-Copy" cx="120.50578" cy="1.34713376" rx="1.34393064" ry="1.34713376"></ellipse>
                                        <ellipse id="Oval-12-Copy-2" cx="1.34393064" cy="1.34713376" rx="1.34393064" ry="1.34713376"></ellipse>
                                    </g>
                                    <g id="Group-5" transform="translate(70.332370, 130.671975) scale(-1, 1) rotate(-53.000000) translate(-70.332370, -130.671975) translate(66.300578, 125.732484)" fill="#4A306D">
                                        <ellipse id="Oval-12-Copy" cx="1.34393064" cy="1.34713376" rx="1.34393064" ry="1.34713376"></ellipse>
                                        <ellipse id="Oval-12-Copy-2" cx="4.03179191" cy="4.93949045" rx="1.34393064" ry="1.34713376"></ellipse>
                                        <ellipse id="Oval-12-Copy-3" cx="6.71965318" cy="8.53184713" rx="1.34393064" ry="1.34713376"></ellipse>
                                    </g>
                                    <g id="raindrop-close-up" transform="translate(34.942197, 8.980892)" fill="#4A306D" fill-rule="nonzero">
                                        <path d="M65.1182949,48.8375969 L35.7617906,78.2104763 L11.0403393,53.4752353 L2.79985549,61.7203156 L35.7617906,94.7006369 L70.3257166,60.1174311 C74.710448,75.6631402 68.2275952,92.7922158 53.6576441,101.193218 C36.4860848,111.094428 14.583955,105.122687 4.73789619,87.8552875 C-1.81192362,76.368659 -1.34231155,62.7279514 4.73789619,52.0002029 L33.6720191,1.25716096 C34.6276597,-0.419053652 37.0316855,-0.419053652 37.9874505,1.25716096 L65.1182949,48.8375969 Z" id="Combined-Shape"></path>
                                    </g>
                                </g>
                                <path d="M9.05156784,48.8363112 L7.7467969,51.3945591 L14.8252378,55.0219719 L14.2927352,56.0660432 L7.21429423,52.4386304 L5.91231126,54.991412 L5.05068285,54.5498626 L8.18993944,48.3947617 L9.05156784,48.8363112 Z M21.8650456,45.3242334 L21.171183,46.2835043 L17.8341142,43.858206 L15.1952789,47.5064176 L18.5323476,49.9317158 L17.8420801,50.8860164 L10.6225079,45.6390115 L11.3127755,44.6847109 L14.4167948,46.9406347 L17.0556301,43.2924232 L13.9516108,41.0364994 L14.6454735,40.0772285 L21.8650456,45.3242334 Z M25.2332229,37.1159647 L22.4400859,39.7933048 L24.624274,42.0828354 L27.8689165,38.9727081 L28.5334853,39.6693288 L24.4389501,43.5941143 L18.2758149,37.1337335 L22.3260848,33.2513782 L22.9948866,33.952436 L19.7945093,37.0201332 L21.7755171,39.0966841 L24.5686541,36.419344 L25.2332229,37.1159647 Z M36.3024152,30.5414414 L33.0962822,32.4759729 L35.1272906,35.8580629 L34.1197987,36.465968 L29.5208125,28.8076119 L34.2539253,25.9517241 L34.7529911,26.782782 L31.0273702,29.0307646 L32.6003751,31.6501749 L35.806508,29.7156434 L36.3024152,30.5414414 Z M42.7765658,28.4533608 L40.8449002,29.2653487 L42.2399987,32.6000351 L41.1499067,33.0582622 L37.7012421,24.8149627 L40.423648,23.6705821 C41.3499484,23.2812058 42.1509753,23.1930242 42.8267528,23.4060346 C43.5025302,23.619045 44.0093715,24.1294058 44.3472918,24.9371324 C44.5620449,25.450454 44.6107833,25.9558846 44.4935086,26.4534394 C44.3762338,26.9509942 44.1104402,27.3978009 43.6961197,27.7938728 L47.0915729,30.4807579 L47.119996,30.5486972 L45.9564781,31.0377893 L42.7765658,28.4533608 Z M40.4730318,28.3764764 L42.1392346,27.6760775 C42.6776938,27.4497327 43.0475826,27.1300369 43.248912,26.7169804 C43.4502415,26.3039239 43.4530041,25.863388 43.2571998,25.3953595 C43.0440258,24.8858124 42.7290378,24.5588734 42.3122263,24.4145327 C41.8954149,24.2701921 41.400053,24.316429 40.8261257,24.5532448 L39.165571,25.2512695 L40.4730318,28.3764764 Z M53.335287,25.319494 L49.578301,26.2276188 L50.319154,29.307215 L54.6834499,28.2522935 L54.9088644,29.1893024 L49.4013969,30.5205472 L47.3109281,21.8308338 L52.7588554,20.5139809 L52.9857058,21.456958 L48.6809501,22.4974877 L49.3528865,25.2906099 L53.1098724,24.3824851 L53.335287,25.319494 Z M61.9892846,24.812569 L58.1396935,25.1545061 L58.4186475,28.3100106 L62.890518,27.9128 L62.9753935,28.8729051 L57.3321737,29.3741599 L56.5450476,20.4702557 L62.1272596,19.9744199 L62.2126758,20.9406402 L57.8018131,21.3324318 L58.054818,24.194401 L61.904409,23.852464 L61.9892846,24.812569 Z" id="the-free" fill="#4A306D" transform="translate(34.013038, 38.020232) rotate(-22.000000) translate(-34.013038, -38.020232) "></path>
                                <path d="M10.6116123,116.098279 L9.30684138,118.656527 L16.3852823,122.283939 L15.8527796,123.328011 L8.77433871,119.700598 L7.47235574,122.25338 L6.61072734,121.81183 L9.74998392,115.656729 L10.6116123,116.098279 Z M23.4250901,112.586201 L22.7312274,113.545472 L19.3941587,111.120174 L16.7553234,114.768385 L20.0923921,117.193683 L19.4021246,118.147984 L12.1825524,112.900979 L12.87282,111.946678 L15.9768393,114.202602 L18.6156746,110.554391 L15.5116553,108.298467 L16.205518,107.339196 L23.4250901,112.586201 Z M26.7932674,104.377932 L24.0001304,107.055272 L26.1843185,109.344803 L29.4289609,106.234676 L30.0935298,106.931296 L25.9989946,110.856082 L19.8358594,104.395701 L23.8861293,100.513346 L24.554931,101.214404 L21.3545538,104.282101 L23.3355616,106.358652 L26.1286986,103.681312 L26.7932674,104.377932 Z M37.8624597,97.8034089 L34.6563267,99.7379405 L36.6873351,103.12003 L35.6798432,103.727936 L31.080857,96.0695795 L35.8139698,93.2136917 L36.3130356,94.0447496 L32.5874146,96.2927322 L34.1604196,98.9121425 L37.3665525,96.9776109 L37.8624597,97.8034089 Z M44.3366103,95.7153283 L42.4049447,96.5273162 L43.8000432,99.8620026 L42.7099512,100.32023 L39.2612866,92.0769302 L41.9836925,90.9325496 C42.9099929,90.5431734 43.7110198,90.4549918 44.3867972,90.6680022 C45.0625747,90.8810126 45.569416,91.3913734 45.9073363,92.1991 C46.1220893,92.7124216 46.1708278,93.2178522 46.053553,93.715407 C45.9362783,94.2129618 45.6704847,94.6597684 45.2561642,95.0558404 L48.6516174,97.7427255 L48.6800405,97.8106648 L47.5165226,98.2997569 L44.3366103,95.7153283 Z M42.0330763,95.638444 L43.6992791,94.938045 C44.2377382,94.7117003 44.607627,94.3920045 44.8089565,93.978948 C45.010286,93.5658915 45.0130486,93.1253556 44.8172443,92.6573271 C44.6040703,92.1477799 44.2890823,91.8208409 43.8722708,91.6765003 C43.4554594,91.5321597 42.9600974,91.5783965 42.3861702,91.8152123 L40.7256155,92.513237 L42.0330763,95.638444 Z M54.8953315,92.5814616 L51.1383455,93.4895864 L51.8791985,96.5691826 L56.2434944,95.5142611 L56.4689089,96.45127 L50.9614414,97.7825148 L48.8709726,89.0928014 L54.3188999,87.7759484 L54.5457502,88.7189256 L50.2409946,89.7594553 L50.912931,92.5525774 L54.6699169,91.6444526 L54.8953315,92.5814616 Z M63.549329,92.0745366 L59.699738,92.4164736 L59.978692,95.5719781 L64.4505625,95.1747676 L64.535438,96.1348726 L58.8922181,96.6361274 L58.105092,87.7322232 L63.6873041,87.2363874 L63.7727203,88.2026078 L59.3618576,88.5943994 L59.6148624,91.4563686 L63.4644535,91.1144315 L63.549329,92.0745366 Z" id="the-free-copy-3" fill="#4A306D" transform="translate(35.573083, 105.282199) rotate(-98.000000) translate(-35.573083, -105.282199) "></path>
                                <path d="M96.3007096,49.7925196 L94.9959386,52.3507676 L102.07438,55.9781804 L101.541877,57.0222517 L94.463436,53.3948389 L93.161453,55.9476205 L92.2998246,55.506071 L95.4390812,49.3509701 L96.3007096,49.7925196 Z M109.114187,46.2804419 L108.420325,47.2397128 L105.083256,44.8144145 L102.444421,48.462626 L105.781489,50.8879243 L105.091222,51.8422248 L97.8716497,46.59522 L98.5619172,45.6409194 L101.665937,47.8968432 L104.304772,44.2486317 L101.200753,41.9927079 L101.894615,41.033437 L109.114187,46.2804419 Z M112.482365,38.0721732 L109.689228,40.7495133 L111.873416,43.0390438 L115.118058,39.9289165 L115.782627,40.6255373 L111.688092,44.5503227 L105.524957,38.089942 L109.575227,34.2075866 L110.244028,34.9086444 L107.043651,37.9763416 L109.024659,40.0528926 L111.817796,37.3755524 L112.482365,38.0721732 Z M123.551557,31.4976498 L120.345424,33.4321814 L122.376432,36.8142713 L121.36894,37.4221765 L116.769954,29.7638204 L121.503067,26.9079326 L122.002133,27.7389905 L118.276512,29.9869731 L119.849517,32.6063834 L123.05565,30.6718518 L123.551557,31.4976498 Z M130.025708,29.4095692 L128.094042,30.2215571 L129.48914,33.5562435 L128.399048,34.0144706 L124.950384,25.7711711 L127.67279,24.6267905 C128.59909,24.2374143 129.400117,24.1492327 130.075895,24.3622431 C130.751672,24.5752535 131.258513,25.0856143 131.596434,25.8933409 C131.811187,26.4066625 131.859925,26.9120931 131.74265,27.4096479 C131.625376,27.9072027 131.359582,28.3540093 130.945261,28.7500813 L134.340715,31.4369664 L134.369138,31.5049057 L133.20562,31.9939978 L130.025708,29.4095692 Z M127.722174,29.3326849 L129.388376,28.6322859 C129.926836,28.4059412 130.296724,28.0862454 130.498054,27.6731889 C130.699383,27.2601324 130.702146,26.8195965 130.506342,26.351568 C130.293168,25.8420208 129.97818,25.5150818 129.561368,25.3707412 C129.144557,25.2264006 128.649195,25.2726374 128.075267,25.5094532 L126.414713,26.2074779 L127.722174,29.3326849 Z M140.584429,26.2757025 L136.827443,27.1838273 L137.568296,30.2634235 L141.932592,29.208502 L142.158006,30.1455109 L136.650539,31.4767557 L134.56007,22.7870423 L140.007997,21.4701893 L140.234848,22.4131665 L135.930092,23.4536962 L136.602028,26.2468183 L140.359014,25.3386935 L140.584429,26.2757025 Z M149.238426,25.7687775 L145.388835,26.1107145 L145.667789,29.266219 L150.13966,28.8690085 L150.224535,29.8291135 L144.581315,30.3303683 L143.794189,21.4264641 L149.376401,20.9306283 L149.461818,21.8968487 L145.050955,22.2886403 L145.30396,25.1506095 L149.153551,24.8086724 L149.238426,25.7687775 Z" id="the-free-copy-2" fill="#4A306D" transform="translate(121.262180, 38.976440) rotate(85.000000) translate(-121.262180, -38.976440) "></path>
                                <path d="M95.8116098,114.496161 L94.5068389,117.054409 L101.58528,120.681822 L101.052777,121.725893 L93.9743362,118.09848 L92.6723532,120.651262 L91.8107248,120.209712 L94.9499814,114.054611 L95.8116098,114.496161 Z M108.625088,110.984083 L107.931225,111.943354 L104.594156,109.518056 L101.955321,113.166267 L105.29239,115.591566 L104.602122,116.545866 L97.3825499,111.298861 L98.0728175,110.344561 L101.176837,112.600484 L103.815672,108.952273 L100.711653,106.696349 L101.405515,105.737078 L108.625088,110.984083 Z M111.993265,102.775814 L109.200128,105.453155 L111.384316,107.742685 L114.628958,104.632558 L115.293527,105.329179 L111.198992,109.253964 L105.035857,102.793583 L109.086127,98.9112279 L109.754929,99.6122857 L106.554551,102.679983 L108.535559,104.756534 L111.328696,102.079194 L111.993265,102.775814 Z M123.062457,96.2012911 L119.856324,98.1358226 L121.887333,101.517913 L120.879841,102.125818 L116.280854,94.4674616 L121.013967,91.6115738 L121.513033,92.4426317 L117.787412,94.6906144 L119.360417,97.3100246 L122.56655,95.3754931 L123.062457,96.2012911 Z M129.536608,94.1132105 L127.604942,94.9251984 L129.000041,98.2598848 L127.909949,98.7181119 L124.461284,90.4748124 L127.18369,89.3304318 C128.10999,88.9410555 128.911017,88.8528739 129.586795,89.0658843 C130.262572,89.2788947 130.769413,89.7892556 131.107334,90.5969822 C131.322087,91.1103038 131.370825,91.6157344 131.253551,92.1132892 C131.136276,92.6108439 130.870482,93.0576506 130.456162,93.4537226 L133.851615,96.1406076 L133.880038,96.2085469 L132.71652,96.6976391 L129.536608,94.1132105 Z M127.233074,94.0363261 L128.899277,93.3359272 C129.437736,93.1095825 129.807625,92.7898866 130.008954,92.3768302 C130.210284,91.9637737 130.213046,91.5232378 130.017242,91.0552093 C129.804068,90.5456621 129.48908,90.2187231 129.072268,90.0743825 C128.655457,89.9300418 128.160095,89.9762787 127.586168,90.2130945 L125.925613,90.9111192 L127.233074,94.0363261 Z M140.095329,90.9793437 L136.338343,91.8874685 L137.079196,94.9670648 L141.443492,93.9121432 L141.668906,94.8491522 L136.161439,96.1803969 L134.07097,87.4906836 L139.518897,86.1738306 L139.745748,87.1168078 L135.440992,88.1573375 L136.112928,90.9504596 L139.869914,90.0423348 L140.095329,90.9793437 Z M148.749327,90.4724187 L144.899735,90.8143558 L145.17869,93.9698603 L149.65056,93.5726498 L149.735436,94.5327548 L144.092216,95.0340096 L143.30509,86.1301054 L148.887302,85.6342696 L148.972718,86.60049 L144.561855,86.9922815 L144.81486,89.8542507 L148.664451,89.5123137 L148.749327,90.4724187 Z" id="the-free-copy-4" fill="#4A306D" transform="translate(120.773080, 103.680081) rotate(158.000000) translate(-120.773080, -103.680081) "></path>
                            </g>
                        </g>
                    </g>
                </g>
            </g>
        </g>
    </g>
</svg>