<?xml version="1.0" encoding="UTF-8"?>
<svg width="151px" height="151px" viewBox="0 0 151 151" version="1.1" xmlns="http://www.w3.org/2000/svg" xmlns:xlink="http://www.w3.org/1999/xlink">
    <!-- Generator: sketchtool 49.3 (51167) - http://www.bohemiancoding.com/sketch -->
    <title>0E7D4F44-2699-4DDA-A847-F82FE0632A5E</title>
    <desc>Created with sketchtool.</desc>
    <defs></defs>
    <g id="Page-1" stroke="none" stroke-width="1" fill="none" fill-rule="evenodd">
        <g id="Heleaf-drops-(2)(cart)-(v0.1)" transform="translate(-593.000000, -902.000000)">
            <g id="body" transform="translate(0.000000, 88.000000)">
                <g id="buy" transform="translate(112.000000, 460.000000)">
                    <g id="Group-20" transform="translate(0.000000, 339.000000)">
                        <g id="Group-16" transform="translate(456.000000, 3.000000)">
                            <g id="Group-8" transform="translate(30.000000, 0.000000)">
                                <g id="Group-7-Copy">
                                    <g id="Group-6-Copy">
                                        <ellipse id="Oval-11" stroke="#4A306D" stroke-width="9" cx="70.5" cy="87.5284091" rx="70.5" ry="70.4715909"></ellipse>
                                        <ellipse id="Oval-11" stroke="#4A306D" stroke-width="2" cx="70.5" cy="87.5284091" rx="53.4363057" ry="53.4147727"></ellipse>
                                        <g id="Group-5" transform="translate(127.078233, 69.759541) scale(-1, 1) rotate(52.000000) translate(-127.078233, -69.759541) translate(123.036832, 64.822041)" fill="#4A306D">
                                            <ellipse id="Oval-12-Copy" cx="1.34713376" cy="1.34659091" rx="1.34713376" ry="1.34659091"></ellipse>
                                            <ellipse id="Oval-12-Copy-2" cx="4.04140127" cy="4.9375" rx="1.34713376" ry="1.34659091"></ellipse>
                                            <ellipse id="Oval-12-Copy-3" cx="6.73566879" cy="8.52840909" rx="1.34713376" ry="1.34659091"></ellipse>
                                        </g>
                                        <g id="Group-5-Copy" transform="translate(26.650113, 128.693057) scale(-1, 1) rotate(72.000000) translate(-26.650113, -128.693057) translate(22.608712, 123.755557)" fill="#4A306D">
                                            <ellipse id="Oval-12-Copy" cx="1.34713376" cy="1.34659091" rx="1.34713376" ry="1.34659091"></ellipse>
                                            <ellipse id="Oval-12-Copy-2" cx="4.04140127" cy="4.9375" rx="1.34713376" ry="1.34659091"></ellipse>
                                            <ellipse id="Oval-12-Copy-3" cx="6.73566879" cy="8.52840909" rx="1.34713376" ry="1.34659091"></ellipse>
                                        </g>
                                        <path d="M52.7603832,11.5961655 L49.1123715,10.7498962 L47.7656673,12.8314485 L46.5815587,12.5567579 L51.9273935,4.62423518 L52.9320918,4.85730606 L54.2423831,14.3339234 L53.0642547,14.06062 L52.7603832,11.5961655 Z M49.6785176,9.88584713 L52.6387894,10.5725738 L52.1008137,6.1575417 L49.6785176,9.88584713 Z M57.481877,15.2785302 L61.3890129,16.9145952 L61.0165988,17.803252 L56.0165973,15.7095629 L59.4703234,7.46826213 L60.5631889,7.92588612 L57.481877,15.2785302 Z M64.3074328,19.0766178 L67.9441316,21.2480685 L67.4498487,22.0752158 L62.7959283,19.2963883 L67.3798512,11.6255191 L68.3970727,12.2328959 L64.3074328,19.0766178 Z M76.9855841,31.1775257 L76.1207318,30.3679297 L77.5445461,22.2673747 L72.8360855,27.2931428 L71.9712332,26.4835468 L78.0813211,19.9616944 L78.9461734,20.7712904 L77.5103389,28.9026315 L82.2397819,23.8544668 L83.095672,24.6556732 L76.9855841,31.1775257 Z M83.2529238,36.6275113 L81.0291936,33.6154612 L78.6526502,34.3237007 L77.9308492,33.3460189 L87.1500409,30.7857786 L87.762478,31.6153268 L82.6006826,39.6713241 L81.8825271,38.6985801 L83.2529238,36.6275113 Z M82.0211151,33.3261024 L83.8256175,35.770307 L86.2855322,32.0641784 L82.0211151,33.3261024 Z M92.6426373,42.9313064 L91.3086067,40.3876222 L84.2508437,44.0860707 L83.7063996,43.0479432 L90.7641626,39.3494946 L89.4329826,36.8112457 L90.2920939,36.3610493 L93.5017487,42.48111 L92.6426373,42.9313064 Z M96.3628085,52.010709 L90.6078885,53.9648191 C89.8082424,54.2320219 89.0700116,54.2029223 88.393174,53.8775194 C87.7163363,53.5521166 87.2021141,52.9738304 86.850492,52.1426434 L86.738159,51.850245 C86.4235308,50.9244009 86.4227121,50.1015737 86.735703,49.3817388 C87.0486939,48.6619038 87.6417827,48.1494229 88.5149872,47.8442805 L94.2815333,45.8862227 L94.6567157,46.9902572 L88.9250479,48.936472 C88.3127369,49.1443851 87.8943044,49.4744189 87.6697381,49.9265834 C87.4451717,50.3787479 87.4388617,50.916665 87.650808,51.5403508 C87.8653871,52.1717842 88.1981868,52.5977956 88.6492171,52.8183976 C89.1002475,53.0389997 89.6319102,53.045344 90.2442212,52.8374309 L95.9817021,50.8892423 L96.3628085,52.010709 Z M91.9777142,60.39597 L91.6434575,58.3239482 L88.073537,58.8993805 L87.8849067,57.7300817 L96.7097018,56.3076207 L97.1807887,59.2278386 C97.3410763,60.2214446 97.2381107,61.0222962 96.8718886,61.6304173 C96.5056665,62.2385383 95.8902123,62.6122838 95.0255073,62.7516648 C94.4759752,62.8402434 93.9732171,62.76899 93.5172179,62.5379026 C93.0612186,62.3068151 92.6895295,61.9430019 92.4021392,61.4464522 L88.9907068,64.1222383 L88.9179749,64.1339619 L88.716639,62.885902 L91.9777142,60.39597 Z M92.5950322,58.1705647 L92.8833531,59.9578349 C92.9765284,60.535419 93.2001468,60.9707557 93.5542151,61.2638581 C93.9082834,61.5569606 94.3358331,61.6631288 94.8368771,61.582366 C95.3823685,61.4944387 95.7743468,61.2644595 96.0128237,60.8924215 C96.2513006,60.5203835 96.3230386,60.0270785 96.2280398,59.4124918 L95.9406963,57.63128 L92.5950322,58.1705647 Z M90.7608134,71.2820454 L90.7534016,67.5386001 L88.4188146,66.7024744 L88.4164088,65.4873889 L97.3619408,68.8817633 L97.3639821,69.9127449 L88.4319736,73.348624 L88.42958,72.1396753 L90.7608134,71.2820454 Z M91.7241109,67.8926152 L91.7301254,70.930329 L95.9079546,69.4001326 L91.7241109,67.8926152 Z M88.2705567,76.7186403 L87.5781139,80.8960832 L86.6272111,80.7385909 L87.5133371,75.3926748 L96.3319006,76.8532406 L96.1382174,78.0217137 L88.2705567,76.7186403 Z" id="all-natural-copy" fill="#4A306D" transform="translate(71.972770, 42.760159) rotate(-57.000000) translate(-71.972770, -42.760159) "></path>
                                        <polygon id="Rectangle-25" fill="#4A306D" points="22.4522293 65.5340909 118.547771 65.5340909 119.44586 68.2272727 21.5541401 68.2272727"></polygon>
                                        <polygon id="Rectangle-25-Copy" fill="#4A306D" transform="translate(70.500000, 108.176136) scale(1, -1) translate(-70.500000, -108.176136) " points="22.4522293 106.829545 118.547771 106.829545 119.44586 109.522727 21.5541401 109.522727"></polygon>
                                    </g>
                                </g>
                                <path d="M33.5871318,95.1590909 L30.429787,95.1590909 L24.2834893,85.0806996 L24.2834893,95.1590909 L21.1261445,95.1590909 L21.1261445,79.8416193 L24.2834893,79.8416193 L30.4403115,89.9410511 L30.4403115,79.8416193 L33.5871318,79.8416193 L33.5871318,95.1590909 Z M48.9318272,87.8475231 C48.9318272,89.3554319 48.6652097,90.6774624 48.1319666,91.8136541 C47.5987234,92.9498459 46.8357061,93.8265239 45.8428916,94.4437145 C44.8500771,95.0609051 43.7116903,95.3694957 42.4276971,95.3694957 C41.1577365,95.3694957 40.0246119,95.0644118 39.0282892,94.4542347 C38.0319666,93.8440577 37.2601789,92.9726397 36.7129031,91.8399547 C36.1656272,90.7072697 35.8884853,89.4045262 35.8814689,87.931685 L35.8814689,87.1742276 C35.8814689,85.6663188 36.1533487,84.3390283 36.6971163,83.1923162 C37.240884,82.0456042 38.0091635,81.1654194 39.001978,80.5517356 C39.9947925,79.9380518 41.1296712,79.6312145 42.4066481,79.6312145 C43.683625,79.6312145 44.8185037,79.9380518 45.8113182,80.5517356 C46.8041327,81.1654194 47.5724122,82.0456042 48.1161798,83.1923162 C48.6599475,84.3390283 48.9318272,85.6628121 48.9318272,87.1637074 L48.9318272,87.8475231 Z M45.7323846,87.1531871 C45.7323846,85.5470889 45.4447182,84.3267531 44.869377,83.4921431 C44.2940357,82.6575331 43.4731343,82.2402344 42.4066481,82.2402344 C41.3471782,82.2402344 40.5297849,82.652273 39.9544437,83.4763627 C39.3791024,84.3004525 39.087928,85.5085148 39.0809116,87.1005859 L39.0809116,87.8475231 C39.0809116,89.4115401 39.3685779,90.6248625 39.9439192,91.4875266 C40.5192604,92.3501907 41.3471781,92.7815163 42.4276971,92.7815163 C43.4871669,92.7815163 44.3010521,92.365971 44.869377,91.5348677 C45.4377019,90.7037645 45.7253682,89.4921955 45.7323846,87.9001243 L45.7323846,87.1531871 Z M63.6871517,95.1590909 L60.5298069,95.1590909 L54.3835092,85.0806996 L54.3835092,95.1590909 L51.2261644,95.1590909 L51.2261644,79.8416193 L54.3835092,79.8416193 L60.5403314,89.9410511 L60.5403314,79.8416193 L63.6871517,79.8416193 L63.6871517,95.1590909 Z M72.1593601,89.8253285 L66.2340764,89.8253285 L66.2340764,87.3741122 L72.1593601,87.3741122 L72.1593601,89.8253285 Z M86.925209,93.2233665 C86.3568841,93.9036788 85.5535233,94.431439 84.5151025,94.8066628 C83.4766817,95.1818866 82.3260165,95.3694957 81.0630723,95.3694957 C79.7369808,95.3694957 78.5740371,95.080192 77.5742063,94.5015758 C76.5743755,93.9229596 75.8025878,93.0831021 75.2588202,91.981978 C74.7150525,90.8808539 74.4361565,89.5868771 74.4221238,88.1000089 L74.4221238,87.058505 C74.4221238,85.5295556 74.679971,84.2057718 75.1956733,83.0871138 C75.7113755,81.9684559 76.4550981,81.1128181 77.4268636,80.5201749 C78.398629,79.9275317 79.5370158,79.6312145 80.8420581,79.6312145 C82.6592945,79.6312145 84.0800854,80.0642934 85.1044735,80.9304643 C86.1288616,81.7966352 86.7357674,83.0572982 86.925209,84.7124911 L83.8520601,84.7124911 C83.711733,83.8357999 83.4012638,83.1940716 82.9206434,82.7872869 C82.440023,82.3805022 81.7787413,82.1771129 80.9367785,82.1771129 C79.8632759,82.1771129 79.0458826,82.5803848 78.484574,83.3869407 C77.9232655,84.1934966 77.6391073,85.3927921 77.632091,86.9848633 L77.632091,87.9632457 C77.632091,89.569344 77.9372979,90.7826664 78.5477209,91.6032493 C79.158144,92.4238322 80.052716,92.8341175 81.231464,92.8341175 C82.4172283,92.8341175 83.2626866,92.5816343 83.7678643,92.0766602 L83.7678643,89.4360795 L80.8946805,89.4360795 L80.8946805,87.1111062 L86.925209,87.1111062 L86.925209,93.2233665 Z M93.6082554,79.8416193 L97.5444118,90.9509943 L101.459519,79.8416193 L105.606165,79.8416193 L105.606165,95.1590909 L102.438296,95.1590909 L102.438296,90.9720348 L102.754031,83.7446289 L98.617909,95.1590909 L96.4498656,95.1590909 L92.3242685,83.7551491 L92.640003,90.9720348 L92.640003,95.1590909 L89.4826582,95.1590909 L89.4826582,79.8416193 L93.6082554,79.8416193 Z M120.950861,87.8475231 C120.950861,89.3554319 120.684243,90.6774624 120.151,91.8136541 C119.617757,92.9498459 118.85474,93.8265239 117.861925,94.4437145 C116.869111,95.0609051 115.730724,95.3694957 114.446731,95.3694957 C113.17677,95.3694957 112.043646,95.0644118 111.047323,94.4542347 C110.051,93.8440577 109.279213,92.9726397 108.731937,91.8399547 C108.184661,90.7072697 107.907519,89.4045262 107.900503,87.931685 L107.900503,87.1742276 C107.900503,85.6663188 108.172382,84.3390283 108.71615,83.1923162 C109.259918,82.0456042 110.028197,81.1654194 111.021012,80.5517356 C112.013826,79.9380518 113.148705,79.6312145 114.425682,79.6312145 C115.702659,79.6312145 116.837537,79.9380518 117.830352,80.5517356 C118.823166,81.1654194 119.591446,82.0456042 120.135213,83.1923162 C120.678981,84.3390283 120.950861,85.6628121 120.950861,87.1637074 L120.950861,87.8475231 Z M117.751418,87.1531871 C117.751418,85.5470889 117.463752,84.3267531 116.888411,83.4921431 C116.313069,82.6575331 115.492168,82.2402344 114.425682,82.2402344 C113.366212,82.2402344 112.548819,82.652273 111.973477,83.4763627 C111.398136,84.3004525 111.106962,85.5085148 111.099945,87.1005859 L111.099945,87.8475231 C111.099945,89.4115401 111.387612,90.6248625 111.962953,91.4875266 C112.538294,92.3501907 113.366212,92.7815163 114.446731,92.7815163 C115.506201,92.7815163 116.320086,92.365971 116.888411,91.5348677 C117.456736,90.7037645 117.744402,89.4921955 117.751418,87.9001243 L117.751418,87.1531871 Z" id="non-gmo" fill="#4A306D"></path>
                                <path d="M124.675752,154.226641 L124.433529,155.17459 L118.147011,153.569532 L118.359764,155.648866 L117.503207,155.430172 L117.178801,152.469979 L117.216566,152.32218 L124.675752,154.226641 Z M122.404386,145.449748 C123.536083,145.588342 124.35333,145.884504 124.856155,146.338245 C125.358979,146.791985 125.560047,147.429572 125.459366,148.251027 C125.359965,149.062039 125.017383,149.629515 124.431612,149.953473 C123.84584,150.27743 123.017604,150.380909 121.94688,150.263914 L120.656753,150.105918 C119.538985,149.96903 118.732183,149.674146 118.236323,149.221259 C117.740463,148.768372 117.54309,148.12947 117.644198,147.304535 C117.744453,146.486561 118.080283,145.916492 118.6517,145.59431 C119.223117,145.272127 120.056149,145.172768 121.150821,145.296229 L122.404386,145.449748 Z M120.964535,146.253814 C120.146231,146.1536 119.535845,146.195435 119.133358,146.379321 C118.730872,146.563207 118.499129,146.904018 118.438123,147.401764 C118.377543,147.896029 118.519681,148.279094 118.86454,148.550972 C119.2094,148.822849 119.767912,149.009601 120.540094,149.111233 L122.086158,149.300573 C122.907943,149.401213 123.529309,149.356306 123.950273,149.165851 C124.371237,148.975395 124.611365,148.638261 124.670665,148.154438 C124.729111,147.677577 124.587968,147.300816 124.247231,147.024143 C123.906494,146.747471 123.339809,146.555302 122.547161,146.447631 L120.964535,146.253814 Z M122.093591,139.020597 C123.233738,139.015634 124.08179,139.206568 124.637773,139.593403 C125.193755,139.980237 125.473545,140.58744 125.47715,141.415028 C125.480709,142.232097 125.212343,142.838178 124.672046,143.233291 C124.131748,143.628404 123.323142,143.835315 122.246202,143.854029 L120.946441,143.859686 C119.820326,143.864588 118.982799,143.673608 118.433832,143.286743 C117.884866,142.899878 117.608577,142.290907 117.604957,141.459811 C117.601368,140.635729 117.862709,140.027925 118.388989,139.63638 C118.91527,139.244835 119.729154,139.041408 120.830665,139.026093 L122.093591,139.020597 Z M120.766496,139.999504 C119.942081,140.003092 119.341825,140.121428 118.965707,140.354513 C118.58959,140.587599 118.402626,140.954867 118.40481,141.45633 C118.406979,141.954286 118.596243,142.31641 118.972608,142.542714 C119.348972,142.769018 119.926565,142.88398 120.705404,142.887604 L122.263012,142.880825 C123.090935,142.877221 123.701696,142.754457 124.095316,142.512528 C124.488936,142.270599 124.684682,141.905922 124.682559,141.418487 C124.680466,140.938065 124.492983,140.582069 124.120104,140.35049 C123.747225,140.118911 123.160842,139.999604 122.36094,139.992565 L120.766496,139.999504 Z M118.718989,137.909195 C118.263342,137.969098 117.8686,137.873328 117.534754,137.621881 C117.200907,137.370435 117.004023,137.016985 116.944096,136.561521 C116.883254,136.099104 116.982655,135.704934 117.242303,135.378999 C117.501951,135.053064 117.868289,134.859005 118.341327,134.796815 L118.711756,134.748116 C119.170882,134.687756 119.564754,134.78364 119.893383,135.035773 C120.222013,135.287905 120.415831,135.638221 120.474843,136.086731 C120.534312,136.538718 120.438275,136.931562 120.186727,137.265274 C119.935179,137.598987 119.567674,137.797621 119.084201,137.861182 L118.718989,137.909195 Z M119.026029,137.136682 C119.29733,137.101014 119.510739,136.995146 119.666261,136.819073 C119.821783,136.643001 119.882617,136.426325 119.848765,136.16904 C119.816286,135.922186 119.704882,135.734344 119.514549,135.605508 C119.324217,135.476673 119.08123,135.43169 118.78558,135.470558 L118.404717,135.52063 C118.133415,135.556297 117.918908,135.660541 117.76119,135.833366 C117.603471,136.00619 117.541538,136.221242 117.57539,136.478527 C117.609242,136.735811 117.724696,136.927542 117.921757,137.053725 C118.118817,137.179907 118.359951,137.224249 118.645165,137.186753 L119.026029,137.136682 Z M122.505462,133.649854 C122.049815,133.709757 121.655943,133.613872 121.323835,133.362197 C120.991727,133.110522 120.795713,132.756958 120.735786,132.301494 C120.675859,131.84603 120.772766,131.453072 121.02651,131.122608 C121.280255,130.792144 121.648858,130.595134 122.132331,130.531573 L122.50276,130.482874 C122.958408,130.422971 123.352279,130.518855 123.684387,130.77053 C124.016495,131.022205 124.212281,131.374031 124.27175,131.826018 C124.33122,132.278005 124.235182,132.670849 123.983635,133.004561 C123.732087,133.338274 123.364582,133.536907 122.881109,133.600468 L122.505462,133.649854 Z M122.817719,132.876654 C123.092499,132.84053 123.307646,132.734433 123.463169,132.55836 C123.618691,132.382287 123.679525,132.165612 123.645673,131.908327 C123.612736,131.657996 123.500348,131.469399 123.308505,131.342531 C123.116662,131.215662 122.87292,131.171663 122.577271,131.210531 L122.19119,131.261288 C121.91641,131.297413 121.702017,131.402526 121.548006,131.576632 C121.393994,131.750738 121.333686,131.964691 121.367081,132.218499 C121.39956,132.465354 121.512063,132.65482 121.704592,132.786903 C121.897121,132.918987 122.139467,132.965822 122.431638,132.927411 L122.817719,132.876654 Z M124.045968,135.394416 L123.773674,135.987283 L117.348497,133.059833 L117.620791,132.466966 L124.045968,135.394416 Z M116.264552,120.84296 C116.967523,120.579519 117.625305,120.467834 118.237919,120.507902 C118.850533,120.54797 119.376079,120.733014 119.814574,121.063041 C120.253069,121.393068 120.580686,121.84703 120.797435,122.424941 C121.009259,122.989718 121.058279,123.542469 120.944498,124.083208 C120.830717,124.623948 120.562045,125.111311 120.138474,125.545312 C119.714903,125.979313 119.166011,126.326388 118.491782,126.586549 L117.974411,126.780436 C117.28458,127.038953 116.630288,127.147458 116.011515,127.105953 C115.392742,127.064448 114.860729,126.877145 114.41546,126.54404 C113.97019,126.210934 113.641649,125.762 113.429825,125.197223 C113.214307,124.622595 113.163132,124.064098 113.276297,123.521717 C113.389463,122.979335 113.66532,122.491152 114.103878,122.057153 C114.542436,121.623153 115.11155,121.275053 115.811236,121.012842 L116.264552,120.84296 Z M116.154213,121.957279 C115.303421,122.276117 114.714594,122.691526 114.387713,123.203517 C114.060832,123.715509 114.01254,124.278512 114.242837,124.892543 C114.466976,125.490156 114.870867,125.875275 115.454522,126.047911 C116.038177,126.220548 116.735886,126.160375 117.547669,125.867391 L118.074895,125.66981 C118.899407,125.36082 119.482384,124.944796 119.823842,124.421724 C120.165301,123.898651 120.222112,123.333392 119.994279,122.725928 C119.765214,122.115181 119.365326,121.725753 118.794604,121.557632 C118.223883,121.389511 117.521144,121.456251 116.686367,121.757852 L116.154213,121.957279 Z M114.040177,116.829454 L114.922501,118.397381 L117.623908,116.878436 L118.121827,117.76326 L111.443987,121.518072 L110.200478,119.308304 C109.777373,118.556429 109.623105,117.881737 109.737668,117.284209 C109.852231,116.68668 110.236674,116.203964 110.891008,115.836045 C111.306846,115.602228 111.732377,115.510821 112.167614,115.561823 C112.60285,115.612825 113.009559,115.795536 113.387753,116.109963 L115.339842,112.948304 L115.394879,112.917358 L115.926337,113.861782 L114.040177,116.829454 Z M114.202432,118.802261 L113.441363,117.44981 C113.195412,117.012744 112.886641,116.728695 112.515041,116.597653 C112.143442,116.466611 111.768074,116.507683 111.388927,116.720869 C110.976147,116.952967 110.728913,117.253925 110.647218,117.623751 C110.565523,117.993577 110.653861,118.41163 110.912234,118.877922 L111.670723,120.225789 L114.202432,118.802261 Z M109.726501,107.757878 C110.179634,107.739173 110.620255,107.858902 111.048378,108.117068 C111.4765,108.375235 111.877568,108.749844 112.251593,109.240906 C112.629868,109.737548 112.849103,110.267069 112.909303,110.829485 C112.969504,111.3919 112.864903,111.941997 112.595499,112.479791 C112.326095,113.017586 111.910212,113.504882 111.347839,113.941692 L110.816108,114.346367 C109.897786,115.045257 109.022926,115.372803 108.1915,115.329015 C107.360074,115.285227 106.648977,114.875511 106.058187,114.099856 C105.573654,113.463707 105.346284,112.827989 105.37607,112.192682 C105.405856,111.557375 105.686468,110.969185 106.217917,110.428094 L106.829955,111.231646 C106.138041,111.996232 106.100231,112.783081 106.716522,113.592217 C107.126675,114.130712 107.626577,114.394843 108.216243,114.38462 C108.80591,114.374396 109.460471,114.097713 110.179948,113.554561 L110.678183,113.175378 C111.36204,112.654928 111.786622,112.084984 111.951941,111.465531 C112.117261,110.846077 111.996971,110.269902 111.591069,109.736988 C111.361553,109.435654 111.127236,109.197482 110.888109,109.022465 C110.648982,108.847448 110.393556,108.746544 110.121822,108.719752 L108.752721,109.76171 L109.826975,111.172111 L109.173826,111.669192 L107.490721,109.459423 L109.726501,107.757878 Z M104.036177,104.172146 L106.342867,106.403526 L108.251527,105.468296 L109.000256,106.19258 L101.569571,109.662319 L100.934286,109.047775 L104.156207,101.506683 L104.901154,102.227309 L104.036177,104.172146 Z M105.545346,106.788592 L103.673524,104.977882 L102.119224,108.459202 L105.545346,106.788592 Z M97.626588,97.3406649 L98.4509365,97.9336529 L98.1330432,104.976174 L101.581752,100.185779 L102.406101,100.778767 L97.9307707,106.99518 L97.1064222,106.402192 L97.4311415,99.3321783 L93.9670639,104.143921 L93.1512579,103.557078 L97.626588,97.3406649 Z M94.1431079,96.0385185 L95.045922,96.4919153 L91.6062771,103.335497 L90.7034629,102.8821 L94.1431079,96.0385185 Z M85.5848966,95.1056074 C85.9848309,94.3947293 86.5019294,93.9333093 87.1362075,93.7213337 C87.7704856,93.509358 88.4727906,93.5643106 89.2431435,93.8861931 C90.078232,94.2351246 90.6222757,94.8140156 90.8752909,95.6228837 C91.1283061,96.4317517 91.0451011,97.3376705 90.6256734,98.3406671 L90.3415464,99.020113 C90.0668889,99.6769139 89.7080519,100.205412 89.2650247,100.605622 C88.8219975,101.005832 88.3294346,101.249459 87.7873214,101.33651 C87.2452081,101.423561 86.6909418,101.348749 86.1245058,101.112071 C85.3735735,100.798303 84.8591469,100.337258 84.5812107,99.7289213 C84.3032744,99.1205849 84.2820013,98.4304123 84.5173908,97.6583827 L85.4544331,98.0499143 C85.2999318,98.6466978 85.3050498,99.1277304 85.4697873,99.4930267 C85.6345247,99.8583229 85.9596469,100.1424 86.4451635,100.345267 C87.0407305,100.594118 87.5996307,100.569197 88.1218809,100.270503 C88.6441311,99.9718094 89.0750503,99.4164191 89.4146515,98.6043155 L89.700808,97.9200164 C90.0214672,97.1532093 90.1162845,96.4763867 89.9852625,95.8895282 C89.8542405,95.3026697 89.5006617,94.8888788 88.9245154,94.6481432 C88.406631,94.4317516 87.9602773,94.3830253 87.5854409,94.5019628 C87.2106045,94.6209003 86.8561074,94.9526224 86.5219389,95.497139 L85.5848966,95.1056074 Z" id="100%-organic-copy-2" fill="#4A306D" transform="translate(104.920021, 124.621974) rotate(77.000000) translate(-104.920021, -124.621974) "></path>
                                <g id="budding-leaves" transform="translate(0.000000, 43.988636)" fill="#4A306D" fill-rule="nonzero">
                                    <path d="M37.6706293,27.7674322 C30.9912543,35.8638209 24.0585336,31.2656543 21.8016661,29.3838925 C23.5471939,27.4604573 24.3409326,26.4121645 27.3712015,23.892388 C30.5037383,25.1842651 36.0994218,22.7325748 36.0994218,22.7325748 C32.3323589,23.728042 29.4554919,23.163983 28.4328125,22.8910513 C28.6495508,22.7161402 32.3660608,19.9991485 33.4910082,18.4278832 C36.6020455,18.5253169 39.1715276,15.8259337 39.1715276,15.8259337 C39.0843674,15.7543258 37.5131599,16.9716602 34.5375114,17.1178108 C37.6189143,12.5466439 37.4777148,8.34173387 37.4777148,8.34173387 C37.4777148,8.34173387 36.3399839,12.1792132 33.4456849,16.3894058 C32.8529957,13.4018301 33.6083839,11.3686352 33.5212237,11.299962 C33.5212237,11.299962 31.5084047,14.6555554 32.4352079,17.7405647 C30.8523791,19.5671532 28.3578547,21.1448749 27.4403486,21.8509758 C27.3712015,21.660804 26.4112774,18.4748392 27.3438913,13.7651522 C27.3438913,13.7651522 24.8075301,19.6857172 26.3932643,22.7572267 C24.4490112,24.2656883 23.9318609,24.6366407 20.6854347,28.3021436 C13.3349263,22.7449007 19.6476475,12.8049019 25.1532655,10.4858623 C30.8140286,8.10108435 33.1754884,8.58003558 38.3626811,0 C44.0432005,8.50255818 43.114073,21.1660051 37.6706293,27.7674322 Z M6.29470812,26.9040287 C9.63759151,28.4482942 11.9572144,30.5448797 13.5505025,32.5510749 C13.5685156,32.4900321 13.5940826,32.44425 13.6120957,32.374403 C16.6406214,21.3726115 0,22.9027903 0,22.9027903 C0,22.9027903 2.29870445,26.4755551 3.58054015,30.3723164 C5.06226319,34.88831 11.1193146,38.6424424 13.2942516,33.2806538 C11.7242062,31.1441557 9.47779785,28.8063337 6.29470812,26.9040287 Z M21.8022471,29.378023 C21.7784234,29.3598276 20.6523139,28.332665 20.6680027,28.3144696 C17.8155406,31.4875215 16.7022145,34.1986437 16.4314369,37.6510838 C15.9997035,36.4630969 15.1373988,34.5631396 13.5475971,32.5516619 C13.4738015,32.8157894 13.3848981,33.0529172 13.2919273,33.2806538 C14.9828348,35.5785632 15.6376982,38.7152242 16.0223652,39.7423867 C16.0223652,42.6113985 16.3320743,44.0459044 16.5819335,46.4377257 C16.5819335,46.4377257 18.110142,47.3498461 18.5360647,45.647691 C17.6784086,44.2096634 16.8317927,34.2954904 21.8022471,29.378023 Z" id="Shape"></path>
                                </g>
                                <g id="two-leaves" transform="translate(35.025478, 98.750000)" fill="#4A306D" fill-rule="nonzero">
                                    <path d="M76.3293954,3.00939358 C75.7582393,2.7773309 74.8461378,2.29496163 73.7591926,2.0045184 C72.6722474,1.69729077 71.20356,1.18646098 69.705732,1.05802378 C68.1926052,0.899666544 66.4820507,0.852962106 64.6126798,0.943451954 C62.7877484,1.09232235 60.9351333,1.48055299 58.9484714,1.99503156 C56.963995,2.50805062 55.1485343,3.36186613 53.2092259,4.29595489 C51.3165425,5.26215295 49.5914177,6.46771125 47.8641073,7.78054381 C46.2315039,9.13643203 44.6826799,10.6375419 43.2664456,12.2335201 C41.9456469,13.8732837 40.6328619,15.5604815 39.6216823,17.3607916 C38.5791766,19.1486959 37.6801884,20.9898724 37.029624,22.8726451 C35.6381593,26.600243 35.083759,30.435845 35.0254777,33.8518368 C35.0305773,35.5850093 35.1325695,37.1933934 35.3467531,38.671151 C35.5339816,40.1401515 35.9011534,41.4960397 36.184546,42.5921345 C36.2989229,43.1066131 36.4599248,43.5984692 36.6187412,44.0334042 C36.8977627,43.4466797 37.2008251,42.8278459 37.5388564,42.1506316 C39.2180847,38.8141833 41.665897,34.4692111 44.5282346,30.4000869 C45.9539395,28.3626058 47.5180624,26.4251014 49.0428454,24.673685 C49.8507692,23.8322753 50.6317379,23.022975 51.3689956,22.2552708 C52.1616205,21.5422984 52.909806,20.8665435 53.5953391,20.2447907 C54.3391535,19.6850672 55.016673,19.1756969 55.6198838,18.7217882 C56.1983252,18.2408784 56.8037216,17.9613815 57.2575868,17.6723978 C58.1828016,17.1236207 58.7109753,16.810555 58.7109753,16.810555 C58.7109753,16.810555 58.2075711,17.1666763 57.3297098,17.7825911 C56.9027997,18.1095222 56.329458,18.4269664 55.791085,18.9487425 C55.2330421,19.4420582 54.6043332,19.9974031 53.9166145,20.6031013 C53.2864485,21.2715586 52.6052865,21.9889095 51.8847846,22.7507757 C51.2218355,23.560076 50.5210035,24.4138915 49.7983161,25.2983568 C48.434535,27.1388036 47.0634687,29.1463647 45.8293633,31.2495239 C43.3443968,35.4368686 41.2958111,39.8657629 39.9174596,43.2365098 C39.5298894,44.1859234 39.2035144,45.0346306 38.9230359,45.7840909 C39.5131335,45.6264634 40.262776,45.4593491 41.0714283,45.1601488 C42.0971782,44.8032977 43.4216194,44.4355003 44.7052638,43.9108051 C46.0195059,43.4072729 47.4204413,42.812521 48.8337615,42.1353067 C50.2696656,41.4683089 51.6684155,40.6845501 53.1014056,39.8599249 C54.5329386,39.0389484 55.8887061,38.0997514 57.2357313,37.1335533 C58.5441453,36.1294079 59.8430885,35.1150459 61.0218267,33.9919501 C62.186723,32.8374748 63.3632756,31.7545156 64.3802834,30.5029826 C66.4718515,28.1028124 68.2538005,25.5355278 69.705732,22.8259406 C70.4612027,21.5495959 71.0891831,20.063811 71.7047787,18.7210584 C72.3276595,17.3885224 72.8565618,15.910035 73.3832786,14.5541468 C73.9143664,13.2230703 74.4053859,11.8744797 74.8388526,10.5609174 C75.3102022,9.2079482 75.7218135,8.02866114 76.0634873,7.05954405 C76.4576142,6.09553526 76.7038524,5.08774106 76.9260497,4.49444875 C77.1307626,3.82453197 77.2356688,3.4705999 77.2356688,3.4705999 C77.2356688,3.4705999 76.918036,3.27794409 76.3293954,3.00939358 Z" id="Shape"></path>
                                    <path d="M29.7012123,32.6895045 C27.6501126,31.2639165 25.7018618,29.6999926 23.9380043,28.1746572 C23.0931746,27.3723089 22.2777302,26.5896188 21.5034254,25.8527981 C20.7842182,25.0606429 20.1083544,24.3129009 19.4773033,23.6277741 C18.9153079,22.8873129 18.4040023,22.2043703 17.9448557,21.6044293 C17.4607315,21.0256027 17.1830397,20.4212932 16.8899205,19.967697 C16.336006,19.0452149 16.0215824,18.5151699 16.0215824,18.5151699 C16.0215824,18.5151699 16.3800841,19.0182758 17.0030542,19.8956168 C17.327028,20.3215457 17.648798,20.8938196 18.1770002,21.4318735 C18.6736131,21.9917699 19.2319354,22.6201062 19.8424167,23.3074172 C20.5138727,23.9350254 21.2374877,24.617968 22.0044462,25.3351305 C22.8176866,25.9976867 23.6801476,26.6981033 24.5690554,27.4203624 C26.4195998,28.7782386 28.4427833,30.1535888 30.5585308,31.3869627 C31.4342152,31.9053583 32.3216537,32.3611388 33.2061537,32.8292966 C33.4985382,28.1404372 34.4697251,23.505456 35.9235669,19.2840264 C35.0904913,18.2166556 34.2456616,17.1660307 33.3163489,16.2042321 C32.1548917,15.0378419 31.0691018,13.8619867 29.8047958,12.8470379 C27.3871135,10.7567094 24.8056077,8.97654464 22.0786443,7.52328946 C20.7937684,6.76826661 19.2958486,6.14065841 17.944121,5.52615572 C16.6056169,4.90364411 15.1187166,4.37287105 13.753031,3.84937882 C12.4115883,3.32079002 11.0554529,2.83151773 9.73164147,2.3983079 C8.37036366,1.92359729 7.18613277,1.51222996 6.20686493,1.17075868 C5.23641269,0.77904962 4.21967848,0.530773059 3.6246245,0.308707513 C2.95316853,0.107028312 2.59540151,0 2.59540151,0 C2.59540151,0 2.39631554,0.321084937 2.12376613,0.908648529 C1.89235625,1.47801003 1.40602818,2.39102706 1.11217436,3.47732802 C0.804362486,4.55998857 0.288649036,6.02853351 0.163026529,7.5262018 C0.000672294455,9.03988793 -0.0456096818,10.7516128 0.0476889053,12.6191477 C0.193146545,14.4415413 0.583237488,16.290146 1.10262411,18.2785427 C1.62274537,20.2603867 2.48006388,22.0769557 3.41892683,24.0165708 C4.39305224,25.9030358 5.60519923,27.6271382 6.93121459,29.3563371 C8.29543093,30.9908851 9.80657419,32.5380631 11.4124853,33.9556422 C13.0602706,35.2712895 14.7624188,36.5840246 16.5777008,37.5982452 C18.3738822,38.6401331 20.2280998,39.5393165 22.1227223,40.1873111 C25.8737663,41.5801353 29.7350055,42.133479 33.1767683,42.1931818 C33.3236952,42.1931818 33.4493177,42.1778921 33.5888983,42.1735236 C33.2208464,39.7839527 33.0871429,37.3448721 33.1326902,34.8955983 C31.9903335,34.1842605 30.8428344,33.4867562 29.7012123,32.6895045 Z" id="Shape"></path>
                                </g>
                            </g>
                        </g>
                    </g>
                </g>
            </g>
        </g>
    </g>
</svg>