<svg xmlns="http://www.w3.org/2000/svg" width="167" height="167" viewBox="0 0 167 167">
    <g fill="none" fill-rule="evenodd">
        <g transform="translate(5 -14)">
            <circle cx="78.5" cy="97.5" r="78.5" stroke="#4A306D" stroke-width="9"/>
            <circle cx="78.5" cy="97.5" r="59.5" stroke="#4A306D" stroke-width="2"/>
            <g fill="#4A306D" transform="scale(-1 1) rotate(52 -142.522 -108.067)">
                <circle cx="1.5" cy="1.5" r="1.5"/>
                <circle cx="4.5" cy="5.5" r="1.5"/>
                <circle cx="7.5" cy="9.5" r="1.5"/>
            </g>
            <g fill="#4A306D" transform="scale(-1 1) rotate(72 -107.457 50.909)">
                <circle cx="1.5" cy="1.5" r="1.5"/>
                <circle cx="4.5" cy="5.5" r="1.5"/>
                <circle cx="7.5" cy="9.5" r="1.5"/>
            </g>
            <path fill="#4A306D" d="M39.375 46.666l-3.003 2.893 1.128 2.52-.975.94-4.169-9.805.827-.797 9.648 4.526-.97.934-2.486-1.21zm-3.467 1.84l2.437-2.347-4.451-2.177 2.014 4.524zm9.77-4.015l3.898-2.656.604.887-4.988 3.399-5.604-8.225 1.09-.743 5 7.338zm7.688-4.07l4.234-2.078.473.963-5.419 2.66-4.386-8.934 1.184-.582 3.914 7.971zm18.993-4.498l-1.28.317-6.705-6.244 1.84 7.446-1.28.316-2.388-9.662 1.28-.317 6.726 6.274-1.848-7.479 1.268-.313 2.387 9.662zm8.892-2.546l-4.162.25-.78 2.648-1.35.081 3.198-10.162 1.147-.069 4.395 9.708-1.344.08-1.104-2.536zm-3.83-.852l3.377-.203-1.97-4.545-1.408 4.748zm15.414-4.092l-3.186-.297-.824 8.834-1.3-.121.824-8.835-3.178-.297.1-1.075 7.664.716-.1 1.075zm10.738 2.034l-1.664 6.56c-.236.909-.71 1.58-1.425 2.015-.715.435-1.567.564-2.556.388l-.342-.072c-1.055-.268-1.825-.766-2.307-1.495-.483-.73-.602-1.594-.358-2.595l1.668-6.573 1.26.32-1.659 6.533c-.177.698-.122 1.289.164 1.773.286.484.785.816 1.496.997.72.182 1.32.13 1.8-.157.48-.288.808-.78.985-1.478l1.66-6.54 1.278.324zm5.174 9.183l-2.138-.945-1.627 3.682-1.207-.533 4.023-9.104 3.013 1.332c1.026.453 1.712 1.035 2.058 1.746.346.711.322 1.513-.073 2.405-.25.567-.622.993-1.114 1.278-.492.286-1.058.412-1.696.38l.431 4.809-.033.075-1.288-.57-.349-4.555zm-1.704-1.927l1.844.815c.596.263 1.139.319 1.627.166.489-.153.847-.488 1.076-1.005.248-.562.271-1.068.068-1.516-.203-.449-.62-.815-1.252-1.1l-1.838-.812-1.525 3.452zm11.136 9.667l-3.501-2.264-2.197 1.673-1.137-.735 8.596-6.294.965.623-2.207 10.426-1.131-.731.612-2.698zm-2.582-2.955l2.842 1.837 1.104-4.83-3.946 2.993zm6.151 8.58l3.483 3.18-.724.793-4.457-4.071 6.713-7.35.974.89-5.989 6.557zM25 73h107l1 3H24zM25 122h107l1-3H24z"/>
        </g>
        <path fill="#4A306D" d="M42.398 92h-3.515l-6.844-11.227V92h-3.516V74.937h3.516l6.856 11.25v-11.25h3.503V92zm17.086-8.145c0 1.68-.296 3.153-.89 4.418-.594 1.266-1.444 2.243-2.55 2.93-1.105.688-2.372 1.031-3.802 1.031-1.414 0-2.676-.34-3.785-1.02-1.11-.679-1.969-1.65-2.578-2.911-.61-1.262-.918-2.713-.926-4.354v-.844c0-1.68.303-3.158.908-4.435.606-1.277 1.461-2.258 2.567-2.941 1.105-.684 2.369-1.026 3.79-1.026 1.423 0 2.686.342 3.792 1.026 1.105.683 1.96 1.664 2.566 2.94.606 1.278.908 2.753.908 4.425v.761zm-3.562-.773c0-1.789-.32-3.148-.961-4.078-.64-.93-1.555-1.395-2.742-1.395-1.18 0-2.09.46-2.73 1.377-.641.918-.966 2.264-.973 4.037v.832c0 1.743.32 3.094.96 4.055.641.961 1.563 1.442 2.766 1.442 1.18 0 2.086-.463 2.719-1.39.633-.925.953-2.274.96-4.048v-.832zM75.914 92h-3.516l-6.843-11.227V92h-3.516V74.937h3.516l6.855 11.25v-11.25h3.504V92zm9.434-5.941H78.75v-2.73h6.598v2.73zm16.441 3.785c-.633.758-1.527 1.345-2.684 1.763-1.156.418-2.437.627-3.843.627-1.477 0-2.772-.322-3.885-.966-1.113-.645-1.973-1.58-2.578-2.807-.606-1.227-.916-2.668-.932-4.324v-1.16c0-1.704.287-3.178.862-4.424.574-1.246 1.402-2.2 2.484-2.86 1.082-.66 2.35-.99 3.803-.99 2.023 0 3.605.483 4.746 1.447 1.14.965 1.816 2.37 2.027 4.213h-3.422c-.156-.976-.502-1.691-1.037-2.144-.535-.453-1.271-.68-2.209-.68-1.195 0-2.105.45-2.73 1.348-.625.898-.942 2.234-.95 4.008v1.09c0 1.788.34 3.14 1.02 4.054.68.914 1.676 1.371 2.988 1.371 1.32 0 2.262-.281 2.824-.844v-2.941h-3.199v-2.59h6.715v6.809zm7.441-14.906l4.383 12.374 4.36-12.374h4.617V92h-3.528v-4.664l.352-8.05L114.81 92h-2.414L107.8 79.297l.351 8.039V92h-3.515V74.937h4.593zm30.446 8.917c0 1.68-.297 3.153-.89 4.418-.595 1.266-1.444 2.243-2.55 2.93-1.105.688-2.373 1.031-3.802 1.031-1.414 0-2.676-.34-3.786-1.02-1.109-.679-1.968-1.65-2.578-2.911-.61-1.262-.918-2.713-.925-4.354v-.844c0-1.68.302-3.158.908-4.435.605-1.277 1.46-2.258 2.566-2.941 1.106-.684 2.37-1.026 3.791-1.026 1.422 0 2.686.342 3.791 1.026 1.106.683 1.961 1.664 2.567 2.94.605 1.278.908 2.753.908 4.425v.761zm-3.563-.773c0-1.789-.32-3.148-.96-4.078-.641-.93-1.555-1.395-2.743-1.395-1.18 0-2.09.46-2.73 1.377-.64.918-.965 2.264-.973 4.037v.832c0 1.743.32 3.094.961 4.055.64.961 1.562 1.442 2.766 1.442 1.18 0 2.086-.463 2.718-1.39.633-.925.953-2.274.961-4.048v-.832zM94.642 153.671l-1.09-.025.168-7.223-2.204.752.023-.984 3.132-1.093.17.003-.199 8.57zm8.957-4.663c.133 1.262.017 2.223-.35 2.882-.366.66-1.008 1.038-1.925 1.134-.905.096-1.607-.134-2.105-.688-.498-.555-.818-1.427-.96-2.618l-.151-1.44c-.131-1.247-.014-2.196.354-2.847.367-.652 1.011-1.026 1.932-1.123.913-.096 1.616.125 2.108.665.493.539.81 1.418.95 2.636l.147 1.399zm-1.233-1.36c-.096-.914-.295-1.565-.595-1.956-.3-.39-.728-.557-1.284-.498-.551.058-.932.308-1.14.75-.209.443-.272 1.095-.189 1.959l.182 1.725c.097.916.301 1.58.613 1.988.312.41.738.585 1.278.528.533-.056.906-.303 1.121-.742.215-.44.282-1.102.2-1.99l-.186-1.765zm8.134-.588c.29 1.235.296 2.203.015 2.903-.28.7-.87 1.156-1.767 1.368-.886.208-1.61.069-2.175-.418-.564-.487-.991-1.313-1.281-2.477l-.332-1.408c-.287-1.22-.29-2.177-.008-2.87.283-.692.875-1.145 1.776-1.357.893-.21 1.618-.08 2.175.394.557.473.982 1.305 1.274 2.496l.323 1.369zm-1.395-1.195c-.21-.893-.49-1.515-.837-1.865-.347-.35-.792-.46-1.336-.332-.54.127-.886.423-1.037.888-.151.465-.131 1.12.06 1.967l.397 1.688c.211.897.498 1.529.859 1.895.361.367.806.488 1.334.363.521-.122.86-.415 1.019-.877.158-.463.14-1.13-.052-1.999l-.407-1.728zm1.756-2.745c-.18-.48-.175-.932.015-1.357.19-.425.523-.727 1.003-.906.486-.182.94-.173 1.358.027.419.2.721.549.907 1.046l.146.39c.18.483.175.934-.017 1.354-.19.42-.523.718-.995.894-.475.178-.926.172-1.35-.017-.426-.19-.734-.538-.924-1.047l-.143-.384zm.915.14c.107.285.275.49.505.614.23.125.48.137.751.036a.854.854 0 0 0 .528-.504c.092-.239.08-.514-.036-.825l-.15-.4c-.106-.286-.273-.493-.5-.62-.227-.128-.476-.142-.747-.04-.27.1-.45.274-.538.52-.087.245-.075.518.037.818l.15.4zm4.656 2.9c-.18-.479-.174-.93.016-1.353.19-.424.525-.725 1.004-.904.48-.18.93-.173 1.353.02.422.192.728.543.918 1.052l.146.39c.179.479.173.93-.017 1.353-.19.424-.522.724-.998.902-.476.178-.926.172-1.351-.017-.426-.19-.733-.539-.923-1.047l-.148-.395zm.917.146c.108.289.277.496.508.62.23.125.48.137.75.035a.848.848 0 0 0 .53-.507c.09-.24.077-.516-.04-.827l-.151-.406c-.108-.289-.276-.495-.504-.619-.227-.123-.475-.135-.742-.035a.868.868 0 0 0-.532.509c-.095.242-.085.516.03.824l.151.406zm-2.425 1.963l-.711-.147 1.568-7.704.711.147-1.568 7.704zm13.845-12.088c.462.696.748 1.382.858 2.057.11.674.04 1.29-.208 1.85-.248.558-.659 1.027-1.232 1.407-.56.371-1.147.563-1.763.575-.615.012-1.211-.157-1.788-.508-.578-.351-1.092-.86-1.543-1.526l-.34-.513c-.453-.683-.735-1.366-.845-2.048-.11-.681-.04-1.305.21-1.872.25-.567.655-1.036 1.215-1.407.57-.378 1.163-.573 1.78-.586.617-.013 1.216.164 1.797.53.58.368 1.101.898 1.561 1.591l.298.45zm-1.237.16c-.56-.844-1.158-1.379-1.795-1.605-.638-.227-1.26-.138-1.87.266-.592.393-.909.928-.95 1.604-.041.676.199 1.418.72 2.226l.347.522c.541.817 1.139 1.346 1.792 1.585.654.24 1.281.16 1.884-.24.605-.402.928-.933.967-1.594.04-.662-.209-1.407-.745-2.238l-.35-.527zm5.036-3.58l-1.48 1.35 2.325 2.551-.836.762-5.748-6.304 2.087-1.903c.71-.648 1.404-.984 2.08-1.01.678-.025 1.298.271 1.861.889.358.393.564.831.618 1.316.054.485-.043.972-.29 1.461l3.921 1.326.047.052-.891.813-3.694-1.302zm-2.1.67l1.277-1.164c.412-.376.643-.782.693-1.218.049-.436-.09-.833-.416-1.191-.355-.39-.744-.583-1.166-.579-.422.004-.853.205-1.295.602l-1.273 1.16 2.18 2.39zm10.866-7.623c.133.487.114.995-.06 1.525-.172.529-.478 1.058-.918 1.587-.444.534-.964.905-1.559 1.111a3.26 3.26 0 0 1-1.87.073c-.651-.157-1.284-.486-1.899-.987l-.572-.476c-.989-.82-1.564-1.688-1.724-2.6-.161-.914.105-1.788.8-2.623.568-.685 1.201-1.091 1.899-1.218.697-.127 1.405.03 2.126.47l-.72.866c-1.002-.559-1.866-.403-2.59.469-.481.58-.643 1.188-.484 1.825.159.638.623 1.278 1.393 1.923l.536.445c.736.612 1.461.93 2.175.954.714.024 1.309-.25 1.786-.825.27-.324.469-.638.599-.941.13-.304.176-.606.137-.908l-1.474-1.224-1.262 1.519-.703-.584 1.977-2.38 2.407 2zm2.466-7.072l-1.844 3.062 1.493 1.836-.598.994-5.628-7.192.508-.843 8.992 1.606-.595.988-2.328-.45zm-2.462 2.293l1.497-2.484-4.168-.814 2.671 3.298zm8.271-10.959l-.437 1.043-7.723 1.42 6.063 2.541-.437 1.043-7.868-3.297.437-1.043 7.755-1.42-6.09-2.552.432-1.032 7.868 3.297zm.541-4.105l-.266 1.093-8.29-2.017.267-1.093 8.29 2.017zm-1.13-9.52c.87.257 1.501.702 1.89 1.337.39.635.505 1.41.349 2.327-.17.994-.662 1.729-1.476 2.206-.815.477-1.819.614-3.013.41l-.808-.138c-.782-.133-1.445-.39-1.99-.77-.546-.38-.934-.854-1.164-1.42-.23-.567-.288-1.187-.173-1.86.152-.894.524-1.568 1.115-2.022.59-.454 1.334-.65 2.231-.588l-.19 1.115c-.687-.018-1.207.108-1.563.378-.355.27-.582.695-.68 1.272-.121.709.046 1.309.5 1.8.456.492 1.166.82 2.133.986l.814.139c.913.155 1.671.089 2.275-.2.605-.29.965-.777 1.082-1.462.105-.617.046-1.113-.177-1.49-.223-.377-.671-.678-1.346-.904l.19-1.115z"/>
        <path fill="#4A306D" fill-rule="nonzero" d="M46.945 65.93c-7.437 9.02-15.156 3.898-17.67 1.801 1.944-2.142 2.828-3.31 6.202-6.117 3.488 1.44 9.719-1.292 9.719-1.292-4.195 1.11-7.398.48-8.537.177.242-.195 4.38-3.221 5.632-4.972 3.464.109 6.326-2.898 6.326-2.898-.098-.08-1.847 1.276-5.16 1.439 3.43-5.092 3.274-9.776 3.274-9.776s-1.267 4.275-4.49 8.965c-.66-3.328.181-5.593.084-5.67 0 0-2.241 3.738-1.21 7.175-1.762 2.034-4.54 3.792-5.56 4.578-.078-.212-1.147-3.76-.108-9.007 0 0-2.824 6.595-1.059 10.017-2.165 1.68-2.74 2.093-6.355 6.176-8.185-6.19-1.156-17.262 4.975-19.846C39.31 44.024 41.94 44.558 47.716 35c6.325 9.471 5.29 23.577-.77 30.93zM12.01 64.97c3.722 1.72 6.305 4.056 8.08 6.29.02-.068.048-.119.068-.196C23.529 58.807 5 60.512 5 60.512s2.56 3.98 3.987 8.32c1.65 5.03 8.394 9.213 10.816 3.24a26.515 26.515 0 0 0-7.794-7.103zm17.267 2.756c-.026-.02-1.28-1.165-1.263-1.185-3.176 3.535-4.415 6.555-4.717 10.4-.48-1.323-1.44-3.44-3.211-5.68a7.355 7.355 0 0 1-.285.812c1.883 2.56 2.612 6.054 3.04 7.198 0 3.196.345 4.794.624 7.458 0 0 1.701 1.016 2.175-.88-.955-1.602-1.897-12.645 3.637-18.123z"/>
        <g fill="#4A306D" fill-rule="nonzero">
            <path d="M128.99 99.352c-.635-.258-1.65-.796-2.861-1.12-1.21-.341-2.846-.91-4.513-1.053-1.685-.177-3.59-.229-5.671-.128-2.032.166-4.095.598-6.307 1.171-2.21.572-4.231 1.523-6.39 2.563-2.108 1.077-4.03 2.42-5.953 3.882a47.153 47.153 0 0 0-5.119 4.96c-1.47 1.827-2.932 3.706-4.058 5.712-1.161 1.991-2.162 4.042-2.886 6.14-1.55 4.152-2.167 8.424-2.232 12.23.006 1.93.12 3.722.358 5.368.208 1.636.617 3.146.933 4.367.127.573.306 1.121.483 1.606.31-.654.648-1.343 1.025-2.097 1.87-3.717 4.595-8.557 7.782-13.09 1.588-2.27 3.33-4.427 5.027-6.378.9-.938 1.77-1.84 2.59-2.694.883-.795 1.716-1.547 2.48-2.24l2.253-1.696c.644-.536 1.319-.847 1.824-1.17l1.618-.96s-.56.397-1.538 1.083c-.475.365-1.114.718-1.713 1.3-.621.549-1.321 1.168-2.087 1.842-.702.745-1.46 1.544-2.263 2.393-.738.901-1.518 1.852-2.323 2.837-1.518 2.05-3.045 4.287-4.42 6.63-2.766 4.664-5.047 9.597-6.582 13.352A102.287 102.287 0 0 0 87.34 147c.657-.176 1.492-.362 2.392-.695 1.142-.398 2.617-.807 4.046-1.392a62.224 62.224 0 0 0 4.597-1.977c1.599-.743 3.156-1.617 4.752-2.535 1.594-.915 3.104-1.96 4.604-3.037 1.456-1.119 2.903-2.249 4.215-3.5 1.297-1.286 2.607-2.492 3.74-3.886a46.322 46.322 0 0 0 5.93-8.552c.84-1.421 1.54-3.076 2.225-4.572.694-1.485 1.283-3.131 1.87-4.642a78.282 78.282 0 0 0 1.62-4.448c.525-1.507.983-2.82 1.364-3.9.439-1.074.713-2.197.96-2.858.228-.746.345-1.14.345-1.14s-.354-.215-1.01-.514zM77.072 132.414c-2.284-1.588-4.454-3.33-6.418-5.03-.94-.893-1.848-1.765-2.71-2.586-.801-.882-1.554-1.715-2.257-2.478-.625-.825-1.195-1.586-1.706-2.254-.539-.645-.848-1.318-1.174-1.824-.617-1.027-.967-1.618-.967-1.618s.399.56 1.092 1.538c.361.475.72 1.112 1.308 1.711l1.854 2.09c.748.699 1.553 1.46 2.407 2.258l2.856 2.323c2.06 1.513 4.313 3.045 6.67 4.419.974.577 1.962 1.085 2.947 1.606A57.851 57.851 0 0 1 84 117.481c-.928-1.189-1.868-2.36-2.903-3.43-1.293-1.3-2.502-2.61-3.91-3.74a46.816 46.816 0 0 0-8.603-5.93c-1.43-.842-3.099-1.54-4.604-2.225-1.49-.694-3.146-1.285-4.666-1.868a81.007 81.007 0 0 0-4.478-1.616c-1.516-.53-2.834-.987-3.925-1.368-1.08-.436-2.212-.713-2.875-.96L46.89 96s-.222.358-.525 1.012c-.258.634-.8 1.651-1.127 2.861-.342 1.206-.917 2.842-1.056 4.51-.181 1.687-.233 3.593-.129 5.674.162 2.03.596 4.089 1.175 6.304.579 2.208 1.533 4.231 2.579 6.392 1.085 2.101 2.434 4.022 3.91 5.948a47.239 47.239 0 0 0 4.99 5.123c1.835 1.466 3.73 2.928 5.752 4.058 2 1.16 4.064 2.162 6.174 2.884 4.177 1.551 8.476 2.167 12.309 2.234.163 0 .303-.017.458-.022-.41-2.662-.558-5.379-.508-8.107-1.272-.792-2.55-1.57-3.82-2.457z"/>
        </g>
    </g>
</svg>
