<svg xmlns="http://www.w3.org/2000/svg" width="167" height="167" viewBox="0 0 167 167">
    <g fill="none" fill-rule="evenodd">
        <g transform="translate(5 5)">
            <circle cx="78.5" cy="78.5" r="78.5" stroke="#4A306D" stroke-width="9"/>
            <circle cx="78.5" cy="78.5" r="59.5" stroke="#4A306D" stroke-width="2"/>
            <g fill="#4A306D" transform="translate(10 78)">
                <circle cx="134.5" cy="1.5" r="1.5"/>
                <circle cx="1.5" cy="1.5" r="1.5"/>
            </g>
            <g fill="#4A306D" transform="scale(-1 1) rotate(-53 103.398 158.736)">
                <circle cx="1.5" cy="1.5" r="1.5"/>
                <circle cx="4.5" cy="5.5" r="1.5"/>
                <circle cx="7.5" cy="9.5" r="1.5"/>
            </g>
            <path fill="#4A306D" fill-rule="nonzero" d="M111.68 64.38L78.915 97.084 51.322 69.543l-9.197 9.181 36.79 36.723 38.578-38.508c4.894 17.31-2.342 36.383-18.604 45.737-19.166 11.025-43.611 4.376-54.6-14.851-7.311-12.79-6.787-27.979 0-39.924L76.581 11.4c1.067-1.867 3.75-1.867 4.817 0l30.281 52.98z"/>
        </g>
        <path fill="#4A306D" d="M13.643 68.938l-.283 3.186 8.838.786-.116 1.3-8.838-.785-.282 3.18-1.076-.096.681-7.667 1.076.096zm11.795-8.984l-.318 1.28-4.465-1.108-1.209 4.87 4.465 1.109-.316 1.273-9.66-2.398.316-1.274 4.153 1.031 1.21-4.87-4.154-1.03.318-1.281 9.66 2.398zm.062-9.882l-1.774 3.932 3.215 1.45 2.06-4.567.98.441-2.6 5.764L18.306 53l2.572-5.701.985.444-2.032 4.505 2.916 1.316 1.774-3.932.978.44zm8.713-11.416l-2.511 3.338 3.512 2.642-.789 1.05-7.954-5.984 3.707-4.928.863.65-2.917 3.878 2.72 2.047 2.511-3.338.858.645zm5.828-4.862l-1.66 1.646 2.835 2.859-.937.929-7.007-7.069 2.34-2.32c.796-.789 1.588-1.215 2.376-1.277.788-.063 1.526.252 2.212.945.437.44.698.941.784 1.504.086.563-.002 1.135-.266 1.717l4.635 1.355.057.058-1 .991-4.369-1.338zm-2.415.883l1.432-1.42c.463-.458.712-.943.748-1.453.036-.511-.145-.967-.543-1.368-.433-.437-.895-.643-1.387-.618-.491.025-.985.28-1.48.765l-1.427 1.415 2.657 2.68zm12.035-8.533l-3.51 2.508 2.052 2.87 4.077-2.914.624.873-5.145 3.677-5.787-8.097 5.088-3.638.628.88-4.02 2.873 1.86 2.603 3.509-2.509.624.874zm8.744-4.142l-3.84 1.962 1.604 3.142 4.462-2.28.488.955-5.63 2.877-4.529-8.863 5.57-2.846.491.962-4.4 2.249 1.455 2.849 3.84-1.963.49.956zM52.508 148.142l3.023 1.046 2.9-8.386 1.234.427-2.9 8.386 3.017 1.043-.353 1.02-7.274-2.515.353-1.02zm-5.863-13.618l1.165.618-2.156 4.064 4.433 2.352 2.156-4.064 1.16.615-4.665 8.792-1.16-.615 2.006-3.78-4.432-2.351-2.006 3.78-1.165-.618 4.664-8.793zm-9.574-2.45l3.386 2.672 2.185-2.77-3.933-3.104.665-.842 4.963 3.917-6.166 7.813-4.91-3.875.67-.848 3.879 3.062 1.982-2.511-3.386-2.672.665-.843zm-8.969-11.216l2.631 3.244 3.414-2.77.827 1.02-7.73 6.27-3.884-4.789.838-.68 3.058 3.77 2.644-2.145-2.631-3.244.833-.676zm-3.308-6.832l1.195 2.009 3.46-2.059.675 1.134-8.553 5.089-1.685-2.832c-.573-.963-.795-1.835-.665-2.615.13-.78.614-1.419 1.452-1.918.533-.316 1.082-.449 1.65-.396.566.052 1.1.277 1.601.673l2.435-4.169.07-.042.72 1.21-2.355 3.916zm.273 2.558l-1.031-1.734c-.333-.56-.743-.919-1.23-1.077-.487-.159-.973-.094-1.458.195-.53.315-.84.714-.935 1.197-.095.483.033 1.023.384 1.62l1.027 1.728 3.243-1.93zm-5.369-13.743l1.585 4.012 3.28-1.296-1.84-4.66.998-.395 2.323 5.881-9.257 3.657-2.298-5.817 1.005-.397 1.816 4.597 2.975-1.176-1.585-4.012.998-.394zm-1.903-9.486l.975 4.201 3.436-.797-1.132-4.88 1.045-.243 1.43 6.16-9.696 2.249-1.414-6.093 1.052-.244 1.117 4.814 3.117-.723-.975-4.202 1.045-.242zM117.918 21.695l-2.964-1.203-3.335 8.223-1.21-.491 3.335-8.222-2.958-1.2.406-1.001 7.132 2.893-.406 1zm5.143 13.906l-1.132-.678 2.366-3.946-4.304-2.58-2.365 3.946-1.126-.675 5.118-8.537 1.126.675-2.2 3.67 4.303 2.58 2.2-3.67 1.132.678-5.118 8.537zm9.432 2.948l-3.241-2.845-2.327 2.65 3.765 3.306-.708.807-4.752-4.172 6.567-7.48 4.7 4.127-.712.812-3.715-3.261-2.11 2.404 3.241 2.846-.708.806zm8.37 11.67l-2.458-3.377-3.554 2.586-.772-1.06 8.047-5.858 3.629 4.986-.874.635-2.856-3.924-2.752 2.003 2.457 3.377-.867.632zm2.946 6.996l-1.089-2.07-3.563 1.876-.615-1.168 8.809-4.634 1.534 2.916c.522.992.698 1.874.527 2.646-.17.772-.687 1.385-1.55 1.84-.549.288-1.105.39-1.668.309-.563-.082-1.085-.334-1.564-.757l-2.65 4.036-.073.039-.656-1.247 2.558-3.786zm-.14-2.569l.94 1.785c.303.577.694.957 1.172 1.14.477.184.966.145 1.466-.118.545-.287.877-.669.997-1.146.12-.478.02-1.024-.299-1.64l-.936-1.778-3.34 1.757zm4.643 14.005l-1.373-4.09-3.344 1.123 1.595 4.75-1.017.342-2.013-5.994 9.436-3.168 1.99 5.93-1.024.343-1.572-4.685-3.033 1.018 1.372 4.09-1.017.34zm1.404 9.573l-.754-4.247-3.473.616.876 4.934-1.057.187-1.105-6.226 9.8-1.739 1.093 6.159-1.063.188-.864-4.866-3.15.56.754 4.246-1.057.188zM153.118 98.842l.284-3.187-8.839-.785.116-1.3 8.838.785.283-3.18 1.075.096-.68 7.667-1.077-.096zm-11.795 8.983l.318-1.28 4.465 1.109 1.21-4.87-4.466-1.109.316-1.274 9.66 2.399-.316 1.274-4.153-1.032-1.21 4.87 4.154 1.031-.318 1.28-9.66-2.398zm-.062 9.883l1.774-3.932-3.215-1.45-2.06 4.567-.979-.441 2.6-5.764 9.073 4.093-2.572 5.701-.985-.444 2.033-4.505-2.917-1.316-1.773 3.932-.979-.441zm-8.712 11.415l2.51-3.337-3.512-2.643.79-1.049 7.953 5.984-3.707 4.927-.863-.649 2.918-3.878-2.72-2.047-2.512 3.338-.857-.646zm-5.83 4.863l1.661-1.646-2.835-2.86.937-.928 7.008 7.068-2.34 2.32c-.796.79-1.589 1.215-2.377 1.278-.788.063-1.525-.252-2.212-.945-.436-.44-.698-.942-.784-1.504-.086-.563.003-1.135.266-1.718l-4.634-1.354-.058-.058 1-.991 4.369 1.338zm2.417-.884l-1.432 1.42c-.463.459-.713.944-.749 1.454-.036.51.145.967.543 1.368.433.437.895.643 1.387.618.492-.026.985-.28 1.48-.765l1.427-1.415-2.656-2.68zm-12.036 8.534l3.51-2.508-2.052-2.87-4.076 2.914-.624-.873 5.144-3.677 5.788 8.097-5.089 3.637-.628-.878 4.02-2.874-1.86-2.603-3.509 2.508-.624-.873zm-8.744 4.142l3.841-1.963-1.605-3.14-4.462 2.279-.488-.956 5.63-2.877 4.53 8.864-5.57 2.845-.492-.961 4.401-2.25-1.455-2.848-3.842 1.963-.488-.956z"/>
    </g>
</svg>
