<svg xmlns="http://www.w3.org/2000/svg" width="167" height="167" viewBox="0 0 167 167">
    <g fill="none" fill-rule="evenodd" transform="translate(5 -17)">
        <g fill="#4A306D" fill-rule="nonzero">
            <path d="M79.426 46.28l2.29 5.367 5.86.499a.457.457 0 0 1 .264.801l-4.446 3.815 1.332 5.675c.093.395-.339.705-.688.496l-5.037-3.01-5.038 3.01c-.35.208-.78-.102-.688-.496l1.332-5.675-4.447-3.816a.457.457 0 0 1 .263-.801l5.862-.499 2.29-5.366a.463.463 0 0 1 .85 0zM96.331 51.214l1.78 4.104 4.56.382c.316.026.445.41.205.613l-3.458 2.917 1.036 4.34c.072.301-.264.539-.536.378L96 61.648l-3.918 2.3c-.272.16-.607-.077-.535-.378l1.036-4.34-3.458-2.918c-.24-.202-.113-.587.204-.613l4.56-.381 1.78-4.104a.363.363 0 0 1 .662 0zM109.76 57.165l1.4 3.157 3.581.293c.249.02.35.316.161.472l-2.717 2.244.814 3.338c.057.232-.207.415-.42.291l-3.079-1.77-3.078 1.77c-.214.123-.477-.06-.42-.29l.813-3.34-2.717-2.244c-.189-.155-.088-.451.16-.471l3.583-.294 1.4-3.156c.096-.22.422-.22.52 0zM48.76 57.165l1.4 3.157 3.581.293c.249.02.35.316.161.472l-2.717 2.244.814 3.338c.057.232-.207.415-.42.291L48.5 65.19l-3.078 1.77c-.214.123-.477-.06-.42-.29l.813-3.34-2.717-2.244c-.189-.155-.088-.451.16-.471l3.583-.294 1.4-3.156c.096-.22.422-.22.52 0zM62.331 51.214l1.78 4.104 4.56.382c.316.026.445.41.205.613l-3.458 2.917 1.036 4.34c.072.301-.264.539-.536.378L62 61.648l-3.918 2.3c-.272.16-.607-.077-.535-.378l1.036-4.34-3.458-2.918c-.24-.202-.113-.587.204-.613l4.56-.381 1.78-4.104a.363.363 0 0 1 .662 0z"/>
        </g>
        <g fill="#4A306D" fill-rule="nonzero">
            <path d="M78.426 154.72l2.29-5.367 5.86-.499a.457.457 0 0 0 .264-.801l-4.446-3.815 1.332-5.675c.093-.395-.339-.705-.688-.496l-5.037 3.01-5.038-3.01c-.35-.208-.78.102-.688.496l1.332 5.675-4.447 3.816a.457.457 0 0 0 .263.801l5.862.499 2.29 5.366a.463.463 0 0 0 .85 0zM95.331 149.786l1.78-4.104 4.56-.382c.316-.026.445-.41.205-.613l-3.458-2.917 1.036-4.34c.072-.301-.264-.539-.536-.378l-3.918 2.3-3.918-2.3c-.272-.16-.607.077-.535.378l1.036 4.34-3.458 2.918c-.24.202-.113.587.204.613l4.56.381 1.78 4.104a.363.363 0 0 0 .662 0zM108.76 143.835l1.4-3.157 3.581-.293c.249-.02.35-.316.161-.472l-2.717-2.244.814-3.338c.057-.232-.207-.415-.42-.291l-3.079 1.77-3.078-1.77c-.214-.123-.477.06-.42.29l.813 3.34-2.717 2.244c-.189.155-.088.451.16.471l3.583.294 1.4 3.156c.096.22.422.22.52 0zM47.76 143.835l1.4-3.157 3.581-.293c.249-.02.35-.316.161-.472l-2.717-2.244.814-3.338c.057-.232-.207-.415-.42-.291l-3.079 1.77-3.078-1.77c-.214-.123-.477.06-.42.29l.813 3.34-2.717 2.244c-.189.155-.088.451.16.471l3.583.294 1.4 3.156c.096.22.422.22.52 0zM61.331 149.786l1.78-4.104 4.56-.382c.316-.026.445-.41.205-.613l-3.458-2.917 1.036-4.34c.072-.301-.264-.539-.536-.378l-3.918 2.3-3.918-2.3c-.272-.16-.607.077-.535.378l1.036 4.34-3.458 2.918c-.24.202-.113.587.204.613l4.56.381 1.78 4.104a.363.363 0 0 0 .662 0z"/>
        </g>
        <g fill="#4A306D">
            <path d="M50.568 84l3.289 8.681L57.137 84h2.561v11.326h-1.973v-3.734l.196-4.994-3.367 8.728h-1.417l-3.36-8.72.196 4.986v3.734H48V84h2.568zm17.994 8.689h-4.416l-.924 2.637h-2.06L65.47 84h1.778l4.314 11.326h-2.067l-.932-2.637zm-3.86-1.587h3.304l-1.652-4.698-1.652 4.698zm8.151 4.224V84h3.367c1.008 0 1.902.223 2.682.669a4.574 4.574 0 0 1 1.813 1.898c.428.82.642 1.758.642 2.816v.568c0 1.073-.215 2.017-.646 2.831a4.52 4.52 0 0 1-1.84 1.883c-.796.44-1.709.661-2.737.661h-3.28zm1.981-9.74v8.169h1.292c1.04 0 1.836-.323 2.392-.969.556-.645.84-1.572.85-2.78v-.63c0-1.23-.269-2.169-.807-2.817-.537-.648-1.318-.972-2.34-.972h-1.387zm15.16 4.684H85.31v3.485h5.474v1.571H83.33V84h7.4v1.587H85.31v3.127h4.683v1.556zm8.488 5.056h-1.974V84h1.974v11.326zm11.479 0h-1.981l-5.082-8.036v8.036h-1.981V84h1.98l5.098 8.067V84h1.966v11.326zM68.545 99.037v11.67c0 1.94-.61 3.474-1.832 4.601-1.22 1.128-2.889 1.692-5.004 1.692-2.083 0-3.737-.548-4.962-1.643-1.225-1.095-1.85-2.6-1.874-4.515V99.037h3.675v11.695c0 1.16.28 2.006.84 2.538.559.531 1.332.797 2.32.797 2.067 0 3.117-1.08 3.15-3.237V99.037h3.687zm12.263 13.07c0-.69-.245-1.219-.735-1.588s-1.372-.758-2.646-1.168c-1.275-.41-2.283-.813-3.026-1.211-2.026-1.087-3.039-2.552-3.039-4.394 0-.957.272-1.81.815-2.561.543-.75 1.323-1.337 2.34-1.759 1.017-.422 2.158-.633 3.424-.633 1.274 0 2.41.23 3.406.688.996.458 1.77 1.105 2.321 1.94.552.837.827 1.786.827 2.849H80.82c0-.812-.257-1.442-.772-1.893-.514-.45-1.237-.675-2.168-.675-.899 0-1.597.188-2.095.566-.498.377-.747.874-.747 1.49 0 .577.292 1.06.876 1.449.584.39 1.443.754 2.578 1.095 2.091.625 3.614 1.4 4.57 2.325.956.925 1.433 2.077 1.433 3.456 0 1.534-.584 2.736-1.752 3.609-1.168.872-2.74 1.308-4.716 1.308-1.372 0-2.622-.25-3.749-.748-1.127-.5-1.987-1.183-2.579-2.051-.592-.868-.888-1.874-.888-3.018H74.5c0 1.955 1.176 2.933 3.528 2.933.874 0 1.556-.177 2.046-.53.49-.353.735-.846.735-1.478zm16.244.998h-6.444l-1.225 3.652h-3.908l6.64-17.72h3.406l6.677 17.72H98.29l-1.238-3.652zm-5.451-2.957h4.46l-2.243-6.633-2.217 6.633z"/>
        </g>
        <circle cx="78.5" cy="100.5" r="78.5" stroke="#4A306D" stroke-width="9"/>
        <circle cx="78.5" cy="100.5" r="59.5" stroke="#4A306D" stroke-width="2"/>
        <path fill="#4A306D" d="M43.313 153.562l-1.397 7.367 6.098-4.364 1.23.785-4.593 7.19-.948-.606 1.788-2.8 2.02-2.965-6.08 4.314-.725-.464 1.354-7.311-1.827 3.067-1.789 2.8-.948-.606 4.593-7.19 1.224.783zm9.748 11.714l-3.263-1.458-1.641 1.705-1.06-.473 6.455-6.46.899.401-.5 9.12-1.055-.47.165-2.365zm-2.575-2.165l2.648 1.183.3-4.236-2.948 3.053zm5.74 5.336l2.568-8.135 2.297.725c.708.223 1.284.577 1.73 1.062.444.484.724 1.062.837 1.733.114.67.055 1.381-.178 2.131l-.164.52c-.242.767-.602 1.393-1.08 1.877a3.277 3.277 0 0 1-1.69.929c-.646.136-1.336.092-2.068-.131l-2.252-.711zm3.363-6.914l-2.013 6.375 1.128.357c.827.26 1.552.207 2.174-.162.623-.369 1.084-1.028 1.384-1.978l.15-.475c.291-.924.301-1.71.029-2.36-.273-.648-.806-1.103-1.6-1.362l-1.252-.395zm10.846 6.05l-3.63-.701-.573 2.969 4.217.813-.174.904-5.322-1.027 1.616-8.377 5.265 1.016-.176.909-4.16-.803-.519 2.693 3.63.7-.174.903zm7.64 4.214l-1.125-.042.32-8.526 1.124.043-.32 8.525zm9.706-.176l-1.13.02-4.413-6.495.118 6.573-1.13.02-.154-8.53 1.13-.02 4.425 6.525-.118-6.603 1.119-.02.153 8.53zM99.11 160.61l1.107 5.694c.15.79.027 1.485-.368 2.083-.395.598-1.009 1.01-1.84 1.235l-.291.069c-.917.178-1.695.073-2.336-.316-.64-.389-1.05-1.016-1.225-1.88l-1.11-5.707 1.094-.212 1.102 5.671c.118.606.376 1.044.775 1.315.399.27.907.346 1.524.226.625-.122 1.071-.381 1.338-.78.267-.397.341-.9.223-1.505L98 160.826l1.11-.216zm5.576 2.847c-1.003.025-1.775-.09-2.316-.343-.54-.254-.9-.664-1.078-1.23-.201-.642-.112-1.252.269-1.833.38-.58.98-1 1.8-1.257.56-.176 1.092-.224 1.598-.146.505.079.938.27 1.298.575.36.304.61.682.753 1.133l-1.08.34c-.154-.493-.432-.83-.833-1.013-.402-.183-.888-.185-1.458-.006-.529.167-.905.413-1.128.739-.223.326-.27.696-.14 1.11.105.331.333.567.687.708.353.14.898.2 1.634.177.736-.022 1.331.02 1.785.13.454.11.822.287 1.102.535.28.248.486.578.616.992.207.66.116 1.268-.273 1.827-.39.558-1.015.973-1.876 1.244a4.01 4.01 0 0 1-1.666.17c-.552-.062-1.017-.238-1.397-.528a2.252 2.252 0 0 1-.793-1.145l1.078-.339c.155.492.459.823.912.994.453.171.983.161 1.59-.03.567-.178.965-.43 1.194-.756.229-.326.281-.688.156-1.087-.126-.399-.362-.663-.71-.793s-.923-.186-1.724-.168zm9.828-2.493l-3.28 1.42.148 2.363-1.064.46-.402-9.122.903-.392 6.386 6.531-1.059.46-1.632-1.72zm-3.336.436l2.661-1.153-2.92-3.084.259 4.237z"/>
        <g fill="#4A306D" transform="matrix(1 0 0 -1 122 153)">
            <circle cx="1.5" cy="1.5" r="1.5"/>
            <circle cx="4.5" cy="5.5" r="1.5"/>
            <circle cx="7.5" cy="9.5" r="1.5"/>
        </g>
        <path fill="#4A306D" d="M42.695 49.84l-.809.79-2.754-2.823-3.078 3.003 2.754 2.823-.805.785-5.958-6.106.805-.786 2.561 2.626 3.079-3.004-2.562-2.625.81-.79 5.957 6.106zm3.811-2.173l-.919.65-4.92-6.97.919-.649 4.92 6.97zm7.526-5.84c-.034.504-.22.978-.557 1.42-.338.443-.8.842-1.39 1.197-.595.359-1.208.537-1.838.536a3.26 3.26 0 0 1-1.79-.546c-.563-.363-1.052-.882-1.468-1.558l-.384-.637c-.663-1.1-.92-2.109-.772-3.024.149-.915.688-1.652 1.618-2.213.763-.46 1.495-.635 2.195-.525.7.11 1.317.491 1.852 1.145l-.963.58c-.764-.858-1.63-.995-2.6-.41-.647.39-1 .91-1.06 1.565-.059.654.169 1.411.683 2.273l.36.598c.494.82 1.074 1.358 1.74 1.616.666.258 1.319.194 1.958-.191.361-.218.653-.449.876-.692.222-.244.365-.514.427-.812l-.989-1.641-1.69 1.019-.473-.783 2.65-1.597 1.615 2.68zm9.605-2.289l-1.046.428-1.491-3.65-3.982 1.625 1.491 3.65-1.041.426-3.226-7.898 1.041-.425 1.387 3.396 3.982-1.627-1.387-3.395 1.047-.428 3.225 7.898zm12.975-5.988c.132.814.116 1.535-.047 2.165-.163.63-.452 1.149-.865 1.556l1.695.936-.644.823-2.004-1.124a3.66 3.66 0 0 1-.863.246c-.663.107-1.277.04-1.843-.204-.566-.243-1.039-.643-1.42-1.2-.38-.558-.64-1.234-.776-2.027l-.098-.607c-.13-.81-.106-1.548.076-2.214.18-.667.502-1.206.964-1.62.461-.412 1.023-.672 1.687-.78.678-.11 1.302-.042 1.87.203.567.244 1.04.652 1.417 1.222s.632 1.266.764 2.087l.087.538zm-1.198-.364c-.16-.991-.481-1.724-.964-2.198-.482-.474-1.09-.652-1.822-.533-.698.113-1.205.469-1.522 1.068-.317.6-.404 1.374-.262 2.325l.1.618c.156.965.48 1.692.973 2.182s1.098.677 1.815.561c.717-.116 1.23-.467 1.539-1.053.309-.586.39-1.368.244-2.345l-.101-.625zm10.655-3.855l.039 5.8c.001.806-.247 1.466-.746 1.98-.498.516-1.177.807-2.036.876l-.298.014c-.934.006-1.68-.241-2.238-.741s-.844-1.192-.858-2.075l-.039-5.812 1.113-.007.04 5.777c.003.617.177 1.095.519 1.435.342.34.827.507 1.456.503.637-.005 1.123-.178 1.459-.52.335-.342.501-.822.497-1.439l-.04-5.783 1.132-.008zm7.745 7.723l-3.54-.49-1.1 2.097-1.15-.159 4.395-8.006.975.135 2.066 8.897-1.143-.157-.503-2.317zm-3.077-1.36l2.873.397-.894-4.152-1.98 3.755zm8.138 4.363l3.88 1.134-.257.883-4.966-1.452 2.393-8.188 1.086.317-2.136 7.306zm6.832 3.736l-1.032-.448 3.4-7.825 1.033.449-3.4 7.824zm11.378-2.646l-2.433-1.266-3.51 6.748-.992-.517 3.51-6.747-2.428-1.263.427-.821 5.853 3.044-.427.822zm2.9 6.556l4.298-2.198 1.04.741-5.5 2.651-1.845 2.592-.916-.653 1.846-2.591.707-6.064 1.05.748-.68 4.774zM25 76h107l1 3H24zM25 125h107l1-3H24z"/>
        <g fill="#4A306D" transform="translate(129 56)">
            <circle cx="1.5" cy="1.5" r="1.5"/>
            <circle cx="4.5" cy="5.5" r="1.5"/>
            <circle cx="7.5" cy="9.5" r="1.5"/>
        </g>
        <g fill="#4A306D" transform="matrix(-1 0 0 1 28 57)">
            <circle cx="1.5" cy="1.5" r="1.5"/>
            <circle cx="4.5" cy="5.5" r="1.5"/>
            <circle cx="7.5" cy="9.5" r="1.5"/>
        </g>
        <g fill="#4A306D" transform="translate(25 141)">
            <circle cx="1.5" cy="1.5" r="1.5"/>
            <circle cx="4.5" cy="5.5" r="1.5"/>
            <circle cx="7.5" cy="9.5" r="1.5"/>
        </g>
    </g>
</svg>
