<svg xmlns="http://www.w3.org/2000/svg" width="43" height="40" viewBox="0 0 43 40">
    <g fill="#FFF" fill-rule="nonzero">
        <path d="M1.59 3.314h4.56l6.497 24.47A1.602 1.602 0 0 0 14.184 29h19.964c.637 0 1.193-.387 1.459-.994l7.264-17.4a1.737 1.737 0 0 0-.133-1.575 1.564 1.564 0 0 0-1.325-.745H19.354c-.875 0-1.59.745-1.59 1.657 0 .911.715 1.657 1.59 1.657h19.62l-5.886 14.086h-17.71L8.881 1.216A1.602 1.602 0 0 0 7.344 0H1.591C.716 0 0 .746 0 1.657c0 .912.716 1.657 1.59 1.657zM13 40c2.206 0 4-1.794 4-4s-1.794-4-4-4-4 1.794-4 4 1.794 4 4 4zM35.986 40h.295a4.003 4.003 0 0 0 2.74-1.38c.707-.794 1.031-1.822.972-2.91-.147-2.173-2.062-3.848-4.272-3.701-2.21.147-3.86 2.086-3.712 4.26.147 2.086 1.886 3.731 3.977 3.731z"/>
    </g>
</svg>
