<svg xmlns="http://www.w3.org/2000/svg" width="34" height="32" viewBox="0 0 34 32">
    <g fill="#4A306D" fill-rule="nonzero">
        <path d="M1.258 2.651h3.606L10 22.228c.146.574.65.972 1.215.972h15.786c.503 0 .943-.31 1.153-.795l5.744-13.92c.168-.42.126-.884-.105-1.26a1.234 1.234 0 0 0-1.048-.596H15.303c-.691 0-1.257.596-1.257 1.325 0 .73.566 1.326 1.257 1.326h15.513l-4.653 11.269H12.159L7.023.972A1.27 1.27 0 0 0 5.807 0h-4.55C.567 0 0 .597 0 1.326 0 2.055.566 2.65 1.258 2.65zM10.28 32c1.743 0 3.162-1.435 3.162-3.2 0-1.765-1.419-3.2-3.163-3.2-1.744 0-3.163 1.435-3.163 3.2 0 1.765 1.419 3.2 3.163 3.2zM28.454 32h.233a3.152 3.152 0 0 0 2.167-1.105c.559-.634.815-1.457.769-2.326-.117-1.74-1.631-3.08-3.378-2.962-1.747.118-3.052 1.669-2.935 3.408C25.426 30.684 26.8 32 28.454 32z"/>
    </g>
</svg>
