<svg xmlns="http://www.w3.org/2000/svg" width="78" height="126" viewBox="0 0 78 126">
    <g fill="#FFF" fill-rule="nonzero">
        <path d="M38.649.038V0l.019.02.019-.02v.038c10.841 10.878 13.358 25.703 7.55 44.474C53.134 32.545 63.5 26.646 77.335 26.815c-1.002 12.623-10.42 21.544-28.25 26.763 11.414 0 19.32 3.367 23.721 10.102-7.212 4.409-15.412 3.89-24.601-1.557 5.008 4.061 7.192 9.59 6.552 16.588-6.507-.232-11.87-5.08-16.09-14.544-4.219 9.464-9.582 14.312-16.089 14.544-.64-6.997 1.544-12.527 6.553-16.588-9.19 5.447-17.39 5.966-24.602 1.557 4.4-6.735 12.308-10.102 23.722-10.102C10.42 48.36 1.003 39.438 0 26.815c13.836-.169 24.202 5.73 31.098 17.697-5.808-18.771-3.29-33.596 7.55-44.474zm.053 61.505c3.904 0 7.068-3.175 7.068-7.092 0-2.61-2.356-6.639-7.068-12.084-4.711 5.445-7.067 9.473-7.067 12.084 0 3.917 3.164 7.092 7.067 7.092zm0-1.084a2.79 2.79 0 0 1-2.797-2.784 2.79 2.79 0 0 1 2.797-2.783 2.79 2.79 0 0 1 2.797 2.783 2.79 2.79 0 0 1-2.797 2.784zM24.312 106.969v14.512H23.04l-.5-.824c-.431.343-.893.611-1.387.803-.493.192-.97.288-1.428.288-1.028 0-1.921-.22-2.679-.658a4.447 4.447 0 0 1-1.751-1.853c-.41-.796-.615-1.722-.615-2.779 0-1.043.205-1.959.615-2.748.41-.789 1-1.4 1.772-1.832.771-.432 1.671-.648 2.7-.648.32 0 .674.058 1.063.175.39.116.764.284 1.126.504v-4.735l2.356-.205zm-7.235 9.469c0 1.001.24 1.804.72 2.408.48.604 1.136.906 1.97.906.417 0 .799-.066 1.146-.196.348-.13.695-.34 1.043-.628v-4.899a3.401 3.401 0 0 0-1.022-.628 3.303 3.303 0 0 0-1.167-.195c-.834 0-1.49.302-1.97.905-.48.604-.72 1.38-.72 2.327zm12.196-1.318v6.36h-2.335v-9.983h1.251l.772 1.647c.5-.412 1.073-.79 1.72-1.132.646-.343 1.212-.515 1.699-.515l.48 1.853c-.501 0-1.085.171-1.752.514a8.828 8.828 0 0 0-1.835 1.256zm14.823 1.359c0 1.043-.215 1.962-.646 2.758a4.557 4.557 0 0 1-1.835 1.853c-.792.439-1.716.658-2.773.658-1.056 0-1.973-.22-2.751-.658a4.541 4.541 0 0 1-1.804-1.843c-.424-.789-.636-1.712-.636-2.768 0-1.043.212-1.96.636-2.748a4.506 4.506 0 0 1 1.824-1.843c.793-.439 1.717-.658 2.773-.658s1.977.216 2.762.648a4.442 4.442 0 0 1 1.814 1.842c.424.796.636 1.716.636 2.759zm-5.254 3.273c.848 0 1.533-.31 2.054-.927.521-.617.782-1.393.782-2.326 0-.974-.254-1.767-.761-2.377-.507-.61-1.185-.916-2.033-.916-.834 0-1.511.308-2.032.926-.522.618-.79 1.4-.803 2.347 0 .974.254 1.763.76 2.367.508.604 1.186.906 2.033.906zm11.467-8.522c1.028 0 1.925.216 2.69.648a4.363 4.363 0 0 1 1.76 1.842c.41.796.616 1.73.616 2.8 0 1.03-.209 1.938-.626 2.727a4.492 4.492 0 0 1-1.782 1.843c-.772.439-1.671.658-2.7.658-.611 0-1.258-.178-1.939-.535v4.55l-2.335.226v-14.492h1.23l.5.659a4.695 4.695 0 0 1 1.293-.69c.459-.157.89-.236 1.293-.236zm-.042 8.522c.834 0 1.49-.302 1.97-.906.48-.604.72-1.38.72-2.326 0-.988-.237-1.788-.71-2.398-.472-.61-1.132-.916-1.98-.916-.361 0-.698.055-1.011.164-.313.11-.622.275-.928.494v5.27c.57.412 1.216.618 1.94.618zm6.317 1.029l.709-1.606c.959.453 1.855.68 2.69.68.527 0 .979-.097 1.354-.289.375-.192.563-.453.563-.782 0-.604-.667-1.118-2.001-1.544-2.224-.713-3.336-1.729-3.336-3.046 0-.92.348-1.644 1.042-2.172.695-.528 1.64-.792 2.836-.792.472 0 1.039.089 1.699.267.66.179 1.213.419 1.657.72l-.73 1.565a9.87 9.87 0 0 0-1.344-.504 4.82 4.82 0 0 0-1.324-.175c-.43 0-.792.103-1.084.309-.292.205-.438.46-.438.761.014.233.18.446.5.638s.765.385 1.335.577c2.293.81 3.44 1.907 3.44 3.293 0 .975-.358 1.73-1.074 2.265-.716.535-1.748.802-3.096.802-.5 0-1.087-.085-1.762-.257-.674-.172-1.22-.408-1.636-.71zM17.388 101.575H15.13V95.73H9.387v5.846H7.13v-13.43l2.257-.099v5.906h5.744v-5.807h2.257v13.43zm11.487-4.858v.651h-6.772c.202 1.712 1.243 2.568 3.124 2.568.524 0 .991-.07 1.4-.208.41-.138.904-.352 1.482-.641l.685 1.62a6.293 6.293 0 0 1-3.607 1.105c-1.774 0-3.127-.45-4.061-1.353-.934-.902-1.4-2.13-1.4-3.683 0-1 .19-1.88.574-2.637a4.2 4.2 0 0 1 1.652-1.767c.72-.422 1.569-.632 2.55-.632 1.437 0 2.525.467 3.264 1.402.74.935 1.109 2.126 1.109 3.575zm-6.731-.83h4.554c-.12-.737-.37-1.297-.745-1.679-.377-.381-.88-.572-1.512-.572-.645 0-1.165.197-1.562.592-.396.395-.641.948-.735 1.66zm9.35-1.481l-.624-1.817c.35-.224.89-.421 1.622-.593.733-.17 1.327-.256 1.784-.256.752 0 1.44.151 2.066.454.624.303 1.118.714 1.48 1.234.363.52.545 1.103.545 1.748v6.4h-1.512l-.342-.969a4.795 4.795 0 0 1-1.29.87 3.43 3.43 0 0 1-1.451.335c-1.129 0-1.985-.276-2.57-.83-.584-.552-.876-1.29-.876-2.211 0-.962.332-1.705.997-2.232.665-.527 1.542-.79 2.63-.79h2.137c-.027-1.33-.618-1.995-1.774-1.995-.887 0-1.827.217-2.821.652zm.807 4.365c0 .342.127.641.383.898.255.257.604.385 1.048.385.416 0 .833-.098 1.25-.296a3.936 3.936 0 0 0 1.128-.81V97.23h-2.197c-.497 0-.89.148-1.179.444a1.51 1.51 0 0 0-.433 1.097zm10.782 2.804h-2.257V87.85l2.257-.217v13.943zm11.064-4.858v.651h-6.772c.202 1.712 1.243 2.568 3.124 2.568.524 0 .99-.07 1.4-.208.41-.138.904-.352 1.482-.641l.685 1.62a6.293 6.293 0 0 1-3.607 1.105c-1.774 0-3.127-.45-4.061-1.353-.934-.902-1.4-2.13-1.4-3.683 0-1 .19-1.88.574-2.637a4.2 4.2 0 0 1 1.652-1.767c.719-.422 1.569-.632 2.55-.632 1.437 0 2.525.467 3.264 1.402.74.935 1.109 2.126 1.109 3.575zm-6.731-.83h4.554c-.12-.737-.37-1.297-.746-1.679-.376-.381-.88-.572-1.511-.572-.645 0-1.166.197-1.562.592-.396.395-.641.948-.735 1.66zm9.35-1.481l-.624-1.817c.35-.224.89-.421 1.622-.593.732-.17 1.327-.256 1.784-.256.752 0 1.44.151 2.065.454.625.303 1.119.714 1.482 1.234.362.52.544 1.103.544 1.748v6.4h-1.512l-.342-.969a4.795 4.795 0 0 1-1.29.87 3.43 3.43 0 0 1-1.451.335c-1.129 0-1.985-.276-2.57-.83-.584-.552-.876-1.29-.876-2.211 0-.962.332-1.705.997-2.232.665-.527 1.542-.79 2.63-.79h2.136c-.026-1.33-.618-1.995-1.773-1.995-.887 0-1.827.217-2.821.652zm.807 4.365c0 .342.127.641.383.898.255.257.604.385 1.048.385.416 0 .832-.098 1.249-.296a3.936 3.936 0 0 0 1.129-.81V97.23h-2.197c-.497 0-.89.148-1.18.444a1.51 1.51 0 0 0-.432 1.097zm8.927-4.997h-1.49v-1.699h1.49v-1.007c0-1.04.306-1.86.917-2.459.612-.599 1.455-.898 2.53-.898.295 0 .62.049.977.148.356.099.628.22.816.365l-.625 1.66c-.43-.159-.765-.238-1.007-.238-.457 0-.793.152-1.008.454-.215.303-.322.718-.322 1.245v.73h1.813l.726 1.699h-2.54v7.801H66.5v-7.801z"/>
    </g>
</svg>
