<svg xmlns="http://www.w3.org/2000/svg" width="321" height="127" viewBox="0 0 321 127">
    <g fill="#79A50B" fill-rule="evenodd">
        <path d="M138.964 67c-5.48 0-10.425-1.212-14.834-3.637-4.41-2.424-7.868-5.761-10.373-10.011C111.252 49.102 110 44.318 110 39s1.252-10.102 3.757-14.352 5.976-7.587 10.412-10.011c4.436-2.425 9.393-3.637 14.873-3.637 4.28 0 8.193.717 11.742 2.15 3.549 1.435 6.576 3.56 9.08 6.375l-5.088 4.928c-4.122-4.328-9.263-6.492-15.42-6.492-4.071 0-7.75.912-11.038 2.737-3.288 1.825-5.858 4.341-7.711 7.548-1.853 3.207-2.779 6.791-2.779 10.754 0 3.963.926 7.547 2.779 10.754 1.853 3.207 4.423 5.723 7.71 7.548 3.288 1.825 6.968 2.737 11.038 2.737 6.106 0 11.246-2.19 15.421-6.57l5.089 4.928c-2.505 2.815-5.545 4.953-9.12 6.413-3.575 1.46-7.502 2.19-11.781 2.19zm68.965-29.017c3.183.887 5.688 2.49 7.515 4.81 1.826 2.32 2.74 5.254 2.74 8.8 0 4.744-1.788 8.394-5.363 10.949-3.574 2.555-8.78 3.832-15.616 3.832h-26.146V11.626h24.58c6.262 0 11.103 1.251 14.521 3.754 3.418 2.503 5.127 5.97 5.127 10.402 0 2.868-.665 5.345-1.996 7.43-1.33 2.086-3.118 3.676-5.362 4.771zm-29.042-20.022v17.52h16.047c4.019 0 7.11-.744 9.277-2.23 2.165-1.486 3.248-3.663 3.248-6.53 0-2.868-1.083-5.045-3.248-6.531-2.166-1.486-5.258-2.23-9.277-2.23h-16.047zm18.004 42.078c4.436 0 7.776-.73 10.02-2.19 2.244-1.46 3.366-3.754 3.366-6.883 0-6.1-4.462-9.15-13.386-9.15h-18.004v18.223h18.004zm33.426-48.413h23.093c5.793 0 10.933 1.147 15.421 3.441 4.488 2.294 7.972 5.514 10.45 9.66C281.762 28.871 283 33.628 283 39c0 5.37-1.24 10.128-3.718 14.274-2.48 4.145-5.963 7.365-10.45 9.659-4.489 2.294-9.63 3.441-15.422 3.441h-23.093V11.626zM252.94 59.57c4.436 0 8.337-.86 11.703-2.581 3.366-1.72 5.963-4.132 7.79-7.235 1.826-3.102 2.739-6.687 2.739-10.754 0-4.067-.913-7.652-2.74-10.754-1.826-3.103-4.423-5.514-7.789-7.235-3.366-1.72-7.267-2.58-11.703-2.58h-14.795V59.57h14.795z"/>
        <g fill-rule="nonzero">
            <path d="M38.649.038V0l.019.02.019-.02v.038c10.841 10.878 13.358 25.703 7.55 44.474C53.134 32.545 63.5 26.646 77.335 26.815c-1.002 12.623-10.42 21.544-28.25 26.763 11.414 0 19.32 3.367 23.721 10.102-7.212 4.409-15.412 3.89-24.601-1.557 5.008 4.061 7.192 9.59 6.552 16.588-6.507-.232-11.87-5.08-16.09-14.544-4.219 9.464-9.582 14.312-16.089 14.544-.64-6.997 1.544-12.527 6.553-16.588-9.19 5.447-17.39 5.966-24.602 1.557 4.4-6.735 12.308-10.102 23.722-10.102C10.42 48.36 1.003 39.438 0 26.815c13.836-.169 24.202 5.73 31.098 17.697-5.808-18.771-3.29-33.596 7.55-44.474zm.053 61.505c3.904 0 7.068-3.175 7.068-7.092 0-2.61-2.356-6.639-7.068-12.084-4.711 5.445-7.067 9.473-7.067 12.084 0 3.917 3.164 7.092 7.067 7.092zm0-1.084a2.79 2.79 0 0 1-2.797-2.784 2.79 2.79 0 0 1 2.797-2.783 2.79 2.79 0 0 1 2.797 2.783 2.79 2.79 0 0 1-2.797 2.784zM24.312 106.969v14.512H23.04l-.5-.824c-.431.343-.893.611-1.387.803-.493.192-.97.288-1.428.288-1.028 0-1.921-.22-2.679-.658a4.447 4.447 0 0 1-1.751-1.853c-.41-.796-.615-1.722-.615-2.779 0-1.043.205-1.959.615-2.748.41-.789 1-1.4 1.772-1.832.771-.432 1.671-.648 2.7-.648.32 0 .674.058 1.063.175.39.116.764.284 1.126.504v-4.735l2.356-.205zm-7.235 9.469c0 1.001.24 1.804.72 2.408.48.604 1.136.906 1.97.906.417 0 .799-.066 1.146-.196.348-.13.695-.34 1.043-.628v-4.899a3.401 3.401 0 0 0-1.022-.628 3.303 3.303 0 0 0-1.167-.195c-.834 0-1.49.302-1.97.905-.48.604-.72 1.38-.72 2.327zm12.196-1.318v6.36h-2.335v-9.983h1.251l.772 1.647c.5-.412 1.073-.79 1.72-1.132.646-.343 1.212-.515 1.699-.515l.48 1.853c-.501 0-1.085.171-1.752.514a8.828 8.828 0 0 0-1.835 1.256zm14.823 1.359c0 1.043-.215 1.962-.646 2.758a4.557 4.557 0 0 1-1.835 1.853c-.792.439-1.716.658-2.773.658-1.056 0-1.973-.22-2.751-.658a4.541 4.541 0 0 1-1.804-1.843c-.424-.789-.636-1.712-.636-2.768 0-1.043.212-1.96.636-2.748a4.506 4.506 0 0 1 1.824-1.843c.793-.439 1.717-.658 2.773-.658s1.977.216 2.762.648a4.442 4.442 0 0 1 1.814 1.842c.424.796.636 1.716.636 2.759zm-5.254 3.273c.848 0 1.533-.31 2.054-.927.521-.617.782-1.393.782-2.326 0-.974-.254-1.767-.761-2.377-.507-.61-1.185-.916-2.033-.916-.834 0-1.511.308-2.032.926-.522.618-.79 1.4-.803 2.347 0 .974.254 1.763.76 2.367.508.604 1.186.906 2.033.906zm11.467-8.522c1.028 0 1.925.216 2.69.648a4.363 4.363 0 0 1 1.76 1.842c.41.796.616 1.73.616 2.8 0 1.03-.209 1.938-.626 2.727a4.492 4.492 0 0 1-1.782 1.843c-.772.439-1.671.658-2.7.658-.611 0-1.258-.178-1.939-.535v4.55l-2.335.226v-14.492h1.23l.5.659a4.695 4.695 0 0 1 1.293-.69c.459-.157.89-.236 1.293-.236zm-.042 8.522c.834 0 1.49-.302 1.97-.906.48-.604.72-1.38.72-2.326 0-.988-.237-1.788-.71-2.398-.472-.61-1.132-.916-1.98-.916-.361 0-.698.055-1.011.164-.313.11-.622.275-.928.494v5.27c.57.412 1.216.618 1.94.618zm6.317 1.029l.709-1.606c.959.453 1.855.68 2.69.68.527 0 .979-.097 1.354-.289.375-.192.563-.453.563-.782 0-.604-.667-1.118-2.001-1.544-2.224-.713-3.336-1.729-3.336-3.046 0-.92.348-1.644 1.042-2.172.695-.528 1.64-.792 2.836-.792.472 0 1.039.089 1.699.267.66.179 1.213.419 1.657.72l-.73 1.565a9.87 9.87 0 0 0-1.344-.504 4.82 4.82 0 0 0-1.324-.175c-.43 0-.792.103-1.084.309-.292.205-.438.46-.438.761.014.233.18.446.5.638s.765.385 1.335.577c2.293.81 3.44 1.907 3.44 3.293 0 .975-.358 1.73-1.074 2.265-.716.535-1.748.802-3.096.802-.5 0-1.087-.085-1.762-.257-.674-.172-1.22-.408-1.636-.71zM17.388 101.575H15.13V95.73H9.387v5.846H7.13v-13.43l2.257-.099v5.906h5.744v-5.807h2.257v13.43zm11.487-4.858v.651h-6.772c.202 1.712 1.243 2.568 3.124 2.568.524 0 .991-.07 1.4-.208.41-.138.904-.352 1.482-.641l.685 1.62a6.293 6.293 0 0 1-3.607 1.105c-1.774 0-3.127-.45-4.061-1.353-.934-.902-1.4-2.13-1.4-3.683 0-1 .19-1.88.574-2.637a4.2 4.2 0 0 1 1.652-1.767c.72-.422 1.569-.632 2.55-.632 1.437 0 2.525.467 3.264 1.402.74.935 1.109 2.126 1.109 3.575zm-6.731-.83h4.554c-.12-.737-.37-1.297-.745-1.679-.377-.381-.88-.572-1.512-.572-.645 0-1.165.197-1.562.592-.396.395-.641.948-.735 1.66zm9.35-1.481l-.624-1.817c.35-.224.89-.421 1.622-.593.733-.17 1.327-.256 1.784-.256.752 0 1.44.151 2.066.454.624.303 1.118.714 1.48 1.234.363.52.545 1.103.545 1.748v6.4h-1.512l-.342-.969a4.795 4.795 0 0 1-1.29.87 3.43 3.43 0 0 1-1.451.335c-1.129 0-1.985-.276-2.57-.83-.584-.552-.876-1.29-.876-2.211 0-.962.332-1.705.997-2.232.665-.527 1.542-.79 2.63-.79h2.137c-.027-1.33-.618-1.995-1.774-1.995-.887 0-1.827.217-2.821.652zm.807 4.365c0 .342.127.641.383.898.255.257.604.385 1.048.385.416 0 .833-.098 1.25-.296a3.936 3.936 0 0 0 1.128-.81V97.23h-2.197c-.497 0-.89.148-1.179.444a1.51 1.51 0 0 0-.433 1.097zm10.782 2.804h-2.257V87.85l2.257-.217v13.943zm11.064-4.858v.651h-6.772c.202 1.712 1.243 2.568 3.124 2.568.524 0 .99-.07 1.4-.208.41-.138.904-.352 1.482-.641l.685 1.62a6.293 6.293 0 0 1-3.607 1.105c-1.774 0-3.127-.45-4.061-1.353-.934-.902-1.4-2.13-1.4-3.683 0-1 .19-1.88.574-2.637a4.2 4.2 0 0 1 1.652-1.767c.719-.422 1.569-.632 2.55-.632 1.437 0 2.525.467 3.264 1.402.74.935 1.109 2.126 1.109 3.575zm-6.731-.83h4.554c-.12-.737-.37-1.297-.746-1.679-.376-.381-.88-.572-1.511-.572-.645 0-1.166.197-1.562.592-.396.395-.641.948-.735 1.66zm9.35-1.481l-.624-1.817c.35-.224.89-.421 1.622-.593.732-.17 1.327-.256 1.784-.256.752 0 1.44.151 2.065.454.625.303 1.119.714 1.482 1.234.362.52.544 1.103.544 1.748v6.4h-1.512l-.342-.969a4.795 4.795 0 0 1-1.29.87 3.43 3.43 0 0 1-1.451.335c-1.129 0-1.985-.276-2.57-.83-.584-.552-.876-1.29-.876-2.211 0-.962.332-1.705.997-2.232.665-.527 1.542-.79 2.63-.79h2.136c-.026-1.33-.618-1.995-1.773-1.995-.887 0-1.827.217-2.821.652zm.807 4.365c0 .342.127.641.383.898.255.257.604.385 1.048.385.416 0 .832-.098 1.249-.296a3.936 3.936 0 0 0 1.129-.81V97.23h-2.197c-.497 0-.89.148-1.18.444a1.51 1.51 0 0 0-.432 1.097zm8.927-4.997h-1.49v-1.699h1.49v-1.007c0-1.04.306-1.86.917-2.459.612-.599 1.455-.898 2.53-.898.295 0 .62.049.977.148.356.099.628.22.816.365l-.625 1.66c-.43-.159-.765-.238-1.007-.238-.457 0-.793.152-1.008.454-.215.303-.322.718-.322 1.245v.73h1.813l.726 1.699h-2.54v7.801H66.5v-7.801z"/>
        </g>
        <path d="M139.66 115.918h-3.293V97.324h-22.1v18.594H111V77.131h3.267v17.422h22.1V77.131h3.294v38.787zm20.214.533c-2.443 0-4.653-.604-6.627-1.812-1.974-1.207-3.51-2.89-4.608-5.048-1.098-2.158-1.647-4.577-1.647-7.259v-1.146c0-2.77.535-5.265 1.607-7.485 1.071-2.22 2.563-3.965 4.475-5.235 1.913-1.27 3.985-1.905 6.216-1.905 3.488 0 6.255 1.195 8.3 3.583 2.046 2.39 3.068 5.652 3.068 9.79v1.785h-20.505v.613c0 3.268.934 5.99 2.802 8.165 1.868 2.175 4.219 3.263 7.052 3.263 1.7 0 3.2-.31 4.502-.932 1.302-.622 2.484-1.616 3.546-2.984l1.993 1.519c-2.338 3.392-5.729 5.088-10.174 5.088zm-.584-27.172c-2.39 0-4.405.879-6.043 2.637s-2.634 4.12-2.988 7.086h17.239v-.346c-.089-2.77-.877-5.026-2.364-6.767-1.488-1.74-3.436-2.61-5.844-2.61zm20.453-2.185l.106 4.689c1.062-1.74 2.39-3.046 3.984-3.916 1.594-.87 3.365-1.306 5.313-1.306 4.533 0 7.41 1.865 8.632 5.595 1.027-1.794 2.4-3.175 4.118-4.143 1.717-.968 3.612-1.452 5.684-1.452 6.162 0 9.305 3.375 9.43 10.123v19.234h-3.188V96.924c-.018-2.575-.571-4.484-1.66-5.727-1.09-1.243-2.864-1.865-5.326-1.865-2.284.035-4.214.777-5.79 2.224-1.576 1.448-2.453 3.21-2.63 5.288v19.074h-3.188V96.684c-.017-2.468-.597-4.31-1.74-5.527-1.142-1.217-2.9-1.825-5.272-1.825-2.001 0-3.719.573-5.153 1.718-1.434 1.146-2.497 2.846-3.187 5.102v19.766h-3.188V87.094h3.055zm68.424 14.705c0 4.493-.992 8.059-2.975 10.696-1.984 2.637-4.64 3.956-7.969 3.956-3.931 0-6.941-1.385-9.031-4.156V127h-3.16V87.094h2.948l.159 4.076c2.072-3.072 5.073-4.609 9.004-4.609 3.436 0 6.132 1.306 8.089 3.916 1.956 2.611 2.935 6.234 2.935 10.87v.452zm-3.188-.56c0-3.675-.752-6.58-2.258-8.71-1.505-2.131-3.603-3.197-6.295-3.197-1.948 0-3.621.47-5.02 1.412-1.399.941-2.47 2.309-3.214 4.102v13.826c.761 1.652 1.85 2.913 3.267 3.783 1.417.87 3.09 1.305 5.02 1.305 2.674 0 4.76-1.07 6.256-3.21 1.496-2.14 2.244-5.243 2.244-9.31zm52.78-2.61c0 3.57-.616 6.704-1.847 9.404-1.23 2.7-2.988 4.777-5.272 6.233-2.285 1.457-4.923 2.185-7.916 2.185-4.516 0-8.163-1.62-10.944-4.862-2.78-3.241-4.17-7.614-4.17-13.12v-3.996c0-3.534.624-6.664 1.873-9.39 1.248-2.726 3.015-4.822 5.299-6.287 2.284-1.465 4.914-2.198 7.889-2.198 2.975 0 5.6.72 7.876 2.158 2.275 1.439 4.033 3.472 5.272 6.1 1.24 2.629 1.886 5.675 1.94 9.138v4.635zm-3.268-4.209c0-4.67-1.054-8.33-3.16-10.975-2.108-2.647-4.995-3.97-8.66-3.97-3.595 0-6.46 1.328-8.593 3.983-2.134 2.655-3.2 6.362-3.2 11.122v4.05c0 4.599 1.062 8.244 3.187 10.935 2.125 2.69 5.011 4.035 8.659 4.035 3.701 0 6.587-1.327 8.66-3.982 2.071-2.655 3.107-6.354 3.107-11.095V94.42zm14.317 21.498h-3.187V87.094h3.187v28.824zm-3.745-37.162c0-.604.195-1.114.584-1.532.39-.417.92-.626 1.594-.626.673 0 1.208.209 1.607.626.398.418.597.928.597 1.532s-.199 1.11-.597 1.519c-.399.408-.934.612-1.607.612-.673 0-1.204-.204-1.594-.612-.39-.409-.584-.915-.584-1.519zM321 115.918h-3.187V75H321v40.918z"/>
    </g>
</svg>
