<svg xmlns="http://www.w3.org/2000/svg" width="478" height="189" viewBox="0 0 478 189">
    <g fill="#FFF" fill-rule="evenodd">
        <path d="M207.027 99c-8.14 0-15.486-1.797-22.037-5.39-6.55-3.594-11.687-8.54-15.408-14.838C165.86 72.473 164 65.382 164 57.5c0-7.883 1.86-14.973 5.582-21.272 3.721-6.298 8.877-11.244 15.466-14.838 6.59-3.593 13.955-5.39 22.095-5.39 6.358 0 12.172 1.063 17.444 3.188 5.272 2.125 9.768 5.274 13.49 9.447l-7.56 7.304c-6.124-6.415-13.76-9.622-22.908-9.622-6.047 0-11.513 1.352-16.397 4.057-4.884 2.705-8.703 6.434-11.455 11.187-2.752 4.753-4.128 10.066-4.128 15.939 0 5.873 1.376 11.186 4.128 15.94 2.752 4.752 6.57 8.48 11.455 11.186 4.884 2.705 10.35 4.057 16.397 4.057 9.07 0 16.707-3.246 22.909-9.737l7.558 7.303c-3.72 4.173-8.237 7.341-13.547 9.505-5.31 2.164-11.145 3.246-17.502 3.246zm102.451-43.007c4.73 1.314 8.45 3.69 11.164 7.13 2.714 3.438 4.07 7.785 4.07 13.04 0 7.033-2.655 12.443-7.966 16.23-5.31 3.786-13.043 5.68-23.2 5.68h-38.84V16.927h36.515c9.303 0 16.494 1.855 21.572 5.565 5.078 3.71 7.617 8.848 7.617 15.417 0 4.25-.989 7.922-2.966 11.013-1.977 3.091-4.632 5.448-7.966 7.071zm-43.143-29.676v25.967h23.84c5.969 0 10.562-1.102 13.78-3.304 3.217-2.203 4.826-5.43 4.826-9.68s-1.61-7.477-4.826-9.68c-3.218-2.202-7.811-3.303-13.78-3.303h-23.84zm26.746 62.366c6.59 0 11.552-1.082 14.886-3.246 3.333-2.164 5-5.564 5-10.201 0-9.042-6.628-13.563-19.886-13.563h-26.746v27.01h26.746zm49.656-71.756h34.306c8.605 0 16.241 1.7 22.909 5.1 6.667 3.401 11.842 8.173 15.524 14.317C419.16 42.488 421 49.54 421 57.5c0 7.96-1.841 15.012-5.524 21.156-3.682 6.144-8.857 10.916-15.524 14.316-6.668 3.4-14.304 5.1-22.91 5.1h-34.305V16.928zm33.608 71.06c6.59 0 12.385-1.275 17.385-3.825 5-2.55 8.857-6.125 11.57-10.723 2.714-4.598 4.071-9.911 4.071-15.939 0-6.028-1.357-11.341-4.07-15.94-2.714-4.597-6.57-8.172-11.57-10.722-5.001-2.55-10.796-3.825-17.386-3.825h-21.979v60.974h21.979z"/>
        <g fill-rule="nonzero">
            <path d="M57.477.057V0l.029.028.028-.028v.057c16.123 16.188 19.866 38.25 11.23 66.186 10.255-17.81 25.672-26.588 46.248-26.337-1.491 18.786-15.496 32.062-42.015 39.829 16.975 0 28.735 5.01 35.279 15.033-10.726 6.56-22.922 5.789-36.587-2.317 7.449 6.044 10.697 14.272 9.745 24.687-9.677-.346-17.653-7.56-23.928-21.645-6.275 14.084-14.251 21.299-23.928 21.645-.952-10.415 2.296-18.643 9.744-24.687-13.665 8.106-25.86 8.878-36.586 2.317 6.544-10.022 18.303-15.033 35.278-15.033C15.496 71.968 1.491 58.692 0 39.906c20.576-.251 35.992 8.528 46.248 26.337-8.637-27.936-4.894-49.998 11.23-66.186zm.08 91.53c5.805 0 10.51-4.724 10.51-10.553 0-3.886-3.503-9.88-10.51-17.984-7.007 8.103-10.51 14.098-10.51 17.984 0 5.829 4.706 10.554 10.51 10.554zm0-1.613c-2.297 0-4.16-1.855-4.16-4.142 0-2.288 1.863-4.143 4.16-4.143 2.298 0 4.16 1.855 4.16 4.143 0 2.287-1.862 4.142-4.16 4.142zM36.156 159.19v21.596h-1.892l-.744-1.225c-.64.51-1.328.909-2.062 1.195-.733.286-1.441.428-2.123.428-1.53 0-2.858-.326-3.984-.98a6.615 6.615 0 0 1-2.605-2.757c-.61-1.184-.914-2.563-.914-4.135 0-1.552.304-2.916.914-4.09a6.486 6.486 0 0 1 2.636-2.726c1.147-.644 2.485-.965 4.015-.965.475 0 1.002.086 1.58.26a7.19 7.19 0 0 1 1.675.75v-7.045l3.504-.306zM25.397 173.28c0 1.49.357 2.686 1.07 3.584.713.899 1.69 1.348 2.93 1.348.62 0 1.188-.097 1.705-.291.517-.194 1.033-.505 1.55-.934v-7.291c-.496-.429-1.002-.74-1.52-.934a4.91 4.91 0 0 0-1.735-.291c-1.24 0-2.217.449-2.93 1.347-.713.899-1.07 2.053-1.07 3.462zm18.138-1.96v9.465h-3.473V165.93h1.86l1.148 2.45a15.304 15.304 0 0 1 2.558-1.684c.96-.51 1.803-.766 2.526-.766l.713 2.757c-.744 0-1.612.255-2.604.766a13.128 13.128 0 0 0-2.728 1.868zm22.044 2.021c0 1.552-.32 2.92-.961 4.105a6.78 6.78 0 0 1-2.729 2.757c-1.178.654-2.552.98-4.123.98-1.571 0-2.935-.326-4.093-.98a6.756 6.756 0 0 1-2.682-2.741c-.63-1.175-.945-2.548-.945-4.12 0-1.553.315-2.916.945-4.09a6.704 6.704 0 0 1 2.713-2.742c1.178-.654 2.553-.98 4.124-.98 1.57 0 2.94.321 4.108.965a6.609 6.609 0 0 1 2.697 2.741c.63 1.185.946 2.553.946 4.105zm-7.813 4.871c1.26 0 2.279-.46 3.054-1.378.775-.92 1.162-2.073 1.162-3.462 0-1.45-.377-2.63-1.131-3.538-.755-.91-1.762-1.363-3.023-1.363-1.24 0-2.248.459-3.023 1.378-.775.92-1.173 2.083-1.194 3.492 0 1.45.377 2.625 1.132 3.523.754.899 1.762 1.348 3.023 1.348zm17.052-12.682c1.53 0 2.863.321 4 .965a6.49 6.49 0 0 1 2.62 2.741c.61 1.185.914 2.574.914 4.167 0 1.531-.31 2.884-.93 4.059a6.682 6.682 0 0 1-2.65 2.741c-1.148.654-2.486.98-4.016.98-.91 0-1.87-.265-2.883-.796v6.77l-3.473.337v-21.566h1.83l.744.98a6.98 6.98 0 0 1 1.922-1.026c.682-.235 1.323-.352 1.922-.352zm-.062 12.682c1.24 0 2.217-.45 2.93-1.348.713-.898 1.07-2.052 1.07-3.461 0-1.47-.352-2.66-1.054-3.57-.703-.908-1.685-1.362-2.946-1.362-.537 0-1.039.081-1.504.245a5.488 5.488 0 0 0-1.38.735v7.842c.848.613 1.81.919 2.884.919zm9.394 1.532l1.055-2.39c1.426.674 2.759 1.011 4 1.011.785 0 1.456-.143 2.014-.429.559-.286.838-.674.838-1.164 0-.898-.993-1.664-2.977-2.297-3.307-1.062-4.96-2.573-4.96-4.534 0-1.368.516-2.446 1.55-3.232 1.033-.786 2.439-1.18 4.216-1.18.703 0 1.545.133 2.527.399.982.265 1.804.623 2.465 1.072l-1.085 2.328a14.673 14.673 0 0 0-2-.75 7.163 7.163 0 0 0-1.969-.26c-.64 0-1.178.153-1.612.459-.434.306-.651.684-.651 1.133.02.347.269.664.744.95.475.286 1.137.572 1.984.858 3.41 1.205 5.116 2.838 5.116 4.901 0 1.45-.532 2.573-1.597 3.37-1.064.796-2.599 1.194-4.604 1.194-.744 0-1.617-.127-2.62-.382-1.002-.256-1.813-.608-2.434-1.057zM25.859 151.163h-3.357v-8.7H13.96v8.7h-3.357v-19.986l3.357-.147v8.788h8.542v-8.641h3.357v19.986zm17.083-7.23v.97h-10.07c.3 2.547 1.848 3.82 4.645 3.82.78 0 1.474-.102 2.083-.308.61-.206 1.344-.524 2.203-.955l1.02 2.41a9.354 9.354 0 0 1-5.366 1.646c-2.637 0-4.65-.671-6.039-2.014-1.388-1.342-2.083-3.17-2.083-5.481 0-1.49.285-2.797.854-3.924a6.25 6.25 0 0 1 2.458-2.63c1.069-.628 2.333-.941 3.791-.941 2.138 0 3.757.696 4.856 2.087 1.099 1.39 1.648 3.164 1.648 5.32zm-10.01-1.235h6.773c-.18-1.097-.55-1.93-1.109-2.498-.56-.568-1.308-.852-2.248-.852-.959 0-1.733.293-2.322.881-.59.588-.954 1.411-1.094 2.47zm13.906-2.204l-.929-2.704c.52-.333 1.324-.627 2.413-.882 1.089-.255 1.973-.382 2.652-.382 1.12 0 2.143.225 3.072.676.93.45 1.664 1.063 2.203 1.837.54.774.81 1.64.81 2.601v9.523H54.81l-.51-1.44a7.13 7.13 0 0 1-1.918 1.293c-.72.333-1.439.5-2.158.5-1.678 0-2.952-.412-3.821-1.235-.87-.823-1.304-1.92-1.304-3.292 0-1.43.494-2.537 1.484-3.32.989-.785 2.292-1.177 3.91-1.177h3.178c-.04-1.979-.92-2.968-2.638-2.968-1.318 0-2.717.323-4.196.97zm1.2 6.495c0 .51.189.956.569 1.338.38.382.899.573 1.558.573.62 0 1.239-.147 1.858-.441a5.854 5.854 0 0 0 1.679-1.205v-2.557h-3.267c-.74 0-1.324.22-1.753.661-.43.441-.645.985-.645 1.631zm16.034 4.174h-3.357v-20.427l3.357-.324v20.75zm16.454-7.23v.97h-10.07c.3 2.547 1.848 3.82 4.645 3.82.78 0 1.474-.102 2.083-.308.61-.206 1.344-.524 2.203-.955l1.019 2.41a9.354 9.354 0 0 1-5.365 1.646c-2.637 0-4.65-.671-6.04-2.014-1.388-1.342-2.082-3.17-2.082-5.481 0-1.49.285-2.797.854-3.924a6.25 6.25 0 0 1 2.458-2.63c1.069-.628 2.332-.941 3.791-.941 2.138 0 3.756.696 4.855 2.087 1.1 1.39 1.649 3.164 1.649 5.32zm-10.01-1.235h6.773c-.18-1.097-.55-1.93-1.109-2.498-.56-.568-1.309-.852-2.248-.852-.959 0-1.733.293-2.323.881-.59.588-.954 1.411-1.094 2.47zm13.906-2.204l-.93-2.704c.52-.333 1.325-.627 2.414-.882 1.089-.255 1.973-.382 2.652-.382 1.119 0 2.143.225 3.072.676.93.45 1.663 1.063 2.203 1.837.54.774.81 1.64.81 2.601v9.523h-2.249l-.51-1.44a7.13 7.13 0 0 1-1.917 1.293c-.72.333-1.439.5-2.158.5-1.679 0-2.952-.412-3.822-1.235-.869-.823-1.303-1.92-1.303-3.292 0-1.43.494-2.537 1.483-3.32.99-.785 2.293-1.177 3.911-1.177h3.177c-.04-1.979-.919-2.968-2.637-2.968-1.319 0-2.717.323-4.196.97zm1.199 6.495c0 .51.19.956.57 1.338.379.382.898.573 1.558.573.62 0 1.239-.147 1.858-.441a5.854 5.854 0 0 0 1.678-1.205v-2.557H88.02c-.74 0-1.324.22-1.754.661-.43.441-.644.985-.644 1.631zm13.277-7.436H96.68v-2.527h2.218v-1.5c0-1.547.455-2.767 1.364-3.659.909-.891 2.163-1.337 3.761-1.337.44 0 .924.074 1.454.22.53.147.934.329 1.214.544l-.93 2.47c-.639-.236-1.138-.354-1.498-.354-.68 0-1.179.226-1.499.676-.32.451-.48 1.068-.48 1.852v1.088h2.698l1.08 2.527h-3.777v11.61h-3.387v-11.61z"/>
        </g>
        <path d="M207.718 172.59h-4.91v-27.534H169.87v27.534H165v-57.434h4.87v25.798h32.939v-25.798h4.909v57.434zm30.128.79c-3.642 0-6.935-.895-9.878-2.683-2.943-1.789-5.232-4.28-6.869-7.475-1.636-3.196-2.454-6.779-2.454-10.75v-1.696c0-4.102.798-7.797 2.395-11.084 1.597-3.288 3.82-5.871 6.67-7.752 2.851-1.88 5.94-2.82 9.265-2.82 5.2 0 9.323 1.768 12.372 5.305 3.048 3.538 4.573 8.37 4.573 14.497v2.643h-30.564v.907c0 4.84 1.392 8.87 4.177 12.09 2.784 3.222 6.288 4.833 10.51 4.833 2.535 0 4.771-.46 6.711-1.38 1.94-.921 3.702-2.394 5.286-4.419l2.969 2.249c-3.484 5.023-8.538 7.534-15.163 7.534zm-.871-40.237c-3.563 0-6.565 1.302-9.007 3.906-2.441 2.603-3.926 6.1-4.454 10.492h25.694v-.512c-.132-4.103-1.306-7.443-3.523-10.02s-5.12-3.866-8.71-3.866zm30.484-3.234l.159 6.942c1.583-2.577 3.563-4.51 5.938-5.798 2.376-1.289 5.015-1.933 7.918-1.933 6.757 0 11.046 2.761 12.867 8.284 1.531-2.656 3.576-4.701 6.137-6.134 2.56-1.434 5.384-2.15 8.472-2.15 9.185 0 13.87 4.996 14.054 14.99v28.48h-4.75v-28.125c-.027-3.814-.852-6.64-2.475-8.481-1.623-1.841-4.269-2.762-7.938-2.762-3.404.053-6.281 1.15-8.63 3.294-2.35 2.143-3.656 4.753-3.92 7.83v28.244h-4.75v-28.48c-.027-3.656-.891-6.384-2.594-8.186-1.702-1.801-4.322-2.702-7.858-2.702-2.983 0-5.543.848-7.68 2.545-2.139 1.696-3.722 4.214-4.752 7.554v29.27h-4.75v-42.682h4.552zm101.985 21.774c0 6.654-1.478 11.933-4.434 15.838-2.956 3.906-6.915 5.858-11.877 5.858-5.86 0-10.347-2.051-13.461-6.154V189h-4.711v-59.091h4.394l.238 6.035c3.088-4.55 7.561-6.824 13.42-6.824 5.121 0 9.14 1.933 12.056 5.799 2.916 3.865 4.375 9.23 4.375 16.094v.67zm-4.751-.828c0-5.444-1.122-9.743-3.365-12.9-2.244-3.155-5.371-4.733-9.383-4.733-2.903 0-5.398.697-7.483 2.091-2.085 1.394-3.682 3.419-4.79 6.075v20.473c1.135 2.445 2.758 4.312 4.87 5.601 2.111 1.289 4.605 1.933 7.482 1.933 3.985 0 7.093-1.584 9.324-4.753 2.23-3.17 3.345-7.765 3.345-13.787zm78.666-3.866c0 5.286-.918 9.928-2.752 13.925-1.834 3.997-4.454 7.074-7.859 9.23-3.404 2.157-7.337 3.235-11.797 3.235-6.73 0-12.168-2.4-16.312-7.199-4.143-4.8-6.215-11.275-6.215-19.427v-5.917c0-5.234.93-9.869 2.79-13.905 1.862-4.037 4.494-7.14 7.9-9.31 3.404-2.17 7.323-3.254 11.757-3.254 4.434 0 8.347 1.065 11.739 3.195 3.391 2.13 6.011 5.141 7.859 9.033 1.847 3.892 2.81 8.402 2.89 13.53v6.864zm-4.87-6.232c0-6.917-1.57-12.334-4.711-16.252-3.141-3.919-7.443-5.878-12.907-5.878-5.358 0-9.627 1.966-12.807 5.897-3.18 3.932-4.77 9.421-4.77 16.47v5.995c0 6.811 1.583 12.209 4.75 16.193 3.167 3.984 7.47 5.976 12.907 5.976 5.516 0 9.818-1.965 12.906-5.897 3.088-3.932 4.632-9.408 4.632-16.43v-6.074zm21.34 31.833h-4.752V129.91h4.751v42.681zm-5.583-55.028c0-.894.29-1.65.87-2.268.582-.618 1.373-.927 2.376-.927s1.802.309 2.395.927c.594.618.891 1.374.891 2.268 0 .894-.297 1.644-.89 2.248-.594.605-1.393.908-2.396.908s-1.794-.303-2.375-.908c-.58-.604-.871-1.354-.871-2.248zM478 172.59h-4.75V112H478v60.59z"/>
    </g>
</svg>
