<svg xmlns="http://www.w3.org/2000/svg" width="466" height="129" viewBox="0 0 466 129">
    <path fill="#4A306D" fill-rule="evenodd" d="M99.158 126.716h-21.72L21.72 38.032v88.684H0V1.717h21.72l55.89 89.028V1.717h21.548v125zm98.729-55.803h-51.34v38.461h60.01v17.342h-81.73V1.717h81.13v17.514h-59.41v34.512h51.34v17.17zM322.285 95.81l19.23-94.093h21.55l-28.847 125h-20.775l-23.781-91.26-24.296 91.26h-20.862l-28.846-125h21.549l19.402 93.921 23.867-93.921h18.2l23.61 94.093zm121.995-1.288c0-5.494-1.932-9.73-5.795-12.706-3.864-2.976-10.832-5.98-20.905-9.014-10.073-3.034-18.086-6.41-24.038-10.13-11.39-7.155-17.085-16.484-17.085-27.988 0-10.073 4.107-18.372 12.32-24.897C396.99 3.262 407.65 0 420.757 0c8.7 0 16.454 1.603 23.265 4.808s12.162 7.77 16.054 13.693c3.892 5.924 5.838 12.491 5.838 19.703H444.28c0-6.525-2.046-11.633-6.139-15.325-4.092-3.691-9.944-5.537-17.556-5.537-7.097 0-12.606 1.517-16.527 4.55-3.92 3.033-5.88 7.269-5.88 12.706 0 4.579 2.117 8.4 6.353 11.461 4.235 3.062 11.217 6.038 20.947 8.929 9.73 2.89 17.542 6.18 23.438 9.873 5.895 3.691 10.216 7.926 12.963 12.706C464.626 82.346 466 87.94 466 94.35c0 10.417-3.992 18.702-11.976 24.854-7.984 6.153-18.816 9.23-32.495 9.23-9.043 0-17.356-1.675-24.94-5.023-7.583-3.348-13.478-7.97-17.685-13.865-4.207-5.895-6.31-12.763-6.31-20.604h21.72c0 7.097 2.347 12.591 7.04 16.483 4.693 3.892 11.418 5.838 20.175 5.838 7.555 0 13.235-1.53 17.042-4.593 3.806-3.062 5.709-7.111 5.709-12.148z"/>
</svg>
