<svg xmlns="http://www.w3.org/2000/svg" width="1184" height="482" viewBox="0 0 1184 482">
    <g fill="#79A60B" fill-rule="evenodd">
        <circle cx="115" cy="420" r="49" opacity=".7"/>
        <circle cx="291" cy="246" r="49" opacity=".7"/>
        <circle cx="338" cy="209" r="49" opacity=".7"/>
        <circle cx="230" cy="39" r="39" fill-opacity=".5"/>
        <circle cx="883.5" cy="379.5" r="67.5" fill-opacity=".3"/>
        <circle cx="975" cy="302" r="29"/>
        <circle cx="1155" cy="409" r="29"/>
        <circle cx="771" cy="258" r="29"/>
        <circle cx="1060" cy="223" r="14" opacity=".85"/>
        <circle cx="771.5" cy="151.5" r="12.5" opacity=".85"/>
        <circle cx="801" cy="378" r="14" fill-opacity=".7"/>
        <circle cx="620" cy="468" r="14" fill-opacity=".7"/>
        <circle cx="33" cy="335" r="14" fill-opacity=".7"/>
        <circle cx="1150" cy="326" r="9" opacity=".65"/>
        <circle cx="400" cy="463" r="9" opacity=".65"/>
        <circle cx="242" cy="148" r="9" opacity=".65"/>
        <circle cx="125" cy="225" r="24" opacity=".85"/>
        <circle cx="374" cy="345" r="19" opacity=".85"/>
        <circle cx="19" cy="390" r="19" opacity=".85"/>
        <circle cx="256" cy="211" r="14" opacity=".85"/>
        <circle cx="641" cy="98" r="14" opacity=".85"/>
    </g>
</svg>
