<svg xmlns="http://www.w3.org/2000/svg" width="70" height="70" viewBox="0 0 70 70">
    <g fill="none" fill-rule="evenodd">
        <circle cx="35" cy="35" r="35" fill="#668B0A"/>
        <g fill="#79A50B" fill-rule="nonzero">
            <path d="M34.844 14c-.3 0-.544.239-.544.533v40.934a.54.54 0 0 0 .544.533c.3 0 .543-.24.543-.533v-5.338a16.1 16.1 0 0 0 10.504-4.332l4.033 3.959a.549.549 0 0 0 .385.155.558.558 0 0 0 .385-.155.527.527 0 0 0 0-.754l-4.046-3.97c2.503-2.679 4.068-6.198 4.202-10.076h6.006a.54.54 0 0 0 .544-.534.54.54 0 0 0-.544-.533h-6.005c-.131-3.822-1.653-7.294-4.09-9.956l4.332-4.253a.527.527 0 0 0 0-.754.55.55 0 0 0-.768 0l-4.311 4.232a16.118 16.118 0 0 0-10.627-4.441v-4.185a.538.538 0 0 0-.543-.532zM32.114 21.24a.498.498 0 0 0-.61-.203c-.458.187-11.204 4.684-11.204 13.612 0 8.915 9.748 13.418 10.164 13.605.064.03.134.044.201.044h.012c.28.025.52-.238.52-.539a.553.553 0 0 0-.163-.395c-8.647-14.425.626-25.007 1.027-25.452a.567.567 0 0 0 .053-.673zM18.2 43.05c0 .964.785 1.75 1.75 1.75s1.75-.786 1.75-1.75c0-.965-.785-1.75-1.75-1.75s-1.75.785-1.75 1.75zm2.567 0c0 .45-.367.817-.817.817a.818.818 0 0 1-.817-.817.818.818 0 0 1 1.633 0zM20.3 50.4c0 1.93 1.57 3.5 3.5 3.5s3.5-1.57 3.5-3.5-1.57-3.5-3.5-3.5-3.5 1.57-3.5 3.5zm5.943 0a2.447 2.447 0 0 1-2.444 2.443 2.447 2.447 0 0 1-2.443-2.444 2.446 2.446 0 0 1 2.443-2.442 2.446 2.446 0 0 1 2.444 2.442zM16.1 49.7a1.401 1.401 0 1 0-1.4 1.4c.772 0 1.4-.628 1.4-1.4zm-1.938 0a.538.538 0 1 1 1.076 0 .538.538 0 0 1-1.076 0z"/>
        </g>
    </g>
</svg>
