<svg xmlns="http://www.w3.org/2000/svg" width="70" height="70" viewBox="0 0 70 70">
    <g fill="none" fill-rule="evenodd">
        <circle cx="35" cy="35" r="35" fill="#668B0A"/>
        <path fill="#79A50B" d="M22.32 45.853c-1.705 0-3.224-.422-4.557-1.264-1.333-.843-2.376-2.063-3.13-3.66-.756-1.598-1.133-3.504-1.133-5.719 0-2.215.377-4.12 1.132-5.718.755-1.598 1.798-2.818 3.131-3.66 1.333-.843 2.852-1.265 4.557-1.265 1.705 0 3.224.422 4.557 1.264 1.333.843 2.377 2.063 3.131 3.66.755 1.598 1.132 3.504 1.132 5.719 0 2.215-.377 4.12-1.132 5.718-.754 1.598-1.798 2.818-3.13 3.66-1.334.843-2.853 1.265-4.558 1.265zm0-4.028c1.255 0 2.24-.539 2.955-1.617.715-1.078 1.073-2.744 1.073-4.998s-.358-3.92-1.073-4.998c-.716-1.078-1.7-1.617-2.955-1.617-1.235 0-2.21.539-2.925 1.617-.716 1.078-1.073 2.744-1.073 4.998s.357 3.92 1.073 4.998c.715 1.078 1.69 1.617 2.925 1.617zm15.906-5.792c-1.51 0-2.74-.514-3.69-1.543-.95-1.03-1.426-2.406-1.426-4.131s.475-3.102 1.426-4.13c.95-1.03 2.18-1.544 3.69-1.544 1.509 0 2.734.514 3.675 1.543.94 1.03 1.41 2.406 1.41 4.131s-.47 3.102-1.41 4.13c-.941 1.03-2.166 1.544-3.675 1.544zm12.26-11.113h3.498L39.931 45.5h-3.499l14.053-20.58zm-12.26 8.702c.666 0 1.19-.274 1.572-.823.383-.549.574-1.362.574-2.44 0-1.078-.191-1.891-.574-2.44-.382-.549-.906-.823-1.572-.823-.647 0-1.167.279-1.559.837-.392.56-.588 1.368-.588 2.426s.196 1.867.588 2.425c.392.56.912.838 1.559.838zM52.19 45.735c-.98 0-1.857-.23-2.632-.69-.774-.461-1.377-1.123-1.808-1.985-.431-.863-.647-1.862-.647-2.999s.216-2.136.647-2.999c.431-.862 1.034-1.524 1.808-1.984.775-.46 1.652-.691 2.632-.691 1.509 0 2.739.514 3.69 1.543.95 1.03 1.425 2.406 1.425 4.131s-.475 3.102-1.426 4.13c-.95 1.03-2.18 1.544-3.69 1.544zm0-2.41c.666 0 1.19-.28 1.572-.839.383-.558.574-1.367.574-2.425 0-1.058-.191-1.867-.574-2.425-.382-.56-.906-.838-1.572-.838-.647 0-1.167.274-1.559.823-.392.549-.588 1.362-.588 2.44 0 1.078.196 1.891.588 2.44.392.549.912.823 1.559.823z"/>
    </g>
</svg>
