<svg xmlns="http://www.w3.org/2000/svg" width="70" height="70" viewBox="0 0 70 70">
    <g fill="none" fill-rule="evenodd">
        <circle cx="35" cy="35" r="35" fill="#668B0A"/>
        <path fill="#79A50B" fill-rule="nonzero" d="M56.7 35.024l-3.714-4.844.83-6.018-5.669-2.25-2.248-5.676-6.012.832L35 13.3l-4.839 3.719-6.011-.832-2.248 5.676-5.67 2.25.831 6.019-3.763 4.892 3.714 4.844-.83 6.019 5.669 2.25 2.248 5.676 6.012-.832L34.95 56.7l4.839-3.719 6.011.832 2.248-5.676 5.67-2.3-.831-6.017 3.812-4.796zM33.24 42.07l-7.233-5.97 1.564-1.907 5.376 4.403 9.189-10.617 1.857 1.614L33.24 42.07z"/>
    </g>
</svg>
