<?xml version="1.0" encoding="UTF-8"?>
<svg width="53px" height="40px" viewBox="0 0 53 40" version="1.1" xmlns="http://www.w3.org/2000/svg" xmlns:xlink="http://www.w3.org/1999/xlink">
    <!-- Generator: sketchtool 49 (51002) - http://www.bohemiancoding.com/sketch -->
    <title>87FD27EF-2174-43B5-B0F1-B3781C931588</title>
    <desc>Created with sketchtool.</desc>
    <defs></defs>
    <g id="Page-1" stroke="none" stroke-width="1" fill="none" fill-rule="evenodd">
        <g id="Heleaf-drops-(2)(shop-now)-(v0.2)" transform="translate(-1100.000000, -130.000000)">
            <g id="body" transform="translate(0.000000, 88.000000)">
                <g id="main-block">
                    <g id="header" transform="translate(865.000000, 35.000000)">
                        <g id="cart" transform="translate(235.000000, 7.000000)">
                            <g id="online-shopping-cart" fill="#FFFFFF" fill-rule="nonzero">
                                <path d="M1.59076332,3.31428571 L6.1509203,3.31428571 L12.6465684,27.7847294 C12.8321262,28.5028571 13.4684316,29 14.1842751,29 L34.1483547,29 C34.78466,29 35.3414272,28.6133008 35.6065232,28.0057143 L42.8709778,10.6057143 C43.0831108,10.0809849 43.0300542,9.50098487 42.738383,9.03142857 C42.4467119,8.56187227 41.9430014,8.28571429 41.4127157,8.28571429 L19.3542558,8.28571429 C18.479336,8.28571429 17.7634925,9.03142857 17.7634925,9.94285714 C17.7634925,10.8542857 18.479336,11.6 19.3542558,11.6 L38.9737013,11.6 L33.087877,25.6857143 L15.3773475,25.6857143 L8.88179305,1.21527059 C8.69623518,0.497142857 8.05992986,0 7.34408636,0 L1.59076332,0 C0.715843493,0 0,0.745714286 0,1.65714286 C0,2.56857143 0.715843493,3.31428571 1.59076332,3.31428571 Z" id="Shape"></path>
                                <path d="M13,40 C15.2059014,40 17,38.2059014 17,36 C17,33.7940986 15.2059014,32 13,32 C10.7940986,32 9,33.7939948 9,35.9998962 C9,38.2057976 10.7940986,40 13,40 Z" id="Shape"></path>
                                <path d="M35.9864571,40 C36.0748418,40 36.1926534,40 36.2810381,40 C37.3416541,39.9118641 38.3138856,39.4418405 39.0209629,38.6191697 C39.7280403,37.8259466 40.0521521,36.7976599 39.9931944,35.7106851 C39.8458519,33.5366317 37.93092,31.8620496 35.7213031,32.0089774 C33.5116863,32.1559051 31.8618044,34.0948948 32.0091468,36.2688445 C32.1563853,38.354762 33.8946519,40 35.9864571,40 Z" id="Shape"></path>
                            </g>
                            <g id="0" transform="translate(33.000000, 0.000000)">
                                <circle id="Oval" fill="#FFFFFF" cx="10" cy="10" r="10"></circle>
                                <text font-family="Roboto-Regular, Roboto" font-size="14" font-weight="normal" fill="#6C6C6C">
                                    <tspan x="6.06933594" y="15">0</tspan>
                                </text>
                            </g>
                        </g>
                    </g>
                </g>
            </g>
        </g>
    </g>
</svg>