<?xml version="1.0" encoding="UTF-8"?>
<svg width="36px" height="36px" viewBox="0 0 36 36" version="1.1" xmlns="http://www.w3.org/2000/svg" xmlns:xlink="http://www.w3.org/1999/xlink">
    <!-- Generator: sketchtool 49.3 (51167) - http://www.bohemiancoding.com/sketch -->
    <title>98B5C7B0-6C6A-4A6A-B47E-9F3AA2108BFA</title>
    <desc>Created with sketchtool.</desc>
    <defs></defs>
    <g id="Page-1" stroke="none" stroke-width="1" fill="none" fill-rule="evenodd">
        <g id="Healeaf-drops-(2)-Style-Guide" transform="translate(-1206.000000, -855.000000)" fill="#FFFFFF" fill-rule="nonzero" stroke="#FFFFFF">
            <g id="Group-4" transform="translate(0.000000, 723.000000)">
                <g id="header" transform="translate(112.000000, 123.000000)">
                    <g id="close" transform="translate(1095.000000, 10.000000)">
                        <path d="M20.0069208,17.0003544 L33.3769986,3.62971919 C34.2076671,2.79972482 34.2076671,1.45302174 33.3769986,0.623027372 C32.5463301,-0.207675791 31.2011007,-0.207675791 30.3704321,0.623027372 L17.0003544,13.9936626 L3.62956786,0.623027372 C2.79889934,-0.207675791 1.45366993,-0.207675791 0.623001397,0.623027372 C-0.207667132,1.45302174 -0.207667132,2.79972482 0.623001397,3.62971919 L13.9937879,17.0003544 L0.623001397,30.3709896 C-0.207667132,31.200984 -0.207667132,32.547687 0.623001397,33.3776814 C1.03833566,33.7923242 1.58266453,34 2.12628463,34 C2.66990473,34 3.2142336,33.7923242 3.62956786,33.3769726 L17.0003544,20.0063374 L30.3704321,33.3769726 C30.7857664,33.7923242 31.3300953,34 31.8737154,34 C32.4173355,34 32.9616643,33.7923242 33.3769986,33.3769726 C34.2076671,32.5469783 34.2076671,31.2002752 33.3769986,30.3702808 L20.0069208,17.0003544 Z" id="Shape"></path>
                    </g>
                </g>
            </g>
        </g>
    </g>
</svg>