<?xml version="1.0" encoding="UTF-8"?>
<svg width="16px" height="16px" viewBox="0 0 16 16" version="1.1" xmlns="http://www.w3.org/2000/svg" xmlns:xlink="http://www.w3.org/1999/xlink">
    <!-- Generator: sketchtool 49.3 (51167) - http://www.bohemiancoding.com/sketch -->
    <title>E6BF1C22-DA94-443C-A2F2-15398181FA44</title>
    <desc>Created with sketchtool.</desc>
    <defs>
        <rect id="path-1" x="0" y="0" width="16" height="16"></rect>
    </defs>
    <g id="Page-1" stroke="none" stroke-width="1" fill="none" fill-rule="evenodd">
        <g id="Healeaf-drops-(2)-Style-Guide" transform="translate(-121.000000, -2675.000000)">
            <g id="Favicon" transform="translate(121.000000, 2675.000000)">
                <g id="16">
                    <g>
                        <g>
                            <mask id="mask-2" fill="white">
                                <use xlink:href="#path-1"></use>
                            </mask>
                            <use id="Rectangle" fill-opacity="0.949999988" fill="#4A306D" xlink:href="#path-1"></use>
                            <path d="M7.99159477,0.906835053 L7.99160099,0.899999976 C7.99273469,0.901137266 7.99386784,0.902274798 7.99500048,0.903412572 C7.99613252,0.902274497 7.99726552,0.901137116 7.99839902,0.899999976 L7.99840524,0.906835053 C9.93157846,2.85133779 10.3803636,5.50142608 9.34476069,8.8570999 C10.5745009,6.71783507 12.422914,5.66331903 14.89,5.69355186 C14.7112196,7.95006303 13.032041,9.54478659 9.85246417,10.4777225 C11.887784,10.4777225 13.2977502,11.0796413 14.0823627,12.283479 C12.7963369,13.0716346 11.3340832,12.978899 9.69560157,12.005272 C10.58867,12.7311714 10.9781372,13.7196034 10.8640033,14.970568 C9.70371278,14.9290418 8.74737835,14.0624057 7.99500003,12.3706596 C7.24262156,14.0624058 6.28628718,14.9290418 5.12599678,14.970568 C5.0118628,13.7196034 5.40133003,12.7311714 6.29439849,12.005272 C4.65591689,12.978899 3.19366315,13.0716346 1.90763729,12.283479 C2.69224981,11.0796413 4.10221601,10.4777225 6.13753589,10.4777225 C2.95795903,9.54478659 1.27878041,7.95006303 1.10000002,5.69355186 C3.567086,5.66331903 5.41549911,6.71783507 6.64523937,8.8570999 C5.60963645,5.50142608 6.05842158,2.85133779 7.99159477,0.906835053 Z M8.00117294,11.9015332 C8.69717003,11.9015332 9.26138714,11.3339455 9.26138714,10.6337907 C9.26138714,10.1670208 8.84131571,9.44693027 8.00117294,8.47351923 C7.16103017,9.44693027 6.74095874,10.1670208 6.74095874,10.6337907 C6.74095874,11.3339455 7.30517585,11.9015332 8.00117294,11.9015332 Z M8.00117294,11.7076716 C7.72572632,11.7076716 7.50243271,11.4849021 7.50243271,11.2101021 C7.50243271,10.9353021 7.72572632,10.7125326 8.00117294,10.7125326 C8.27661956,10.7125326 8.49991317,10.9353021 8.49991317,11.2101021 C8.49991317,11.4849021 8.27661956,11.7076716 8.00117294,11.7076716 Z" id="Combined-Shape" fill="#FFFFFF" fill-rule="nonzero" mask="url(#mask-2)"></path>
                        </g>
                    </g>
                </g>
            </g>
        </g>
    </g>
</svg>