<?xml version="1.0" encoding="UTF-8"?>
<svg width="72px" height="73px" viewBox="0 0 72 73" version="1.1" xmlns="http://www.w3.org/2000/svg" xmlns:xlink="http://www.w3.org/1999/xlink">
    <!-- Generator: sketchtool 49.3 (51167) - http://www.bohemiancoding.com/sketch -->
    <title>8CAC9934-E4E2-4127-A91E-AA42EA168BE1</title>
    <desc>Created with sketchtool.</desc>
    <defs>
        <filter x="-0.9%" y="-5.6%" width="101.9%" height="115.6%" filterUnits="objectBoundingBox" id="filter-1">
            <feOffset dx="0" dy="2" in="SourceAlpha" result="shadowOffsetOuter1"></feOffset>
            <feGaussianBlur stdDeviation="2" in="shadowOffsetOuter1" result="shadowBlurOuter1"></feGaussianBlur>
            <feColorMatrix values="0 0 0 0 0   0 0 0 0 0   0 0 0 0 0  0 0 0 0.144050045 0" type="matrix" in="shadowBlurOuter1" result="shadowMatrixOuter1"></feColorMatrix>
            <feMerge>
                <feMergeNode in="shadowMatrixOuter1"></feMergeNode>
                <feMergeNode in="SourceGraphic"></feMergeNode>
            </feMerge>
        </filter>
    </defs>
    <g id="Page-1" stroke="none" stroke-width="1" fill="none" fill-rule="evenodd">
        <g id="Heleaf-drops-(2)-(v0.4)" transform="translate(-1077.000000, -6820.000000)" fill="#FFFFFF" fill-rule="nonzero">
            <g id="footer" transform="translate(0.000000, 6465.000000)">
                <g id="Group-35" transform="translate(112.000000, 0.000000)">
                    <g id="Group-31" transform="translate(380.000000, 280.000000)">
                        <g id="Group-30" filter="url(#filter-1)" transform="translate(4.000000, 64.000000)">
                            <path d="M616.774367,13.031435 L616.774395,13 C616.779622,13.0052305 616.784847,13.0104621 616.790069,13.0156948 C616.795289,13.0104607 616.800512,13.0052298 616.805738,13 L616.805767,13.031435 C625.71885,21.9743327 627.788017,34.1622655 623.01327,49.5952331 C628.683106,39.7566115 637.205394,34.9068219 648.580134,35.0458647 C647.75585,45.4237101 640.013834,52.7579501 625.354086,57.0485845 C634.738126,57.0485845 641.238912,59.8168494 644.856444,65.353379 C638.927097,68.9781595 632.185234,68.551662 624.630856,64.0738867 C628.748434,67.4123464 630.544111,71.9582111 630.017885,77.7114805 C624.668253,77.520499 620.25898,73.5347816 616.790067,65.7543283 C613.321153,73.5347821 608.911881,77.520499 603.562249,77.7114805 C603.036023,71.9582111 604.8317,67.4123464 608.949279,64.0738867 C601.3949,68.551662 594.653037,68.9781595 588.72369,65.353379 C592.341222,59.8168494 598.842008,57.0485845 608.226048,57.0485845 C593.5663,52.7579501 585.824284,45.4237101 585,35.0458647 C596.374739,34.9068219 604.897028,39.7566115 610.566864,49.5952331 C605.792117,34.1622655 607.861284,21.9743327 616.774367,13.031435 Z M616.818528,63.5967848 C620.02749,63.5967848 622.628868,60.9864114 622.628868,57.7663524 C622.628868,55.6196465 620.692088,52.3079023 616.818528,47.83112 C612.944968,52.3079023 611.008188,55.6196465 611.008188,57.7663524 C611.008188,60.9864114 613.609566,63.5967848 616.818528,63.5967848 Z M616.818528,62.7052023 C615.548554,62.7052023 614.519038,61.6806708 614.519038,60.4168472 C614.519038,59.1530235 615.548554,58.128492 616.818528,58.128492 C618.088501,58.128492 619.118018,59.1530235 619.118018,60.4168472 C619.118018,61.6806708 618.088501,62.7052023 616.818528,62.7052023 Z" id="Combined-Shape"></path>
                        </g>
                    </g>
                </g>
            </g>
        </g>
    </g>
</svg>