<?xml version="1.0" encoding="UTF-8"?>
<svg width="7px" height="13px" viewBox="0 0 7 13" version="1.1" xmlns="http://www.w3.org/2000/svg" xmlns:xlink="http://www.w3.org/1999/xlink">
    <!-- Generator: sketchtool 49.3 (51167) - http://www.bohemiancoding.com/sketch -->
    <title>AF840020-6018-44D4-B5FA-704A23B1D14E</title>
    <desc>Created with sketchtool.</desc>
    <defs></defs>
    <g id="Page-1" stroke="none" stroke-width="1" fill="none" fill-rule="evenodd">
        <g id="Heleaf-drops-(2)(shop-now)-(v0.2)" transform="translate(-182.000000, -367.000000)" fill="#79A50B" fill-rule="nonzero">
            <g id="body" transform="translate(0.000000, 88.000000)">
                <g id="main-block">
                    <g id="men" transform="translate(0.000000, 228.000000)">
                        <g id="back" transform="translate(185.500000, 57.500000) scale(-1, 1) translate(-185.500000, -57.500000) translate(182.000000, 51.000000)">
                            <path d="M0.907098949,6.49965945 L6.88964902,0.628647771 C7.03678366,0.4842563 7.03678366,0.252685074 6.88964902,0.108293603 C6.74251438,-0.0360978677 6.50654372,-0.0360978677 6.35940908,0.108293603 L0.110350982,6.24084455 C-0.0367836605,6.38523602 -0.0367836605,6.61680725 0.110350982,6.76119872 L6.35940908,12.8910253 C6.43158834,12.9618589 6.52875273,13 6.62314099,13 C6.71752925,13 6.81469363,12.9645832 6.88687289,12.8910253 C7.03400754,12.7466338 7.03400754,12.5150626 6.88687289,12.3706711 L0.907098949,6.49965945 Z" id="Shape"></path>
                        </g>
                    </g>
                </g>
            </g>
        </g>
    </g>
</svg>