<?xml version="1.0" encoding="UTF-8"?>
<svg width="78px" height="126px" viewBox="0 0 78 126" version="1.1" xmlns="http://www.w3.org/2000/svg" xmlns:xlink="http://www.w3.org/1999/xlink">
    <!-- Generator: sketchtool 49 (51002) - http://www.bohemiancoding.com/sketch -->
    <title>CBE3CB83-9C6C-4227-8166-274399B0EB47</title>
    <desc>Created with sketchtool.</desc>
    <defs></defs>
    <g id="Page-1" stroke="none" stroke-width="1" fill="none" fill-rule="evenodd">
        <g id="Heleaf-drops-(2)(shop-now)-(v0.2)" transform="translate(-641.000000, -4272.000000)" fill="#FFFFFF" fill-rule="nonzero">
            <g id="footer" transform="translate(0.000000, 3702.000000)">
                <g id="Group-36" transform="translate(304.000000, 570.000000)">
                    <g id="Group-12" transform="translate(337.000000, 0.000000)">
                        <g id="Group-Copy">
                            <path d="M38.6485895,0.0382357727 L38.6486244,0 C38.6549823,0.00636206014 38.6613371,0.0127254728 38.667689,0.0190902379 C38.6740376,0.0127237884 38.6803916,0.00636121811 38.6867483,0 L38.6867832,0.0382357727 C49.5281662,10.915884 52.0449875,25.7406141 46.2372473,44.5124258 C53.1337244,32.5452685 63.4997663,26.6462516 77.3353727,26.8153756 C76.3327587,39.438415 66.915797,48.3593805 49.0844872,53.5782719 C60.4987164,53.5782719 68.4059145,56.9454369 72.8060814,63.6797665 C65.5939503,68.0887498 57.3935196,67.5699819 48.2047898,62.1234626 C53.2131858,66.1841811 55.3973477,71.7135205 54.7572757,78.7114805 C48.2502781,78.4791811 42.8870816,73.631174 38.6676865,64.1674592 C34.4482906,73.6311746 29.0850944,78.4791811 22.5780972,78.7114805 C21.9380251,71.7135205 24.1221871,66.1841811 29.1305832,62.1234626 C19.9418533,67.5699819 11.7414227,68.0887498 4.52929145,63.6797665 C8.92945836,56.9454369 16.8366565,53.5782719 28.2508858,53.5782719 C10.419576,48.3593805 1.00261405,39.438415 0,26.8153756 C13.8356065,26.6462516 24.2016484,32.5452685 31.0981257,44.5124258 C25.2903854,25.7406141 27.8072067,10.915884 38.6485895,0.0382357727 Z M38.7023047,61.5431421 C42.6055095,61.5431421 45.7696821,58.3680276 45.7696821,54.4513253 C45.7696821,51.8401905 43.4138894,47.8119673 38.7023047,42.3666559 C33.9907199,47.8119673 31.6349272,51.8401905 31.6349272,54.4513253 C31.6349272,58.3680276 34.7990998,61.5431421 38.7023047,61.5431421 Z M38.7023047,60.4586703 C37.157579,60.4586703 35.9053314,59.2124866 35.9053314,57.6752411 C35.9053314,56.1379956 37.157579,54.891812 38.7023047,54.891812 C40.2470303,54.891812 41.4992779,56.1379956 41.4992779,57.6752411 C41.4992779,59.2124866 40.2470303,60.4586703 38.7023047,60.4586703 Z" id="Combined-Shape"></path>
                        </g>
                        <g id="Group" transform="translate(7.129785, 87.631670)">
                            <g id="Group-2" transform="translate(7.550096, 19.336949)">
                                <path d="M9.63167941,0 L9.63167941,14.5120967 L8.35996417,14.5120967 L7.8596172,13.6887153 C7.42876068,14.0317926 6.96663926,14.2993889 6.47323908,14.4915122 C5.97983891,14.6836355 5.5038191,14.7796957 5.04516541,14.7796957 C4.01666925,14.7796957 3.1236978,14.5601295 2.36622427,14.1209906 C1.60875075,13.6818517 1.02501844,13.0643218 0.615009831,12.2683825 C0.205001228,11.4724432 -7.81597009e-14,10.5461484 -7.81597009e-14,9.48947035 C-7.81597009e-14,8.44651539 0.205001228,7.53051278 0.615009831,6.741435 C1.02501844,5.95235723 1.61569994,5.34168884 2.38707206,4.90941145 C3.15844418,4.47713406 4.05836484,4.2609986 5.086861,4.2609986 C5.40652871,4.2609986 5.76093761,4.31932087 6.15009831,4.43596714 C6.53925904,4.55261342 6.91451551,4.7207188 7.27587904,4.94028824 L7.27587904,0.205845344 L9.63167941,0 Z M2.39749596,9.46888581 C2.39749596,10.4706715 2.63724316,11.2734603 3.11674474,11.8772763 C3.59624635,12.4810924 4.25294517,12.7829958 5.086861,12.7829958 C5.5038189,12.7829958 5.88602456,12.7178121 6.2334895,12.5874428 C6.5809544,12.4570734 6.92841413,12.2477994 7.27587904,11.9596145 L7.27587904,7.06049527 C6.94231272,6.77231038 6.6018022,6.56303634 6.25433729,6.43266699 C5.90687235,6.30229764 5.51771749,6.23711391 5.086861,6.23711391 C4.25294517,6.23711391 3.59624635,6.5390174 3.11674474,7.14283342 C2.63724316,7.74664946 2.39749596,8.5219925 2.39749596,9.46888581 Z M14.5934537,8.15147561 L14.5934537,14.5120967 L12.2585011,14.5120967 L12.2585011,4.52859757 L13.5093685,4.52859757 L14.2807368,6.1753603 C14.7810863,5.76366757 15.3543948,5.3862882 16.0006795,5.04321092 C16.6469643,4.70013362 17.2133236,4.52859757 17.6997745,4.52859757 L18.1792737,6.38120566 C17.6789242,6.38120566 17.0951919,6.55274174 16.4280593,6.89581901 C15.7609266,7.23889629 15.1493975,7.65744432 14.5934537,8.15147561 Z M29.416233,9.51005489 C29.416233,10.5530098 29.200808,11.4724432 28.7699515,12.2683825 C28.339095,13.0643218 27.7275659,13.6818517 26.9353459,14.1209906 C26.1431259,14.5601295 25.2188831,14.7796957 24.1625897,14.7796957 C23.1062964,14.7796957 22.1890027,14.5601295 21.4106813,14.1209906 C20.6323599,13.6818517 20.0312546,13.0677525 19.6073474,12.2786747 C19.1834402,11.489597 18.9714898,10.5667329 18.9714898,9.51005489 C18.9714898,8.46709993 19.1834402,7.55109732 19.6073474,6.76201954 C20.0312546,5.97294176 20.6393091,5.35884265 21.4315291,4.9197037 C22.2237491,4.48056479 23.1479919,4.2609986 24.2042853,4.2609986 C25.2605787,4.2609986 26.1813469,4.47713406 26.9666176,4.90941145 C27.7518883,5.34168884 28.3564682,5.95578796 28.7803754,6.75172726 C29.2042826,7.54766659 29.416233,8.46709993 29.416233,9.51005489 Z M24.1625897,12.7829958 C25.0104041,12.7829958 25.6948997,12.4742309 26.2160971,11.8566918 C26.7372945,11.2391527 26.9978893,10.4638096 26.9978893,9.53063942 C26.9978893,8.55629992 26.7442437,7.76380327 26.2369449,7.1531257 C25.7296461,6.54244813 25.0520997,6.23711391 24.2042853,6.23711391 C23.3703695,6.23711391 22.692823,6.54587883 22.1716257,7.16341795 C21.6504283,7.78095708 21.3828843,8.56316157 21.3689857,9.51005489 C21.3689857,10.4843944 21.6226313,11.2734603 22.1299301,11.8772763 C22.6372288,12.4810924 23.3147753,12.7829958 24.1625897,12.7829958 Z M35.6288748,4.2609986 C36.657371,4.2609986 37.5538168,4.47713406 38.3182399,4.90941145 C39.0826626,5.34168884 39.6698695,5.95578796 40.0798782,6.75172726 C40.4898868,7.54766659 40.694888,8.48082281 40.694888,9.55122396 C40.694888,10.5804558 40.4864121,11.489597 40.0694542,12.2786747 C39.6524963,13.0677525 39.0583401,13.6818517 38.2869681,14.1209906 C37.5155958,14.5601295 36.6156752,14.7796957 35.587179,14.7796957 C34.9756409,14.7796957 34.3293659,14.6012981 33.6483345,14.2444978 L33.6483345,18.7936799 L31.313382,19.0201097 L31.313382,4.52859757 L32.5434017,4.52859757 L33.0437486,5.18730265 C33.446808,4.88539464 33.8776578,4.6555363 34.3363115,4.49772075 C34.7949652,4.33990521 35.2258153,4.2609986 35.6288748,4.2609986 Z M35.587179,12.7829958 C36.4210951,12.7829958 37.0777938,12.4810924 37.5572952,11.8772763 C38.036797,11.2734603 38.2765441,10.4981172 38.2765441,9.55122396 C38.2765441,8.56316134 38.0402715,7.76380327 37.5677193,7.1531257 C37.0951671,6.54244813 36.4349936,6.23711391 35.587179,6.23711391 C35.2258157,6.23711391 34.8887798,6.29200545 34.5760613,6.4017902 C34.263343,6.51157492 33.9541038,6.67624954 33.6483345,6.89581901 L33.6483345,12.1654598 C34.218177,12.5771526 34.8644521,12.7829958 35.587179,12.7829958 Z M41.9040597,13.8122226 L42.6128848,12.2066289 C43.571888,12.6594909 44.4683338,12.8859185 45.3022496,12.8859185 C45.8303964,12.8859185 46.2820939,12.7898583 46.657356,12.597735 C47.0326181,12.4056118 47.2202464,12.1448769 47.2202464,11.8155227 C47.2202464,11.2117067 46.553124,10.6970985 45.2188587,10.2716826 C42.995083,9.55808187 41.883212,8.54258834 41.883212,7.22517156 C41.883212,6.30572443 42.2306718,5.58184221 42.9256014,5.05350317 C43.6205314,4.52516417 44.5656219,4.2609986 45.760901,4.2609986 C46.2334535,4.2609986 46.7998127,4.35019737 47.4599961,4.52859757 C48.1201795,4.70699775 48.6726402,4.94714825 49.1173954,5.24905625 L48.3877229,6.81348087 C47.9012719,6.59391142 47.4530488,6.42580605 47.0430402,6.30915977 C46.6330315,6.19251349 46.1917577,6.13419123 45.7192055,6.13419123 C45.2883491,6.13419123 44.9269908,6.23711288 44.6351203,6.44295924 C44.3432497,6.64880564 44.1973169,6.90267902 44.1973169,7.20458703 C44.2112154,7.43787958 44.3779959,7.65058431 44.6976638,7.84270759 C45.0173316,8.03483088 45.4620799,8.22695127 46.0319225,8.41907455 C48.3251909,9.22873696 49.4718078,10.3265678 49.4718078,11.7126001 C49.4718078,12.6869395 49.1139243,13.4416983 48.3981466,13.9768988 C47.6823689,14.5120994 46.6504137,14.7796957 45.3022496,14.7796957 C44.8019001,14.7796957 44.2146932,14.6939276 43.5406113,14.522389 C42.8665294,14.3508503 42.3210176,14.1141306 41.9040597,13.8122226 Z" id="Drops"></path>
                            </g>
                            <path d="M10.2578572,13.9434303 L8.00072561,13.9434303 L8.00072561,8.09745952 L2.25713165,8.09745952 L2.25713165,13.9434303 L0,13.9434303 L0,0.513497432 L2.25713165,0.414747927 L2.25713165,6.31996842 L8.00072561,6.31996842 L8.00072561,0.513497432 L10.2578572,0.513497432 L10.2578572,13.9434303 Z M21.7450451,9.08495456 L21.7450451,9.73670133 L14.9736502,9.73670133 C15.1751808,11.448368 16.2164067,12.3041885 18.0973591,12.3041885 C18.6213388,12.3041885 19.088211,12.2350645 19.4979899,12.0968145 C19.9077689,11.9585645 20.4015115,11.7446094 20.9792326,11.4549427 L21.6644333,13.0744346 C20.5761679,13.8117679 19.3737199,14.1804291 18.0570532,14.1804291 C16.2835838,14.1804291 14.9299901,13.7294775 13.9962316,12.8275609 C13.062473,11.9256442 12.5956007,10.697871 12.5956007,9.1442043 C12.5956007,8.14353763 12.787052,7.26467579 13.1699601,6.50759248 C13.5528683,5.75050913 14.1037104,5.16130963 14.822503,4.7399763 C15.5412955,4.31864298 16.3910702,4.10797946 17.3718526,4.10797946 C18.8094376,4.10797946 19.8976867,4.57538912 20.6366323,5.51022244 C21.3755779,6.44505579 21.7450451,7.63662126 21.7450451,9.08495456 Z M15.0139561,8.25545873 L19.5685253,8.25545873 C19.447607,7.5181254 19.1990562,6.95855046 18.8228658,6.57671711 C18.4466753,6.19488379 17.9428563,6.00396999 17.3113936,6.00396999 C16.6664957,6.00396999 16.1458827,6.20146702 15.7495392,6.59646703 C15.3531956,6.99146701 15.1080037,7.54445872 15.0139561,8.25545873 Z M24.3649301,6.77421613 L23.7401883,4.95722522 C24.089508,4.73339188 24.6302737,4.53589486 25.3625016,4.36472818 C26.0947296,4.19356151 26.689236,4.10797946 27.1460387,4.10797946 C27.8984197,4.10797946 28.5869723,4.25939386 29.2117172,4.5622272 C29.8364622,4.86506052 30.3302048,5.27651269 30.6929599,5.79659601 C31.055715,6.31667936 31.2370898,6.8992956 31.2370898,7.5444623 L31.2370898,13.9434303 L29.7256178,13.9434303 L29.3830174,12.9756851 C29.0068269,13.3311851 28.5769014,13.6208475 28.0932279,13.8446808 C27.6095544,14.0685141 27.1258882,14.1804291 26.6422147,14.1804291 C25.5136432,14.1804291 24.6571509,13.9039333 24.0727121,13.3509332 C23.4882733,12.7979332 23.1960583,12.060611 23.1960583,11.1389443 C23.1960583,10.1777776 23.5285789,9.43387214 24.1936299,8.90720546 C24.8586809,8.38053878 25.735326,8.11720941 26.8235913,8.11720941 L28.9598052,8.11720941 C28.9329345,6.78737608 28.3417869,6.12246939 27.1863446,6.12246939 C26.2996099,6.12246939 25.3591478,6.33971615 24.3649301,6.77421613 Z M25.1710485,11.1389443 C25.1710485,11.4812776 25.2986827,11.7808148 25.5539548,12.0375648 C25.8092269,12.2943148 26.1585414,12.4226879 26.6019088,12.4226879 C27.0184054,12.4226879 27.4348957,12.3239394 27.8513924,12.1264394 C28.267889,11.9289394 28.6440738,11.6590268 28.9799582,11.3166934 L28.9799582,9.59845201 L26.7832854,9.59845201 C26.2861765,9.59845201 25.8931977,9.74657478 25.6043372,10.0428248 C25.3154766,10.3390748 25.1710485,10.7044443 25.1710485,11.1389443 Z M35.9528827,13.9434303 L33.6957512,13.9434303 L33.6957512,0.217248914 L35.9528827,0 L35.9528827,13.9434303 Z M47.0168585,9.08495456 L47.0168585,9.73670133 L40.2454634,9.73670133 C40.4469941,11.448368 41.4882199,12.3041885 43.3691725,12.3041885 C43.893152,12.3041885 44.3600244,12.2350645 44.7698033,12.0968145 C45.1795821,11.9585645 45.6733249,11.7446094 46.251046,11.4549427 L46.9362464,13.0744346 C45.8479813,13.8117679 44.6455334,14.1804291 43.3288665,14.1804291 C41.5553969,14.1804291 40.2018033,13.7294775 39.268045,12.8275609 C38.3342863,11.9256442 37.8674139,10.697871 37.8674139,9.1442043 C37.8674139,8.14353763 38.0588654,7.26467579 38.4417736,6.50759248 C38.8246815,5.75050913 39.3755237,5.16130963 40.0943163,4.7399763 C40.8131089,4.31864298 41.6628836,4.10797946 42.6436657,4.10797946 C44.0812509,4.10797946 45.1695,4.57538912 45.9084457,5.51022244 C46.6473912,6.44505579 47.0168585,7.63662126 47.0168585,9.08495456 Z M40.2857694,8.25545873 L44.8403387,8.25545873 C44.7194203,7.5181254 44.4708694,6.95855046 44.094679,6.57671711 C43.7184886,6.19488379 43.2146696,6.00396999 42.5832069,6.00396999 C41.9383091,6.00396999 41.417696,6.20146702 41.0213525,6.59646703 C40.6250089,6.99146701 40.3798171,7.54445872 40.2857694,8.25545873 Z M49.6367433,6.77421613 L49.0120017,4.95722522 C49.3613214,4.73339188 49.902087,4.53589486 50.634315,4.36472818 C51.3665429,4.19356151 51.9610492,4.10797946 52.4178519,4.10797946 C53.170233,4.10797946 53.8587857,4.25939386 54.4835306,4.5622272 C55.1082755,4.86506052 55.6020182,5.27651269 55.9647733,5.79659601 C56.3275284,6.31667936 56.5089032,6.8992956 56.5089032,7.5444623 L56.5089032,13.9434303 L54.9974311,13.9434303 L54.6548309,12.9756851 C54.2786401,13.3311851 53.8487147,13.6208475 53.3650413,13.8446808 C52.8813679,14.0685141 52.3977014,14.1804291 51.914028,14.1804291 C50.7854565,14.1804291 49.9289643,13.9039333 49.3445254,13.3509332 C48.7600868,12.7979332 48.4678718,12.060611 48.4678718,11.1389443 C48.4678718,10.1777776 48.8003921,9.43387214 49.4654434,8.90720546 C50.1304943,8.38053878 51.0071393,8.11720941 52.0954045,8.11720941 L54.2316186,8.11720941 C54.2047479,6.78737608 53.6136001,6.12246939 52.4581579,6.12246939 C51.5714231,6.12246939 50.6309611,6.33971615 49.6367433,6.77421613 Z M50.4428618,11.1389443 C50.4428618,11.4812776 50.570496,11.7808148 50.8257681,12.0375648 C51.0810401,12.2943148 51.4303549,12.4226879 51.873722,12.4226879 C52.2902187,12.4226879 52.7067092,12.3239394 53.1232056,12.1264394 C53.5397023,11.9289394 53.9158871,11.6590268 54.2517714,11.3166934 L54.2517714,9.59845201 L52.0550988,9.59845201 C51.5579898,9.59845201 51.1650112,9.74657478 50.8761507,10.0428248 C50.5872901,10.3390748 50.4428618,10.7044443 50.4428618,11.1389443 Z M59.3706235,6.14221928 L57.8793045,6.14221928 L57.8793045,4.44372777 L59.3706235,4.44372777 L59.3706235,3.4364828 C59.3706235,2.39631615 59.6762738,1.57670345 60.2875834,0.977620111 C60.898893,0.37853678 61.7419502,0.078999605 62.81678,0.078999605 C63.1123584,0.078999605 63.4381613,0.128373864 63.7941985,0.227123864 C64.150236,0.325873863 64.4222982,0.447663703 64.6103936,0.592497037 L63.9856516,2.25148874 C63.5557199,2.09348874 63.2198404,2.01448993 62.9780037,2.01448993 C62.521201,2.01448993 62.1853216,2.16590432 61.9703555,2.46873766 C61.7553895,2.77157099 61.6479081,3.18631477 61.6479081,3.71298145 L61.6479081,4.44372777 L63.4616748,4.44372777 L64.1871813,6.14221928 L61.6479081,6.14221928 L61.6479081,13.9434303 L59.3706235,13.9434303 L59.3706235,6.14221928 Z" id="Healeaf-Copy"></path>
                        </g>
                    </g>
                </g>
            </g>
        </g>
    </g>
</svg>