<?xml version="1.0" encoding="UTF-8"?>
<svg width="272px" height="108px" viewBox="0 0 272 108" version="1.1" xmlns="http://www.w3.org/2000/svg" xmlns:xlink="http://www.w3.org/1999/xlink">
    <!-- Generator: sketchtool 49 (51002) - http://www.bohemiancoding.com/sketch -->
    <title>8C753499-EDBB-416B-9DEC-00311AB5E971</title>
    <desc>Created with sketchtool.</desc>
    <defs></defs>
    <g id="Page-1" stroke="none" stroke-width="1" fill="none" fill-rule="evenodd">
        <g id="Heleaf-drops-(2)(shop-now)-(v0.2)" transform="translate(-112.000000, -123.000000)" fill="#FFFFFF">
            <g id="body" transform="translate(0.000000, 88.000000)">
                <g id="main-block">
                    <g id="Group-37" transform="translate(112.000000, 35.000000)">
                        <g id="logo">
                            <path d="M117.443439,56 C112.818981,56 108.646022,54.9825521 104.924434,52.9476257 C101.202847,50.9126993 98.2850784,48.1119825 96.1710407,44.5453911 C94.057003,40.9787997 93,36.9637095 93,32.5 C93,28.0362905 94.057003,24.0212003 96.1710407,20.4546089 C98.2850784,16.8880175 101.213858,14.0873007 104.957466,12.0523743 C108.701075,10.0174479 112.885045,9 117.509502,9 C121.120983,9 124.424118,9.60171652 127.419005,10.8051676 C130.413891,12.0086187 132.968315,13.7918876 135.082353,16.1550279 L130.788235,20.2905028 C127.308882,16.6582686 122.970765,14.8421788 117.773756,14.8421788 C114.338444,14.8421788 111.233498,15.6079998 108.458824,17.1396648 C105.684149,18.6713298 103.515091,20.7828078 101.951584,23.474162 C100.388077,26.1655163 99.6063348,29.1740988 99.6063348,32.5 C99.6063348,35.8259012 100.388077,38.8344838 101.951584,41.525838 C103.515091,44.2171922 105.684149,46.3286702 108.458824,47.8603352 C111.233498,49.3920002 114.338444,50.1578212 117.773756,50.1578212 C122.926723,50.1578212 127.264839,48.3198508 130.788235,44.6438547 L135.082353,48.7793296 C132.968315,51.1424699 130.402881,52.9366792 127.385973,54.1620112 C124.369065,55.3873432 121.05492,56 117.443439,56 Z M175.645249,31.646648 C178.331838,32.3905996 180.445844,33.7362566 181.98733,35.6836592 C183.528816,37.6310619 184.299548,40.0926294 184.299548,43.0684358 C184.299548,47.0507648 182.791116,50.1140489 179.774208,52.2583799 C176.7573,54.4027109 172.364131,55.4748603 166.59457,55.4748603 L144.529412,55.4748603 L144.529412,9.52513966 L165.273303,9.52513966 C170.558397,9.52513966 174.643274,10.5754085 177.528054,12.6759777 C180.412835,14.7765468 181.855204,17.6866667 181.855204,21.4064246 C181.855204,23.8133267 181.293671,25.8919838 180.170588,27.6424581 C179.047506,29.3929324 177.539074,30.727649 175.645249,31.646648 Z M151.135747,14.8421788 L151.135747,29.5460894 L164.678733,29.5460894 C168.070002,29.5460894 170.679478,28.9224923 172.50724,27.6752793 C174.335002,26.4280664 175.248869,24.6010362 175.248869,22.1941341 C175.248869,19.7872319 174.335002,17.9602018 172.50724,16.7129888 C170.679478,15.4657759 168.070002,14.8421788 164.678733,14.8421788 L151.135747,14.8421788 Z M166.330317,50.1578212 C170.073925,50.1578212 172.8926,49.5451644 174.786425,48.3198324 C176.680251,47.0945004 177.627149,45.1690075 177.627149,42.5432961 C177.627149,37.4231588 173.861576,34.8631285 166.330317,34.8631285 L151.135747,34.8631285 L151.135747,50.1578212 L166.330317,50.1578212 Z M194.539367,9.52513966 L214.028054,9.52513966 C218.916767,9.52513966 223.254883,10.4878861 227.042534,12.4134078 C230.830185,14.3389296 233.769974,17.0411837 235.861991,20.5202514 C237.954007,23.9993191 239,27.9925287 239,32.5 C239,37.0074713 237.954007,41.0006809 235.861991,44.4797486 C233.769974,47.9588163 230.830185,50.6610704 227.042534,52.5865922 C223.254883,54.5121139 218.916767,55.4748603 214.028054,55.4748603 L194.539367,55.4748603 L194.539367,9.52513966 Z M213.631674,49.7639665 C217.375283,49.7639665 220.667407,49.0419067 223.508145,47.5977654 C226.348883,46.1536241 228.539962,44.1296685 230.081448,41.525838 C231.622934,38.9220075 232.393665,35.9134249 232.393665,32.5 C232.393665,29.0865751 231.622934,26.0779925 230.081448,23.474162 C228.539962,20.8703315 226.348883,18.8463759 223.508145,17.4022346 C220.667407,15.9580933 217.375283,15.2360335 213.631674,15.2360335 L201.145701,15.2360335 L201.145701,49.7639665 L213.631674,49.7639665 Z" id="H1"></path>
                            <g id="Group-12" fill-rule="nonzero">
                                <g id="logo2">
                                    <g id="Group-Copy">
                                        <path d="M32.7026527,0.0325154602 L32.7026822,0 C32.7080619,0.00541025587 32.7134391,0.0108216619 32.7188138,0.0162342181 C32.7241857,0.0108202295 32.7295621,0.00540953981 32.7349409,0 L32.7349704,0.0325154602 C41.9084483,9.28279899 44.0380664,21.8896561 39.1238247,37.8530865 C44.9593053,27.6762913 53.7305715,22.6598045 65.4376231,22.8036265 C64.5892574,33.5381797 56.621059,41.1245126 41.5330277,45.5626249 C51.1912216,45.5626249 57.8819277,48.4260408 61.6051458,54.1528723 C55.5025733,57.902244 48.5637474,57.4610869 40.7886683,52.8294013 C45.0265418,56.2826107 46.8746788,60.9847261 46.3330794,66.9357472 C40.8271584,66.7382013 36.289069,62.6154866 32.7188117,54.5676031 C29.1485536,62.6154871 24.6104645,66.7382013 19.1045438,66.9357472 C18.5629443,60.9847261 20.4110814,56.2826107 24.6489551,52.8294013 C16.8738758,57.4610869 9.93504997,57.902244 3.83247738,54.1528723 C7.55569553,48.4260408 14.2464016,45.5626249 23.9045956,45.5626249 C8.81656429,41.1245126 0.848365736,33.5381797 0,22.8036265 C11.7070517,22.6598045 20.4783178,27.6762913 26.3137986,37.8530865 C21.3995569,21.8896561 23.5291749,9.28279899 32.7026527,0.0325154602 Z M32.7481039,52.3359004 C36.0508157,52.3359004 38.7281926,49.635803 38.7281926,46.305064 C38.7281926,44.0845715 36.7348295,40.6589958 32.7481039,36.0283373 C28.7613783,40.6589958 26.7680153,44.0845715 26.7680153,46.305064 C26.7680153,49.635803 29.4453922,52.3359004 32.7481039,52.3359004 Z M32.7481039,51.4136723 C31.4410284,51.4136723 30.3814342,50.3539256 30.3814342,49.0466617 C30.3814342,47.7393979 31.4410284,46.6796511 32.7481039,46.6796511 C34.0551795,46.6796511 35.1147736,47.7393979 35.1147736,49.0466617 C35.1147736,50.3539256 34.0551795,51.4136723 32.7481039,51.4136723 Z" id="Combined-Shape"></path>
                                    </g>
                                </g>
                                <g id="Group" transform="translate(6.032895, 74.521420)">
                                    <g id="Group-2" transform="translate(6.388543, 16.444019)">
                                        <path d="M8.14988258,0 L8.14988258,12.3409957 L7.07381584,12.3409957 L6.65044532,11.6407973 C6.28587442,11.9325481 5.8948486,12.1601103 5.47735615,12.3234907 C5.0598637,12.4868711 4.6570777,12.5685601 4.26898612,12.5685601 C3.39872013,12.5685601 2.6431289,12.3818424 2.00218977,12.0084014 C1.36125063,11.6349605 0.867323294,11.109817 0.520392934,10.4329552 C0.173462577,9.75609342 -7.81597009e-14,8.96837816 -7.81597009e-14,8.06978581 C-7.81597009e-14,7.18286348 0.173462577,6.40390063 0.520392934,5.73287386 C0.867323294,5.06184709 1.36713072,4.54253854 2.01983021,4.17493257 C2.67252969,3.8073266 3.43400102,3.62352637 4.304267,3.62352637 C4.57475506,3.62352637 4.87463952,3.67312326 5.20392934,3.77231852 C5.53321919,3.87151378 5.8507439,4.01446953 6.15651303,4.20119 L6.15651303,0.175049583 L8.14988258,0 Z M2.02865043,8.05228085 C2.02865043,8.90419307 2.23151344,9.58687964 2.63724555,10.100361 C3.04297768,10.6138423 3.59864591,10.8705791 4.304267,10.8705791 C4.65707753,10.8705791 4.98048232,10.8151473 5.27449111,10.704282 C5.56849988,10.5934167 5.86250427,10.4154515 6.15651303,10.1703808 L6.15651303,6.0042007 C5.87426461,5.75913008 5.58614032,5.58116476 5.29213155,5.47029949 C4.99812276,5.35943421 4.66883788,5.30400238 4.304267,5.30400238 C3.59864591,5.30400238 3.04297768,5.56073921 2.63724555,6.07422054 C2.23151344,6.58770191 2.02865043,7.24704874 2.02865043,8.05228085 Z M12.348307,6.93196351 L12.348307,12.3409957 L10.3725778,12.3409957 L10.3725778,3.85109085 L11.4310041,3.85109085 L12.0837004,5.2514875 C12.507073,4.9013866 12.9921802,4.58046555 13.5390365,4.2887148 C14.0858929,3.99696402 14.56512,3.85109085 14.9767323,3.85109085 L15.3824624,5.4265371 C14.9590897,5.4265371 14.4651624,5.5724103 13.9006655,5.86416105 C13.3361687,6.1559118 12.818721,6.51184241 12.348307,6.93196351 Z M24.8906587,8.08729077 C24.8906587,8.9742131 24.708376,9.75609342 24.3438051,10.4329552 C23.9792342,11.109817 23.4617865,11.6349605 22.7914465,12.0084014 C22.1211065,12.3818424 21.3390549,12.5685601 20.4452682,12.5685601 C19.5514815,12.5685601 18.77531,12.3818424 18.1167303,12.0084014 C17.4581507,11.6349605 16.9495231,11.1127344 16.5908324,10.4417077 C16.2321417,9.77068091 16.052799,8.98588312 16.052799,8.08729077 C16.052799,7.20036844 16.2321417,6.42140559 16.5908324,5.75037882 C16.9495231,5.07935205 17.4640308,4.55712603 18.1343708,4.18368504 C18.8047108,3.81024407 19.5867624,3.62352637 20.4805491,3.62352637 C21.3743358,3.62352637 22.1534474,3.8073266 22.8179072,4.17493257 C23.482367,4.54253854 23.9939346,5.06476456 24.3526253,5.74162633 C24.711316,6.41848812 24.8906587,7.20036844 24.8906587,8.08729077 Z M20.4452682,10.8705791 C21.1626496,10.8705791 21.7418382,10.6080074 22.1828514,10.082856 C22.6238646,9.55770463 22.8443678,8.8983578 22.8443678,8.10479573 C22.8443678,7.27622355 22.6297446,6.6022894 22.2004918,6.08297304 C21.771239,5.56365668 21.1979305,5.30400238 20.4805491,5.30400238 C19.774928,5.30400238 19.2016195,5.56657412 18.7606063,6.0917255 C18.3195932,6.61687689 18.0932098,7.28205866 18.0814494,8.08729077 C18.0814494,8.91586292 18.2960726,9.58687964 18.7253255,10.100361 C19.1545783,10.6138423 19.7278868,10.8705791 20.4452682,10.8705791 Z M30.1475094,3.62352637 C31.0177755,3.62352637 31.7763065,3.8073266 32.423126,4.17493257 C33.0699453,4.54253854 33.5668127,5.06476456 33.9137431,5.74162633 C34.2606735,6.41848812 34.434136,7.2120383 34.434136,8.12230069 C34.434136,8.99755297 34.2577333,9.77068091 33.9049227,10.4417077 C33.5521122,11.1127344 33.0493647,11.6349605 32.3966653,12.0084014 C31.7439657,12.3818424 30.9824944,12.5685601 30.1122284,12.5685601 C29.5947731,12.5685601 29.047925,12.416852 28.4716676,12.1134312 L28.4716676,15.982027 L26.4959386,16.1745815 L26.4959386,3.85109085 L27.5367245,3.85109085 L27.960095,4.41124949 C28.3011453,4.15450883 28.6657105,3.95903874 29.0538021,3.8248334 C29.4418937,3.69062805 29.8064591,3.62352637 30.1475094,3.62352637 Z M30.1122284,10.8705791 C30.8178497,10.8705791 31.3735179,10.6138423 31.7792498,10.100361 C32.1849821,9.58687964 32.387845,8.92753278 32.387845,8.12230069 C32.387845,7.28205847 32.187922,6.6022894 31.7880702,6.08297304 C31.3882183,5.56365668 30.82961,5.30400238 30.1122284,5.30400238 C29.8064594,5.30400238 29.5212753,5.3506818 29.2566672,5.44404206 C28.9920595,5.5374023 28.7303955,5.67744055 28.4716676,5.86416105 L28.4716676,10.3454304 C28.9538421,10.6955313 29.5006902,10.8705791 30.1122284,10.8705791 Z M35.4572813,11.7458271 L36.0570564,10.3804403 C36.8685206,10.7655513 37.6270517,10.9581039 38.3326727,10.9581039 C38.7795662,10.9581039 39.1617718,10.876415 39.4793012,10.7130345 C39.7968307,10.5496541 39.9555931,10.3279268 39.9555931,10.0478461 C39.9555931,9.53436475 39.3911049,9.09674516 38.2621112,8.73497421 C36.3804548,8.12813262 35.4396409,7.26456332 35.4396409,6.14424039 C35.4396409,5.36234834 35.7336454,4.74676345 36.3216627,4.29746727 C36.9096804,3.84817111 37.7093724,3.62352637 38.7207624,3.62352637 C39.1206145,3.62352637 39.5998415,3.69938044 40.1584582,3.85109085 C40.717075,4.00280124 41.1845417,4.20702371 41.5608731,4.46376437 L40.9434578,5.79414121 C40.5318455,5.60742074 40.1525798,5.46446498 39.8056494,5.36526973 C39.458719,5.26607447 39.0853334,5.21647758 38.6854816,5.21647758 C38.3209108,5.21647758 38.015146,5.3040015 37.7681787,5.47905195 C37.5212113,5.65410243 37.3977297,5.86999476 37.3977297,6.12673542 C37.40949,6.32512594 37.5506119,6.5060087 37.8211001,6.66938913 C38.0915883,6.83276957 38.4679138,6.99614753 38.9500882,7.15952796 C40.8905462,7.84805978 41.8607605,8.78164821 41.8607605,9.96032132 C41.8607605,10.7888935 41.5579359,11.4307355 40.9522779,11.8858667 C40.3466199,12.3409979 39.473427,12.5685601 38.3326727,12.5685601 C37.9093001,12.5685601 37.4124327,12.4956235 36.8420557,12.3497481 C36.2716787,12.2038727 35.8100918,12.0025677 35.4572813,11.7458271 Z" id="Drops"></path>
                                    </g>
                                    <path d="M8.67972535,11.8574053 L6.76984474,11.8574053 L6.76984474,6.88602857 L1.90988063,6.88602857 L1.90988063,11.8574053 L0,11.8574053 L0,0.436674981 L1.90988063,0.352699025 L1.90988063,5.37446133 L6.76984474,5.37446133 L6.76984474,0.436674981 L8.67972535,0.436674981 L8.67972535,11.8574053 Z M18.3996536,7.72578813 L18.3996536,8.28002948 L12.6700117,8.28002948 C12.8405376,9.73562001 13.7215749,10.4634044 15.31315,10.4634044 C15.7565174,10.4634044 16.1515632,10.4046218 16.4982992,10.2870549 C16.8450352,10.1694879 17.2628174,9.98754184 17.7516584,9.74121114 L18.3314435,11.1184168 C17.4106036,11.7454405 16.3931476,12.0589476 15.279045,12.0589476 C13.778417,12.0589476 12.6330685,11.6754612 11.8429652,10.908477 C11.0528618,10.1414927 10.657816,9.09740207 10.657816,7.77617373 C10.657816,6.9252131 10.8198132,6.17783453 11.1438124,5.53401565 C11.4678116,4.89019674 11.9339088,4.3891452 12.5421179,4.03084599 C13.150327,3.67254679 13.8693671,3.49339986 14.6992599,3.49339986 C15.915678,3.49339986 16.8365041,3.89088209 17.4617658,4.68585845 C18.0870274,5.48083484 18.3996536,6.49413461 18.3996536,7.72578813 Z M12.7041167,7.0203901 L16.557983,7.0203901 C16.4556674,6.39336648 16.2453553,5.91750748 15.9270403,5.5927988 C15.6087252,5.26809015 15.1824168,5.10573826 14.6481023,5.10573826 C14.1024194,5.10573826 13.6619008,5.27368849 13.3265331,5.60959401 C12.9911655,5.9454995 12.7836955,6.41576017 12.7041167,7.0203901 Z M20.6164793,5.76075072 L20.0878516,4.2155931 C20.3834299,4.02524664 20.8410009,3.85729641 21.4605783,3.71173735 C22.0801558,3.56617829 22.5831997,3.49339986 22.9697251,3.49339986 C23.6063551,3.49339986 24.1889766,3.62216171 24.7176069,3.87968928 C25.2462372,4.13721682 25.6640194,4.48711316 25.9709661,4.92938873 C26.2779127,5.37166434 26.4313837,5.86711752 26.4313837,6.41576321 L26.4313837,11.8574053 L25.1524458,11.8574053 L24.8625532,11.0344409 C24.5442382,11.3367558 24.180455,11.5830829 23.7711928,11.7734293 C23.3619307,11.9637758 22.9526746,12.0589476 22.5434124,12.0589476 C21.5884673,12.0589476 20.8637431,11.8238173 20.369218,11.3535495 C19.8746928,10.8832818 19.627434,10.2562676 19.627434,9.47248807 C19.627434,8.655118 19.9087975,8.02250545 20.471533,7.57463142 C21.0342685,7.12675739 21.7760451,6.90282375 22.696885,6.90282375 L24.5044506,6.90282375 C24.4817138,5.77194187 23.981512,5.20650941 23.0038301,5.20650941 C22.2535161,5.20650941 21.4577405,5.39125468 20.6164793,5.76075072 Z M21.2985795,9.47248807 C21.2985795,9.76360617 21.4065776,10.0183307 21.6225771,10.2366693 C21.8385766,10.4550079 22.1341504,10.5641755 22.5093074,10.5641755 C22.8617276,10.5641755 23.2141426,10.4802004 23.5665628,10.3122476 C23.918983,10.1442949 24.2372932,9.91476291 24.5215031,9.62364479 L24.5215031,8.16246313 L22.66278,8.16246313 C22.2421494,8.16246313 21.9096289,8.28842579 21.6652084,8.54035494 C21.4207879,8.79228406 21.2985795,9.102992 21.2985795,9.47248807 Z M30.42167,11.8574053 L28.5117895,11.8574053 L28.5117895,0.184747108 L30.42167,0 L30.42167,11.8574053 Z M39.7834956,7.72578813 L39.7834956,8.28002948 L34.0538537,8.28002948 C34.2243796,9.73562001 35.1054169,10.4634044 36.6969922,10.4634044 C37.1403594,10.4634044 37.5354052,10.4046218 37.8821412,10.2870549 C38.2288772,10.1694879 38.6466595,9.98754184 39.1355004,9.74121114 L39.7152855,11.1184168 C38.7944457,11.7454405 37.7769898,12.0589476 36.6628871,12.0589476 C35.162259,12.0589476 34.0169105,11.6754612 33.2268073,10.908477 C32.4367038,10.1414927 32.0416579,9.09740207 32.0416579,7.77617373 C32.0416579,6.9252131 32.2036553,6.17783453 32.5276546,5.53401565 C32.8516536,4.89019674 33.3177508,4.3891452 33.9259599,4.03084599 C34.5341691,3.67254679 35.2532092,3.49339986 36.0831018,3.49339986 C37.29952,3.49339986 38.2203461,3.89088209 38.8456079,4.68585845 C39.4708695,5.48083484 39.7834956,6.49413461 39.7834956,7.72578813 Z M34.0879587,7.0203901 L37.941825,7.0203901 C37.8395095,6.39336648 37.6291972,5.91750748 37.3108823,5.5927988 C36.9925673,5.26809015 36.5662589,5.10573826 36.0319443,5.10573826 C35.4862616,5.10573826 35.0457428,5.27368849 34.7103752,5.60959401 C34.3750076,5.9454995 34.1675375,6.41576017 34.0879587,7.0203901 Z M42.0003213,5.76075072 L41.4716938,4.2155931 C41.767272,4.02524664 42.2248429,3.85729641 42.8444203,3.71173735 C43.4639978,3.56617829 43.9670416,3.49339986 44.353567,3.49339986 C44.9901972,3.49339986 45.5728186,3.62216171 46.1014489,3.87968928 C46.6300793,4.13721682 47.0478616,4.48711316 47.3548082,4.92938873 C47.6617548,5.37166434 47.8152258,5.86711752 47.8152258,6.41576321 L47.8152258,11.8574053 L46.5362879,11.8574053 L46.2463953,11.0344409 C45.9280801,11.3367558 45.564297,11.5830829 45.1550349,11.7734293 C44.7457728,11.9637758 44.3365165,12.0589476 43.9272544,12.0589476 C42.9723093,12.0589476 42.2475852,11.8238173 41.7530599,11.3535495 C41.258535,10.8832818 41.0112761,10.2562676 41.0112761,9.47248807 C41.0112761,8.655118 41.2926395,8.02250545 41.8553752,7.57463142 C42.4181106,7.12675739 43.1598871,6.90282375 44.0807269,6.90282375 L45.8882927,6.90282375 C45.8655559,5.77194187 45.3653539,5.20650941 44.3876721,5.20650941 C43.637358,5.20650941 42.8415825,5.39125468 42.0003213,5.76075072 Z M42.6824216,9.47248807 C42.6824216,9.76360617 42.7904197,10.0183307 43.0064191,10.2366693 C43.2224186,10.4550079 43.5179926,10.5641755 43.8931494,10.5641755 C44.2455697,10.5641755 44.5979847,10.4802004 44.9504047,10.3122476 C45.302825,10.1442949 45.6211352,9.91476291 45.9053451,9.62364479 L45.9053451,8.16246313 L44.0466221,8.16246313 C43.6259913,8.16246313 43.293471,8.28842579 43.0490506,8.54035494 C42.8046301,8.79228406 42.6824216,9.102992 42.6824216,9.47248807 Z M50.2366814,5.22330459 L48.9747961,5.22330459 L48.9747961,3.7789181 L50.2366814,3.7789181 L50.2366814,2.92236333 C50.2366814,2.03781216 50.4953086,1.34081868 51.0125706,0.831361984 C51.5298326,0.321905293 52.2431886,0.0671807664 53.15266,0.0671807664 C53.4027648,0.0671807664 53.6784441,0.109168326 53.9797064,0.193144704 C54.280969,0.277121081 54.5111754,0.380690393 54.670333,0.503855748 L54.1417052,1.91465184 C53.7779168,1.78028964 53.4937111,1.71310955 53.2890801,1.71310955 C52.9025547,1.71310955 52.618349,1.84187139 52.4364547,2.09939895 C52.2545603,2.35692651 52.1636146,2.70962201 52.1636146,3.15749603 L52.1636146,3.7789181 L53.6983402,3.7789181 L54.3122303,5.22330459 L52.1636146,5.22330459 L52.1636146,11.8574053 L50.2366814,11.8574053 L50.2366814,5.22330459 Z" id="Healeaf-Copy"></path>
                                </g>
                            </g>
                            <path d="M118.293195,98.6229508 L115.501391,98.6229508 L115.501391,82.8893443 L96.7692891,82.8893443 L96.7692891,98.6229508 L94,98.6229508 L94,65.8032787 L96.7692891,65.8032787 L96.7692891,80.545082 L115.501391,80.545082 L115.501391,65.8032787 L118.293195,65.8032787 L118.293195,98.6229508 Z M135.426764,99.0737705 C133.355416,99.0737705 131.482975,98.5628466 129.809385,97.5409836 C128.135796,96.5191206 126.833717,95.095296 125.903112,93.2694672 C124.972506,91.4436384 124.50721,89.3961862 124.50721,87.1270492 L124.50721,86.1577869 C124.50721,83.8135129 124.961249,81.7021952 125.86934,79.8237705 C126.777431,77.9453458 128.041985,76.4689261 129.663041,75.3944672 C131.284096,74.3200083 133.040213,73.7827869 134.931444,73.7827869 C137.88837,73.7827869 140.233611,74.7933642 141.96724,76.8145492 C143.700869,78.8357341 144.56767,81.596977 144.56767,85.0983607 L144.56767,86.6086066 L127.186441,86.6086066 L127.186441,87.1270492 C127.186441,89.8920903 127.978194,92.1950045 129.561725,94.0358607 C131.145256,95.8767169 133.137774,96.7971311 135.539337,96.7971311 C136.980275,96.7971311 138.252334,96.5341556 139.355553,96.0081967 C140.458771,95.4822378 141.460658,94.6407162 142.361245,93.4836066 L144.049836,94.7684426 C142.068546,97.6386756 139.194217,99.0737705 135.426764,99.0737705 Z M134.931444,76.0819672 C132.905125,76.0819672 131.197789,76.8258122 129.809385,78.3135246 C128.420981,79.8012369 127.576694,81.7998508 127.276499,84.3094262 L141.888439,84.3094262 L141.888439,84.0163934 C141.81339,81.6721194 141.145465,79.7636686 139.884645,78.2909836 C138.623824,76.8182986 136.972774,76.0819672 134.931444,76.0819672 Z M152.267645,74.2336066 L152.357703,78.2008197 C153.258289,76.7281347 154.384005,75.6236376 155.734885,74.8872951 C157.085764,74.1509526 158.586719,73.7827869 160.237794,73.7827869 C164.080296,73.7827869 166.519347,75.36064 167.555022,78.5163934 C168.425588,76.9986263 169.588828,75.8302637 171.044776,75.0112705 C172.500724,74.1922773 174.106746,73.7827869 175.862889,73.7827869 C181.08629,73.7827869 183.750484,76.6379496 183.855553,82.3483607 L183.855553,98.6229508 L181.153807,98.6229508 L181.153807,82.5512295 C181.138797,80.3722569 180.669749,78.7568359 179.746648,77.704918 C178.823547,76.6530002 177.31884,76.1270492 175.232482,76.1270492 C173.296221,76.157104 171.66018,76.7844884 170.324311,78.0092213 C168.988441,79.2339542 168.245468,80.725401 168.095371,82.4836066 L168.095371,98.6229508 L165.393625,98.6229508 L165.393625,82.3483607 C165.378615,80.2595524 164.887053,78.7004833 163.918922,77.6711066 C162.950792,76.6417298 161.461094,76.1270492 159.449785,76.1270492 C157.753681,76.1270492 156.297755,76.6116755 155.081963,77.5809426 C153.866172,78.5502098 152.965599,79.9890615 152.380218,81.897541 L152.380218,98.6229508 L149.678472,98.6229508 L149.678472,74.2336066 L152.267645,74.2336066 Z M210.265115,86.6762295 C210.265115,90.4781611 209.42458,93.4948659 207.743486,95.7264344 C206.062391,97.958003 203.810959,99.0737705 200.989122,99.0737705 C197.656953,99.0737705 195.10533,97.9016511 193.334177,95.557377 L193.334177,108 L190.654946,108 L190.654946,74.2336066 L193.15406,74.2336066 L193.289147,77.682377 C195.045291,75.0826373 197.589409,73.7827869 200.921579,73.7827869 C203.833474,73.7827869 206.118678,74.887284 207.777258,77.0963115 C209.435838,79.3053389 210.265115,82.370882 210.265115,86.2930328 L210.265115,86.6762295 Z M207.56337,86.2028689 C207.56337,83.0921976 206.925464,80.6352549 205.649633,78.8319672 C204.373803,77.0286795 202.595171,76.1270492 200.313686,76.1270492 C198.662611,76.1270492 197.244209,76.5252692 196.058437,77.3217213 C194.872665,78.1181734 193.964587,79.2752656 193.334177,80.7930328 L193.334177,92.4918033 C193.979597,93.8893513 194.902684,94.9562805 196.103466,95.692623 C197.304248,96.4289654 198.72265,96.7971311 200.358715,96.7971311 C202.625191,96.7971311 204.392565,95.891744 205.66089,94.0809426 C206.929216,92.2701412 207.56337,89.6441429 207.56337,86.2028689 Z M252.299772,83.9938525 C252.299772,87.0143594 251.778191,89.6666552 250.735011,91.9508197 C249.691832,94.2349841 248.202135,95.9931632 246.265874,97.2254098 C244.329613,98.4576564 242.093191,99.0737705 239.556539,99.0737705 C235.729047,99.0737705 232.637081,97.702541 230.280546,94.960041 C227.924012,92.2175409 226.745763,88.5170998 226.745763,83.8586066 L226.745763,80.477459 C226.745763,77.4870069 227.274849,74.8384678 228.333038,72.5317623 C229.391227,70.2250568 230.888429,68.4518505 232.82469,67.2120902 C234.760951,65.9723299 236.989868,65.352459 239.51151,65.352459 C242.033152,65.352459 244.258317,65.9610595 246.187073,67.1782787 C248.115829,68.3954979 249.605526,70.1161091 250.65621,72.3401639 C251.706895,74.5642188 252.254743,77.1413788 252.299772,80.0717213 L252.299772,83.9938525 Z M249.530483,80.432377 C249.530483,76.4801715 248.637415,73.384574 246.851252,71.1454918 C245.065089,68.9064096 242.618533,67.7868852 239.51151,67.7868852 C236.464526,67.7868852 234.036732,68.9101664 232.228055,71.1567623 C230.419377,73.4033582 229.515052,76.5402804 229.515052,80.567623 L229.515052,83.9938525 C229.515052,87.8859484 230.415625,90.9702755 232.216797,93.2469262 C234.01797,95.523577 236.464526,96.6618852 239.556539,96.6618852 C242.693582,96.6618852 245.140138,95.5386041 246.896281,93.2920082 C248.652425,91.0454123 249.530483,87.9160037 249.530483,83.9036885 L249.530483,80.432377 Z M261.665823,98.6229508 L258.964078,98.6229508 L258.964078,74.2336066 L261.665823,74.2336066 L261.665823,98.6229508 Z M258.491272,67.1782787 C258.491272,66.6673472 258.656377,66.235316 258.986592,65.8821721 C259.316807,65.5290283 259.767094,65.352459 260.337465,65.352459 C260.907837,65.352459 261.361875,65.5290283 261.699595,65.8821721 C262.037315,66.235316 262.206173,66.6673472 262.206173,67.1782787 C262.206173,67.6892102 262.037315,68.1174846 261.699595,68.4631148 C261.361875,68.8087449 260.907837,68.9815574 260.337465,68.9815574 C259.767094,68.9815574 259.316807,68.8087449 258.986592,68.4631148 C258.656377,68.1174846 258.491272,67.6892102 258.491272,67.1782787 Z M272,98.6229508 L269.298254,98.6229508 L269.298254,64 L272,64 L272,98.6229508 Z" id="Hemp-Oil"></path>
                        </g>
                    </g>
                </g>
            </g>
        </g>
    </g>
</svg>