<?xml version="1.0" encoding="UTF-8"?>
<svg width="30px" height="28px" viewBox="0 0 30 28" version="1.1" xmlns="http://www.w3.org/2000/svg" xmlns:xlink="http://www.w3.org/1999/xlink">
    <!-- Generator: sketchtool 49 (51002) - http://www.bohemiancoding.com/sketch -->
    <title>307DF1D4-F244-4B16-9B46-EAC197D6149E</title>
    <desc>Created with sketchtool.</desc>
    <defs></defs>
    <g id="Page-1" stroke="none" stroke-width="1" fill="none" fill-rule="evenodd">
        <g id="Heleaf-drops-(2)(shop-now)-(v0.2)" transform="translate(-626.000000, -1083.000000)" fill="#4A306D" fill-rule="nonzero">
            <g id="body" transform="translate(0.000000, 88.000000)">
                <g id="1" transform="translate(304.000000, 596.000000)">
                    <g id="Group-11" transform="translate(235.000000, 399.000000)">
                        <g id="stars">
                            <g id="star-copy-7" transform="translate(87.000000, 0.000000)">
                                <path d="M15.7093302,0.461197057 L19.5252939,9.30080733 L29.2946537,10.1222204 C29.9722259,10.1794932 30.2478746,11.006935 29.7335357,11.44251 L22.3233593,17.7259431 L24.5439483,27.073473 C24.697942,27.7230676 23.9787915,28.2340016 23.3966953,27.8888574 L15.0009593,22.9332498 L6.60522323,27.8888574 C6.02158714,28.2324944 5.30397654,27.7215604 5.45797023,27.073473 L7.67855925,17.7259431 L0.2668429,11.4410028 C-0.247496028,11.0054278 0.026612742,10.177986 0.70572492,10.1207132 L10.4750847,9.29930015 L14.2910483,0.461197057 C14.5559175,-0.153732352 15.4444611,-0.153732352 15.7093302,0.461197057 Z" id="Shape"></path>
                            </g>
                        </g>
                    </g>
                </g>
            </g>
        </g>
    </g>
</svg>