<?xml version="1.0" encoding="UTF-8"?>
<svg width="70px" height="70px" viewBox="0 0 70 70" version="1.1" xmlns="http://www.w3.org/2000/svg" xmlns:xlink="http://www.w3.org/1999/xlink">
    <!-- Generator: sketchtool 49.3 (51167) - http://www.bohemiancoding.com/sketch -->
    <title>1716CA3A-D406-4EDE-A4F4-62793AA6C390</title>
    <desc>Created with sketchtool.</desc>
    <defs></defs>
    <g id="Page-1" stroke="none" stroke-width="1" fill="none" fill-rule="evenodd">
        <g id="Heleaf-drops-(2)(cart)-(v0.1)" transform="translate(-162.000000, -2019.000000)">
            <g id="body" transform="translate(0.000000, 88.000000)">
                <g id="benefits" transform="translate(112.000000, 1901.000000)">
                    <g id="1">
                        <g id="Group-21" transform="translate(50.000000, 30.000000)">
                            <g id="Group-14">
                                <circle id="Oval-12" fill="#4A306D" cx="35" cy="35" r="35"></circle>
                                <g id="flash" transform="translate(21.000000, 17.000000)" fill="#301D4A" fill-rule="nonzero">
                                    <path d="M29.8668665,15.5959016 C29.6199062,15.0405133 29.0701041,14.682854 28.4635191,14.682854 C26.7076074,14.682854 16.904155,14.682854 16.904155,14.682854 L21.6588917,2.08526645 C21.8375023,1.61210207 21.7729081,1.08110983 21.4859895,0.664719154 C21.1992211,0.248479068 20.7267819,0 20.2220455,0 L8.78601129,0 C8.14727944,0 7.57509467,0.396211168 7.34901484,0.995121017 L0.0994383252,20.2024024 C-0.0791722524,20.6755667 -0.0145780149,21.206559 0.272340575,21.6229497 C0.559259165,22.0391897 1.03169841,22.2878194 1.53643478,22.2878194 L14.3650006,22.210565 L7.58696198,40.2825229 C7.49743137,40.521364 7.59011659,40.7903237 7.80763393,40.9228459 C8.02515126,41.0553681 8.30606109,41.0138043 8.47625939,40.8240567 L29.6063864,17.2527299 C30.0116777,16.8003474 30.1138268,16.15129 29.8668665,15.5959016 Z" id="Shape"></path>
                                </g>
                            </g>
                        </g>
                    </g>
                </g>
            </g>
        </g>
    </g>
</svg>