<?xml version="1.0" encoding="UTF-8"?>
<svg width="70px" height="70px" viewBox="0 0 70 70" version="1.1" xmlns="http://www.w3.org/2000/svg" xmlns:xlink="http://www.w3.org/1999/xlink">
    <!-- Generator: sketchtool 49.3 (51167) - http://www.bohemiancoding.com/sketch -->
    <title>B4833AB4-01D1-4FA8-A108-4F98392B2234</title>
    <desc>Created with sketchtool.</desc>
    <defs></defs>
    <g id="Page-1" stroke="none" stroke-width="1" fill="none" fill-rule="evenodd">
        <g id="Heleaf-drops-(2)(cart)-(v0.1)" transform="translate(-738.000000, -2019.000000)">
            <g id="body" transform="translate(0.000000, 88.000000)">
                <g id="benefits" transform="translate(112.000000, 1901.000000)">
                    <g id="2" transform="translate(576.000000, 0.000000)">
                        <g id="Group-22" transform="translate(50.000000, 30.000000)">
                            <g id="Group-15">
                                <g id="Group-14-Copy" fill="#4A306D">
                                    <circle id="Oval-12" cx="35" cy="35" r="35"></circle>
                                </g>
                                <g id="day-and-night-surveillance-symbol" transform="translate(13.300000, 14.000000)" fill="#301D4A" fill-rule="nonzero">
                                    <path d="M21.543555,0 C21.2435126,0 21,0.238933333 21,0.533333333 L21,41.4666667 C21,41.76 21.2435126,42 21.543555,42 C21.8435973,42 22.08711,41.76 22.08711,41.4666667 L22.08711,36.1290667 C26.1529013,35.9957333 29.8349428,34.3765333 32.5907666,31.7973333 L36.6239447,35.7557333 C36.7315685,35.8602667 36.8696315,35.9114667 37.0087816,35.9114667 C37.1468446,35.9114667 37.2870817,35.8581333 37.3936185,35.7557333 C37.605605,35.5477333 37.605605,35.2085333 37.3936185,35.0016 L33.3484823,31.0325333 C35.8510095,28.3530667 37.4164478,24.8341333 37.5501624,20.9557333 L43.556445,20.9557333 C43.8554003,20.9557333 44.1,20.7168 44.1,20.4224 C44.1,20.128 43.8554003,19.8890667 43.556445,19.8890667 L37.5512495,19.8890667 C37.4197092,16.0672 35.8977552,12.5952 33.4604546,9.9328 L37.7925879,5.68 C38.0045743,5.472 38.0045743,5.13386667 37.7925879,4.92586667 C37.5816886,4.71786667 37.2359876,4.71786667 37.0250882,4.92586667 L32.7136101,9.1584 C29.9447409,6.5152 26.2126924,4.85333333 22.08711,4.7168 L22.08711,0.532266667 C22.08711,0.237866667 21.8435973,0 21.543555,0 Z" id="Shape"></path>
                                    <path d="M18.8139029,7.23948016 C18.6808174,7.02922813 18.4238599,6.94512732 18.2037568,7.03677564 C17.7461472,7.22438514 7,11.7205439 7,20.6492468 C7,29.5639328 16.7480055,34.0665609 17.163642,34.2541704 C17.2281373,34.2832822 17.2977513,34.2983772 17.3653178,34.2983772 C17.368389,34.2983772 17.3724839,34.2983772 17.3765789,34.2983772 C17.6560585,34.3231762 17.89766,34.0600916 17.89766,33.7592695 C17.89766,33.60185 17.8341884,33.4627602 17.7338624,33.3635644 C9.08739585,18.9391969 18.3603883,8.35651145 18.7606687,7.91228665 C18.9244663,7.7279118 18.9459647,7.44865397 18.8139029,7.23948016 Z" id="Shape"></path>
                                    <path d="M4.9,29.05 C4.9,30.0141333 5.68493333,30.8 6.65,30.8 C7.61506667,30.8 8.4,30.0141333 8.4,29.05 C8.4,28.0849333 7.61506667,27.3 6.65,27.3 C5.68493333,27.3 4.9,28.0849333 4.9,29.05 Z M7.46666667,29.05 C7.46666667,29.4998667 7.09986667,29.8666667 6.65,29.8666667 C6.20013333,29.8666667 5.83333333,29.4998667 5.83333333,29.05 C5.83333333,28.6001333 6.20013333,28.2333333 6.65,28.2333333 C7.09986667,28.2333333 7.46666667,28.5992 7.46666667,29.05 Z" id="Shape"></path>
                                    <path d="M7,36.3994717 C7,38.3298868 8.57011321,39.9 10.5005283,39.9 C12.4309434,39.9 14,38.3298868 14,36.3994717 C14,34.4701132 12.4298868,32.9 10.4994717,32.9 C8.5690566,32.9 7,34.4701132 7,36.3994717 Z M12.9433962,36.3994717 C12.9433962,37.7466415 11.8476981,38.8433962 10.4994717,38.8433962 C9.15124528,38.8433962 8.05554717,37.7466415 8.05554717,36.3994717 C8.05554717,35.0523019 9.15124528,33.9566038 10.4994717,33.9566038 C11.8476981,33.9566038 12.9433962,35.0523019 12.9433962,36.3994717 Z" id="Shape"></path>
                                    <path d="M2.8,35.7 C2.8,34.9280615 2.17193846,34.3 1.4,34.3 C0.628061538,34.3 0,34.9272 0,35.7 C0,36.4728 0.628061538,37.1 1.4,37.1 C2.17193846,37.1 2.8,36.4719385 2.8,35.7 Z M0.861538462,35.7 C0.861538462,35.4019077 1.10276923,35.1615385 1.4,35.1615385 C1.69723077,35.1615385 1.93846154,35.4019077 1.93846154,35.7 C1.93846154,35.9972308 1.69723077,36.2384615 1.4,36.2384615 C1.10276923,36.2384615 0.861538462,35.9972308 0.861538462,35.7 Z" id="Shape"></path>
                                </g>
                            </g>
                        </g>
                    </g>
                </g>
            </g>
        </g>
    </g>
</svg>