<?xml version="1.0" encoding="UTF-8"?>
<svg width="70px" height="70px" viewBox="0 0 70 70" version="1.1" xmlns="http://www.w3.org/2000/svg" xmlns:xlink="http://www.w3.org/1999/xlink">
    <!-- Generator: sketchtool 49.3 (51167) - http://www.bohemiancoding.com/sketch -->
    <title>4F7D5A93-AA9D-45AB-8DCF-EE58FA90D56F</title>
    <desc>Created with sketchtool.</desc>
    <defs></defs>
    <g id="Page-1" stroke="none" stroke-width="1" fill="none" fill-rule="evenodd">
        <g id="Heleaf-drops-(2)(cart)-(v0.1)" transform="translate(-738.000000, -2165.000000)">
            <g id="body" transform="translate(0.000000, 88.000000)">
                <g id="benefits" transform="translate(112.000000, 1901.000000)">
                    <g id="4" transform="translate(576.000000, 146.000000)">
                        <g id="Group-20" transform="translate(50.000000, 30.000000)">
                            <g id="Group-17">
                                <g id="Group-14-Copy-3" fill="#4A306D">
                                    <circle id="Oval-12" cx="35" cy="35" r="35"></circle>
                                </g>
                                <g id="guarantee" transform="translate(13.300000, 13.300000)" fill="#301D4A" fill-rule="nonzero">
                                    <path d="M43.4,21.7244645 L39.6855856,16.8804961 L40.5164414,10.8622322 L34.8470721,8.61149944 L32.5988739,2.93573844 L26.5873874,3.767531 L21.7,0 L16.8614865,3.71860203 L10.85,2.88680947 L8.6018018,8.56257046 L2.93243243,10.8133033 L3.76328829,16.8315671 L0,21.7244645 L3.71441441,26.5684329 L2.88355856,32.5866967 L8.55292793,34.8374295 L10.8011261,40.5131905 L16.8126126,39.681398 L21.6511261,43.4 L26.4896396,39.681398 L32.5011261,40.5131905 L34.7493243,34.8374295 L40.4186937,32.5377678 L39.5878378,26.5195039 L43.4,21.7244645 Z M19.9405405,28.7702368 L12.7072072,22.8009019 L14.2711712,20.8926719 L19.6472973,25.2962796 L28.8355856,14.6786922 L30.6927928,16.2933484 L19.9405405,28.7702368 Z" id="Shape"></path>
                                </g>
                            </g>
                        </g>
                    </g>
                </g>
            </g>
        </g>
    </g>
</svg>